<?xml version="1.0" encoding="UTF-8" standalone="no"?>
<svg width="134px" height="64px" viewBox="0 0 134 64" version="1.1" xmlns="http://www.w3.org/2000/svg" xmlns:xlink="http://www.w3.org/1999/xlink">
    <!-- Generator: Sketch 3.6.1 (26313) - http://www.bohemiancoding.com/sketch -->
    <title>Group 9</title>
    <desc>Created with Sketch.</desc>
    <defs>
        <path id="path-1" d="M133.999962,0.01200408 L0,0.01200408 L0,46.7776705 L133.999962,46.7776705 L133.999962,0.01200408 L133.999962,0.01200408 Z"></path>
        <path id="path-3" d="M-5.71834992e-05,33.1541257 L25.3514848,33.1541257 L25.3514848,0.190217033 L-5.71834992e-05,0.190217033 L-5.71834992e-05,33.1541257 L-5.71834992e-05,33.1541257 Z"></path>
        <path id="path-5" d="M0.000230847828,11.9492913 L63.9834,11.9492913 L63.9834,0.0557480399 L0.000230847828,0.0557480399 L0.000230847828,11.9492913 L0.000230847828,11.9492913 Z"></path>
        <path id="path-7" d="M5.06476612,0.011408339 L0.0840983916,0.011408339 L0.0840983916,4.93231124 L5.06476612,4.93231124 L5.06476612,0.011408339 L5.06476612,0.011408339 Z"></path>
        <path id="path-9" d="M5.07992517,0.011408339 L0.099565468,0.011408339 L0.099565468,4.93231124 L5.07992517,4.93231124 L5.07992517,0.011408339 L5.07992517,0.011408339 Z"></path>
        <path id="path-11" d="M0.103462139,4.27812713 L2.47989693,4.27812713 L2.47989693,0.123423968 L0.103462139,0.123423968 L0.103462139,4.27812713 L0.103462139,4.27812713 Z"></path>
    </defs>
    <g id="Page-1" stroke="none" stroke-width="1" fill="none" fill-rule="evenodd">
        <g id="Desktop-Landscape" transform="translate(-991.000000, -1397.000000)">
            <g id="Group-9" transform="translate(991.000000, 1397.000000)">
                <g id="Page-1">
                    <g id="Group-3" transform="translate(0.000000, 0.178537)">
                        <mask id="mask-2" fill="white">
                            <use xlink:href="#path-1"></use>
                        </mask>
                        <g id="Clip-2"></g>
                        <path d="M110.60848,46.7776705 L23.3914441,46.7776705 C10.5261098,46.7776705 -3.81223329e-05,36.2554274 -3.81223329e-05,23.3948659 L-3.81223329e-05,23.3948659 C-3.81223329e-05,10.5343043 10.5261098,0.0118707013 23.3914441,0.0118707013 L110.60848,0.0118707013 C123.473814,0.0118707013 133.999962,10.5343043 133.999962,23.3948659 L133.999962,23.3948659 C133.999962,36.2554274 123.473814,46.7776705 110.60848,46.7776705" id="Fill-1" fill="#FF5F72" mask="url(#mask-2)"></path>
                    </g>
                    <g id="Group-6" transform="translate(54.324324, 30.284007)">
                        <mask id="mask-4" fill="white">
                            <use xlink:href="#path-3"></use>
                        </mask>
                        <g id="Clip-5"></g>
                        <path d="M25.3514848,16.6722 L12.6756185,33.1541829 L-5.71834992e-05,16.6722 L12.6756185,0.190217033 L25.3514848,16.6722 Z" id="Fill-4" fill="#FF5F72" mask="url(#mask-4)"></path>
                    </g>
                </g>
                <g id="Group-8" transform="translate(8.826347, 4.800000)">
                    <g id="Group-3">
                        <g id="Page-1" transform="translate(26.316652, 0.000000)">
                            <path d="M59.2239641,8.58745013 C58.9257087,8.61318706 58.5494268,8.70372592 58.0951183,8.85860712 C57.7580804,8.98775139 57.394726,9.14263259 57.0313715,9.29751379 C56.4348607,9.56913037 55.9029873,9.84028736 55.4228238,10.1114444 C55.3711139,10.1629182 55.3318698,10.2277202 55.3318698,10.304931 C55.3711139,10.4212068 55.4486788,10.550351 55.5525603,10.6923638 C55.7340067,10.8991784 55.8900598,11.0540596 56.0456512,11.1574669 C56.0973612,11.2089408 56.1495328,11.2346777 56.2012427,11.2346777 L56.3439066,11.2346777 C57.1740354,10.6280214 57.9395268,10.0466424 58.6403808,9.47859151 C59.1588651,9.07829025 59.418338,8.84573866 59.418338,8.78093673 C59.418338,8.67798899 59.3537006,8.61318706 59.2239641,8.58745013 M59.0162011,6.74082503 C58.7179457,6.76656197 58.3287363,6.85710083 57.861962,7.03771896 C57.511535,7.17973169 57.1481805,7.33461289 56.7718985,7.51569061 C56.1624602,7.81258454 55.6042702,8.10947848 55.1116409,8.40683199 C55.0594693,8.45830586 55.0336144,8.50977973 55.0336144,8.58745013 C55.0594693,8.70372592 55.1374959,8.82000172 55.2413774,8.94914598 C55.4098963,9.15550105 55.5654878,9.29751379 55.6952242,9.38805265 C55.7469342,9.42665805 55.7861783,9.45285457 55.8378882,9.46572304 L55.9676247,9.46572304 C56.8499251,8.84573866 57.6671264,8.23862274 58.3938354,7.65770335 C58.9386362,7.24453362 59.2239641,7.01198203 59.2239641,6.9471801 C59.2239641,6.83136389 59.1459376,6.76656197 59.0162011,6.74082503 M58.6269917,5.28163272 C58.3416637,5.30736966 57.9916984,5.38458046 57.5503174,5.51372473 C57.226207,5.61713206 56.8887075,5.74627632 56.5516697,5.87542059 C55.9805522,6.10797218 55.4745337,6.3276553 55.0206869,6.55974731 C54.968977,6.61168077 54.9297328,6.6760231 54.9297328,6.74082503 C54.968977,6.85710083 55.0336144,6.97337662 55.1374959,7.10252089 C55.3060148,7.30887596 55.4616062,7.45088869 55.5913427,7.54142755 C55.6435143,7.59290142 55.6952242,7.61909794 55.7469342,7.61909794 L55.8766706,7.61909794 C56.6814062,7.08965242 57.4076534,6.57307536 58.0692633,6.08223524 C58.5623543,5.73340785 58.8218272,5.52705278 58.8218272,5.47511933 C58.8218272,5.371712 58.7567281,5.30736966 58.6269917,5.28163272 M56.6292346,11.4800978 C56.4865706,11.4800978 56.3956166,11.5187032 56.3568341,11.5835051 C56.3568341,11.6997809 56.3826891,11.7903198 56.4607156,11.8546621 C56.7201886,12.1906211 57.0313715,12.5647258 57.4205809,13.004092 C57.861962,13.572143 58.2377822,14.0115092 58.5235718,14.3084031 C58.5623543,14.359877 58.6269917,14.3727455 58.7308732,14.3727455 C58.8088997,14.3727455 59.1459376,13.9981812 59.7170551,13.2237752 C59.7170551,13.1718417 59.677811,13.1203678 59.6131736,13.0684344 C59.1722542,12.6681331 58.6662358,12.3064373 58.0951183,11.9838064 C57.5761723,11.7126494 57.0964706,11.5448997 56.6292346,11.4800978 M55.6435143,11.4800978 C55.4879229,11.4800978 55.1116409,11.6611755 54.501741,12.0095433 C53.8013487,12.4746465 53.2953302,12.9392901 52.9707582,13.3786564 C52.9707582,13.4301302 52.9836857,13.4816041 53.0229298,13.5078006 C53.0875672,13.5978799 53.2560861,13.7270242 53.5289482,13.9081019 C53.8789135,14.1406535 54.0996041,14.2697977 54.2034856,14.2826662 C54.2810504,14.2826662 54.3461495,14.2436012 54.384932,14.1535219 C54.8909504,13.3395914 55.2543049,12.7458035 55.4879229,12.3583707 C55.7210792,11.9838064 55.8508157,11.7641233 55.8508157,11.6869125 C55.8508157,11.6611755 55.8378882,11.6092421 55.8249607,11.5577682 C55.7861783,11.5058347 55.7210792,11.4800978 55.6435143,11.4800978 M56.992589,15.2767553 C56.6292346,15.4058996 56.2270976,15.4964385 55.8120332,15.5741088 C55.6693693,15.5741088 55.6042702,15.48357 55.6042702,15.2767553 C55.6564418,15.0961372 55.7991058,14.8378487 56.0456512,14.4761528 C56.0844337,14.4246789 56.1361436,14.3727455 56.1883152,14.2955347 C56.3956166,14.5795601 56.6684787,14.9150595 56.992589,15.2767553 M56.5904521,12.9521586 C56.5124256,12.9521586 56.3826891,12.9912236 56.2012427,13.0426974 C55.6042702,13.2881175 55.1116409,13.6369449 54.735359,14.0758516 C54.1905581,14.7344413 53.9310851,15.2767553 53.9310851,15.6899251 C53.9310851,16.2584356 54.242268,16.5553295 54.8780229,16.5810664 C55.2150608,16.5810664 55.6952242,16.5038556 56.3180517,16.3485148 C56.7201886,16.2455671 57.135253,16.1292913 57.5632449,15.9872786 C57.745153,16.2193706 57.9265993,16.4133168 58.0951183,16.5939349 C58.1343624,16.6329999 58.1989998,16.6587368 58.2899538,16.6587368 C58.3675187,16.6587368 58.6920907,16.2841725 59.2498191,15.5479123 C59.2498191,15.4964385 59.2110367,15.4449646 59.1459376,15.3930311 C58.7179457,14.9669929 58.2248547,14.5924286 57.6541989,14.2564697 C57.277917,14.0501146 56.9145625,13.8952334 56.5775246,13.7918261 C56.6550895,13.6884188 56.7460436,13.5592745 56.8369976,13.4043933 C56.8369976,13.1847102 56.7460436,13.029829 56.5904521,12.9521586 M52.6595753,10.1500498 C52.075992,10.3306679 51.4402371,10.4726806 50.7523105,10.576088 C50.6096466,10.576088 50.5450092,10.4860087 50.5450092,10.2920625 C50.5708642,10.2143921 50.6359632,10.1114444 50.7393831,9.95610357 L50.7523105,9.93036664 C51.4009929,9.91749817 51.959183,9.9046297 52.4388848,9.87889277 C52.5039839,9.96943163 52.5815487,10.0595109 52.6595753,10.1500498 M50.1428723,5.26876426 C50.0131358,5.32023813 49.8441552,5.44938239 49.6497813,5.65619705 C49.4420183,5.91448558 49.325671,6.13370911 49.2993543,6.31478684 C49.2993543,6.4439311 49.3515259,6.52114191 49.4812624,6.57307536 C49.5588273,6.61168077 49.7536628,6.6374177 50.0389908,6.6374177 C49.9092543,7.24453362 49.7665903,7.99320268 49.6239264,8.89721253 C49.3903084,8.89721253 49.2476444,8.85860712 49.1959345,8.80713325 C49.066198,8.67798899 48.949389,8.61318706 48.8713624,8.6003186 C48.741626,8.65225205 48.5860345,8.76806826 48.391199,8.97488292 C48.1838976,9.23317145 48.0800161,9.43998611 48.0541611,9.62060424 C48.0541611,9.7497485 48.105871,9.82695931 48.2356075,9.8660243 C48.365344,9.91749817 48.7028435,9.95610357 49.2734994,9.95610357 C49.0269539,10.2405886 48.9101449,10.4860087 48.9101449,10.6923638 C48.9101449,11.2604147 49.208862,11.5448997 49.8312277,11.5577682 C50.1557998,11.5577682 50.5967191,11.5058347 51.1678366,11.402887 C51.0898101,11.5187032 51.0117835,11.6478475 50.9342186,11.7903198 C50.882047,11.8932675 50.8432646,11.9966749 50.7915547,12.1129507 C50.5579367,12.1258191 50.2984637,12.1386876 50.0260633,12.1386876 C49.7148804,12.1386876 49.5329723,12.1000822 49.4683349,12.0095433 C49.3385984,11.8803991 49.2217894,11.8160567 49.1179079,11.7903198 C48.975244,11.8417937 48.7933359,11.9838064 48.5860345,12.216358 C48.365344,12.487515 48.2356075,12.7200666 48.2097526,12.9264216 C48.2097526,13.0555659 48.2748517,13.1461048 48.4045881,13.1975786 C48.5860345,13.275249 49.1437629,13.300986 50.0777732,13.300986 L50.1299448,13.300986 C49.2993543,13.9724442 48.573107,14.6829675 47.9244247,15.4058996 C47.8463981,15.4707015 47.8076156,15.5479123 47.8076156,15.6255827 C48.1187985,16.000147 48.4692255,16.3099094 48.858435,16.5553295 C48.9230724,16.5553295 48.9881714,16.5038556 49.0528088,16.4261852 C49.4161633,15.9610821 49.8053728,15.5221754 50.1945822,15.0575318 C50.1428723,15.4964385 50.1170173,15.9610821 50.0907007,16.4909872 C50.1170173,16.6201314 50.1945822,16.6973422 50.3501736,16.7230792 L51.349283,16.7230792 C51.6346109,16.7230792 51.7902024,16.6587368 51.7902024,16.5295926 C51.7902024,16.0902263 51.7902024,15.6255827 51.8031299,15.1347426 C51.8811564,15.212413 51.9721105,15.2638869 52.0496753,15.3158203 C52.3350033,15.5479123 52.5039839,15.6641881 52.5556938,15.6899251 C52.6207929,15.6899251 52.6725028,15.7027935 52.7242127,15.7027935 C52.8022393,15.7027935 52.9061208,15.5998458 53.0617122,15.4058996 C53.1785212,15.2767553 53.2953302,15.1218741 53.4121392,14.9541245 C53.5677307,14.7730467 53.6452955,14.6567709 53.6452955,14.5924286 C53.6452955,14.5018897 53.5935856,14.4246789 53.4897041,14.359877 C52.9319757,14.1535219 52.3871749,13.9338388 51.8553015,13.7012872 C51.8553015,13.5978799 51.8553015,13.4687356 51.8682289,13.3395914 C51.8682289,13.300986 51.8682289,13.2495121 51.8811564,13.1975786 C52.1277019,13.1718417 52.3350033,13.1461048 52.5039839,13.1074994 C52.9449032,13.0555659 53.2173037,12.9521586 53.3211852,12.7972774 C53.3992117,12.6938701 53.4638491,12.5518573 53.5026316,12.3455022 C53.5677307,12.1644245 53.6194406,11.9966749 53.6586847,11.8675306 C53.6586847,11.8031883 53.6065131,11.7641233 53.5289482,11.7641233 C53.1914487,11.8803991 52.6725028,11.9709379 51.959183,12.0352803 C51.959183,11.8675306 51.9721105,11.7126494 51.9979654,11.5577682 C51.9979654,11.4414924 51.9850379,11.3252166 51.9721105,11.2089408 C52.3871749,11.1055335 52.8022393,10.9892577 53.2431586,10.8343765 C53.5289482,11.1703354 53.7103946,11.3380851 53.7884212,11.3380851 L53.9957225,11.3380851 C54.0737491,11.2866112 54.268123,11.1703354 54.5534509,10.9892577 C54.7870689,10.821508 54.9168054,10.6923638 54.9168054,10.6151529 C54.9168054,10.5117456 54.8909504,10.4469437 54.852168,10.4212068 C54.8392405,10.3826014 54.5275959,10.1629182 53.9310851,9.76261697 C53.9310851,9.76261697 53.9181577,9.76261697 53.9047685,9.7497485 C54.2034856,9.69827463 54.3978594,9.64634117 54.4888135,9.56913037 C54.5663784,9.49145998 54.61855,9.34944724 54.6444049,9.16836952 C54.6961148,9.00061985 54.7482865,8.85860712 54.7870689,8.72946286 C54.7870689,8.67798899 54.7482865,8.638924 54.6702599,8.638924 C54.0215775,8.76806826 52.8539492,8.85860712 51.1678366,8.88434406 C51.1678366,8.83287019 51.1807641,8.76806826 51.1936916,8.69085746 C51.4139204,8.67798899 51.6475384,8.66512052 51.9070114,8.65225205 C52.3483924,8.62605553 52.8022393,8.6003186 53.2431586,8.54884473 C53.5548032,8.49691127 53.775032,8.43256893 53.891841,8.35489854 C53.9698676,8.31629313 54.0215775,8.22575427 54.0478941,8.08374154 C54.0866766,7.96746574 54.1125315,7.87738647 54.1383865,7.81258454 C54.1383865,7.77397914 54.1125315,7.74824221 54.0737491,7.74824221 C53.8013487,7.77397914 53.3599676,7.79971608 52.7634568,7.82545301 C52.3091483,7.85118995 51.816519,7.87738647 51.2975731,7.89025494 C51.2975731,7.83832148 51.3105006,7.76111067 51.3234281,7.68344028 C51.5570461,7.67057181 51.816519,7.65770335 52.0889195,7.63196641 C52.5556938,7.60576989 53.0229298,7.55429602 53.4897041,7.50282215 C53.8013487,7.45088869 54.0215775,7.38654635 54.1383865,7.30887596 C54.2164131,7.27027055 54.268123,7.17973169 54.2939779,7.03771896 C54.3332221,6.92144316 54.359077,6.83136389 54.3720045,6.76656197 C54.3720045,6.72795656 54.3461495,6.70221963 54.3202946,6.70221963 C54.034505,6.72795656 53.5935856,6.76656197 52.9707582,6.7922989 C52.5039839,6.83136389 51.9850379,6.85710083 51.4402371,6.88283776 C51.4402371,6.81803584 51.4531646,6.74082503 51.4790195,6.65028617 C52.5427663,6.62454923 53.2824027,6.57307536 53.7103946,6.52114191 C54.2034856,6.4825365 54.501741,6.40486611 54.6056225,6.28859031 C54.6831874,6.18564257 54.7482865,6.04362984 54.7870689,5.83681518 C54.8392405,5.65619705 54.8909504,5.48798779 54.9297328,5.35884353 C54.9297328,5.29450119 54.8909504,5.2554362 54.8129238,5.2554362 C54.1776306,5.43651392 52.9319757,5.55278972 51.0639551,5.59139512 C50.7264556,5.59139512 50.5320817,5.55278972 50.4669826,5.47511933 C50.3372462,5.34597506 50.2333646,5.28163272 50.1428723,5.26876426 M45.9003509,7.55429602 C45.4335766,8.09661001 44.9921955,8.66512052 44.5771311,9.25890838 C44.5124938,9.32371031 44.4737113,9.40092111 44.4737113,9.49145998 C44.4737113,9.77548544 44.7590392,10.1371813 45.3426225,10.6018249 C45.8357135,11.0283227 46.1861405,11.2346777 46.3675869,11.2346777 C46.4456135,11.2346777 46.4973234,11.1445985 46.4973234,10.9635207 C46.4973234,10.6151529 46.4322243,10.3568644 46.315877,10.2015236 C46.0171599,9.80122237 45.848641,9.56913037 45.8098585,9.51719691 C45.8098585,9.49145998 45.8098585,9.45285457 45.822786,9.38805265 C46.082259,8.84573866 46.2249229,8.35489854 46.2249229,7.92886034 C46.2249229,7.72204568 46.1598239,7.58003295 46.0434765,7.52855908 C45.9913049,7.52855908 45.9525225,7.54142755 45.9003509,7.55429602 M44.1879217,7.37367788 C43.6560483,7.99320268 43.1371024,8.62605553 42.6444731,9.29751379 C42.579374,9.37518418 42.5405916,9.47859151 42.5276641,9.58199884 C42.5276641,9.89176123 42.838847,10.2920625 43.4616744,10.8086395 C43.9935478,11.2737427 44.3569023,11.4929663 44.5642037,11.4929663 C44.6680852,11.4929663 44.7331843,11.3895589 44.7331843,11.1574669 C44.7331843,10.7829026 44.6680852,10.5117456 44.5512762,10.3568644 C44.2659483,9.93036664 44.1103568,9.68494658 44.0711127,9.63347271 C44.0711127,9.60773577 44.0711127,9.54293385 44.0974294,9.46572304 C44.4086122,8.84573866 44.5642037,8.30342466 44.5642037,7.82545301 C44.5642037,7.58003295 44.4866388,7.42515175 44.3569023,7.36080941 C44.3047307,7.36080941 44.2530208,7.37367788 44.1879217,7.37367788 M37.1438311,11.0025857 C37.1045869,11.2866112 37.078732,11.5706367 37.052877,11.8675306 C36.936068,11.8932675 36.819259,11.906136 36.70245,11.906136 C36.5727135,11.906136 36.5210036,11.8160567 36.5210036,11.634979 C36.5339311,11.4672293 36.5597861,11.2866112 36.585641,11.092665 C36.7546216,11.0669281 36.936068,11.0411911 37.1438311,11.0025857 M37.3903766,9.16836952 C37.3382049,9.45285457 37.286495,9.76261697 37.2472509,10.0985759 C37.0916595,10.1243128 36.9231406,10.1500498 36.7416942,10.1629182 C36.7934041,9.93036664 36.8580415,9.65920964 36.936068,9.36231571 C37.078732,9.29751379 37.2343234,9.23317145 37.3903766,9.16836952 M39.0377067,9.7497485 C38.9208977,9.78835391 38.8040887,9.81409084 38.6743522,9.84028736 C38.6743522,9.76261697 38.6743522,9.68494658 38.6872797,9.5948673 C38.7135963,9.33657878 38.7265238,9.06542178 38.7523787,8.80713325 L38.7653062,8.80713325 C38.9601418,8.85860712 39.0635616,8.94914598 39.0635616,9.07829025 C39.0506341,9.29751379 39.0377067,9.51719691 39.0377067,9.7497485 M38.9989242,11.4414924 C38.8691877,11.4929663 38.7265238,11.5320313 38.5838598,11.5577682 C38.5838598,11.2994797 38.5967873,11.0154542 38.6226423,10.7181007 C38.7394513,10.6923638 38.8691877,10.6666268 39.0118517,10.6280214 C38.9989242,10.8991784 38.9989242,11.1703354 38.9989242,11.4414924 M36.936068,7.96746574 C36.4951487,8.16141193 36.0149852,8.71659439 35.4960393,9.64634117 C35.0809749,10.4860087 34.8861393,11.2994797 34.8861393,12.1000822 C34.9641659,12.6681331 35.4050852,12.9521586 36.2098208,12.9521586 C36.4429771,12.9521586 36.70245,12.9264216 36.961923,12.8878162 C36.936068,13.1718417 36.9102131,13.4687356 36.8972856,13.7789576 L36.7287667,13.7789576 C36.3912672,13.7789576 36.1705766,13.7398926 36.0666951,13.6626818 C35.9762028,13.546406 35.8981762,13.4687356 35.8206113,13.4429987 C35.7684397,13.4687356 35.7038023,13.4687356 35.6257758,13.4687356 C35.0158758,13.8304315 34.6659105,14.2178643 34.5878839,14.6052971 C34.5878839,14.9150595 34.8344294,15.0961372 35.3533753,15.1604795 C35.8723212,15.1604795 36.3654122,15.1604795 36.819259,15.1347426 C36.7934041,15.5741088 36.7675491,16.025884 36.7546216,16.5167241 C36.7804766,16.6458684 36.8714306,16.7230792 37.0140946,16.7492757 L38.0256698,16.7492757 C38.3114594,16.7492757 38.4541233,16.6844738 38.4541233,16.5553295 C38.4541233,16.0644894 38.4541233,15.5607808 38.4670508,15.0313353 C39.0377067,14.9927299 39.5178701,14.9283875 39.8941521,14.8507171 C40.1406976,14.8249802 40.3092165,14.6958359 40.3867814,14.4890213 C40.4906629,14.2049958 40.6074719,13.9209704 40.7372084,13.6498134 C40.7372084,13.5592745 40.6854985,13.5078006 40.6074719,13.5078006 C39.9587895,13.5978799 39.3230346,13.6626818 38.6872797,13.7012872 C38.6226423,13.7012872 38.5575432,13.7141557 38.4929058,13.7141557 C38.4929058,13.3657879 38.5058333,12.9912236 38.5316882,12.6037908 C38.6743522,12.5780538 38.8304053,12.5261204 38.9859967,12.4746465 L38.9859967,12.5909223 C38.9859967,12.758672 39.0506341,12.8363424 39.2062256,12.8363424 L40.5428345,12.8363424 C40.5945444,12.8363424 40.6333268,12.8230143 40.6854985,12.7844089 C40.672571,12.8101458 40.6591818,12.8492108 40.6591818,12.8749478 C40.6591818,13.029829 40.7372084,13.1332363 40.8927998,13.1847102 C41.0876354,13.2623806 41.6841462,13.300986 42.6703281,13.300986 C42.5535191,13.8690369 42.4367101,14.5409547 42.3199011,15.3286888 C42.1125997,15.3286888 41.9048367,15.3415573 41.6970736,15.3415573 C41.2561543,15.3415573 40.9837538,15.3024923 40.8927998,15.1995445 C40.7372084,15.0442037 40.6074719,14.9669929 40.4906629,14.941256 C40.3350715,15.0055983 40.1406976,15.1604795 39.8941521,15.4187681 C39.6476066,15.7161216 39.5049427,15.9872786 39.4656985,16.2193706 C39.4656985,16.3618429 39.5437251,16.4647906 39.6993165,16.5295926 C39.9070796,16.6068034 40.5294453,16.6458684 41.5802646,16.6458684 C43.3707204,16.5939349 44.5900586,16.5167241 45.2516685,16.4133168 C45.9266675,16.3356464 46.3288045,16.2065021 46.4843959,16.025884 C46.5753499,15.8967397 46.6399873,15.72899 46.6916972,15.4964385 C46.7697238,15.2896238 46.8214337,15.1090057 46.8606779,14.9541245 C46.8606779,14.8764541 46.8085062,14.8378487 46.7180139,14.8378487 C46.173213,15.0184668 45.3038401,15.1476111 44.0974294,15.2381499 C44.1103568,14.5147582 44.1362118,13.8433 44.1620667,13.2237752 C44.5124938,13.1975786 44.7848942,13.1589732 44.9792681,13.1074994 C45.381405,13.0555659 45.6279505,12.9521586 45.7189045,12.8101458 C45.822786,12.6938701 45.8874234,12.5132519 45.9266675,12.2807003 C46.0042324,12.0743453 46.056404,11.8932675 46.0951865,11.7383863 C46.0951865,11.6611755 46.0434765,11.6221105 45.9525225,11.6221105 C45.3947941,11.8289252 44.2788757,11.9580695 42.605229,11.9966749 C42.3199011,11.9966749 42.1384547,11.9580695 42.0862831,11.8546621 C41.9306916,11.6997809 41.7880277,11.6221105 41.6841462,11.5963736 C41.5285547,11.6611755 41.3341809,11.8289252 41.0876354,12.0872137 C40.9320439,12.2678319 40.8281624,12.4355815 40.7630633,12.5909223 L40.7630633,12.5647258 C40.6984259,11.5187032 40.6333268,10.6537584 40.5686895,9.95610357 C40.6854985,10.2663256 41.0096088,10.6280214 41.5285547,11.0540596 C42.1255272,11.5835051 42.5276641,11.8417937 42.7349655,11.8417937 C42.8517745,11.8417937 42.9168736,11.7255179 42.9168736,11.4800978 C42.9168736,11.0540596 42.838847,10.7442972 42.696183,10.5632195 C42.3586835,10.0723794 42.1643096,9.78835391 42.1125997,9.72401157 C42.1125997,9.69827463 42.1125997,9.63347271 42.1384547,9.54293385 C42.6832556,8.66512052 42.955656,7.87738647 42.9685835,7.17973169 C44.0845019,7.14112629 44.8495316,7.0634559 45.2650577,6.96050816 C45.6801221,6.88283776 45.939595,6.76656197 46.0300874,6.58594383 C46.1210414,6.4825365 46.1861405,6.31478684 46.2378504,6.08223524 C46.3024878,5.87542059 46.3546594,5.69480245 46.4063693,5.53992125 C46.4063693,5.46225086 46.3546594,5.42364546 46.2637054,5.42364546 C45.6930495,5.69480245 44.5383487,5.86255212 42.8259195,5.91448558 C42.5276641,5.91448558 42.345756,5.87542059 42.2940461,5.77201326 C42.1384547,5.63000053 42.0087182,5.55278972 41.9048367,5.52705278 C41.7492452,5.57852665 41.5544097,5.73340785 41.3212534,5.99169638 C41.0747079,6.28859031 40.9320439,6.54687884 40.8927998,6.76656197 C40.8927998,6.92144316 40.9708264,7.02485049 41.1264178,7.07632436 C41.2690818,7.12825782 41.6324362,7.16686322 42.2160196,7.16686322 C41.6712187,7.86405841 41.1264178,8.6003186 40.6074719,9.36231571 C40.555762,9.42665805 40.5294453,9.49145998 40.5165178,9.55580231 C40.438953,9.06542178 40.3738539,8.69085746 40.296289,8.43256893 C40.088526,8.0193992 39.7773431,7.81258454 39.3359621,7.79971608 C39.1803706,7.79971608 39.0118517,7.81258454 38.8433328,7.83832148 C38.8562603,7.64483488 38.8691877,7.45088869 38.8950427,7.24453362 C39.2583972,7.21879668 39.5437251,7.19260016 39.7514881,7.14112629 C40.1406976,7.07632436 40.3867814,6.97337662 40.4777354,6.81803584 C40.555762,6.7150881 40.6203994,6.57307536 40.6591818,6.36626071 C40.7113534,6.18564257 40.7630633,6.01743332 40.8023075,5.88828905 C40.8023075,5.82394672 40.7630633,5.78534131 40.6854985,5.78534131 C40.3479989,5.88828905 39.7902706,5.95309098 39.0247792,6.00456485 C39.0377067,5.90115752 39.0506341,5.78534131 39.0635616,5.68193398 C39.0635616,5.33310659 39.0118517,5.13961999 38.9079702,5.100555 C38.7006688,5.12629194 38.4670508,5.38458046 38.2205053,5.86255212 C38.1946504,5.92735404 38.1683337,5.99169638 38.1554063,6.04362984 C37.92225,6.05649831 37.6757045,6.06936678 37.429159,6.06936678 C37.1438311,6.06936678 36.9748505,6.03030178 36.9231406,5.92735404 C36.7675491,5.78534131 36.6378126,5.69480245 36.5339311,5.66906552 C36.3783397,5.73340785 36.1835041,5.88828905 35.9503478,6.14657758 C35.7038023,6.4439311 35.5611384,6.70221963 35.5218942,6.92144316 C35.5218942,7.07632436 35.5869933,7.17973169 35.7425848,7.23166515 C35.9503478,7.30887596 36.5597861,7.33461289 37.5847504,7.33461289 C37.6364603,7.33461289 37.7015594,7.33461289 37.7532693,7.32174442 C37.688632,7.58003295 37.6235329,7.85118995 37.5718229,8.135675 L37.2606401,8.25149121 L37.2606401,8.23862274 C37.2606401,8.0580046 37.1438311,7.96746574 36.936068,7.96746574" id="Fill-1" fill="#FFFFFF"></path>
                            <path d="M25.4127908,8.26491118 C25.6981187,7.3351644 25.7239737,6.45689148 25.3347643,5.81117017 C25.1791728,5.55288164 24.9718715,5.5271447 24.7899634,5.81117017 C23.1555608,8.21343731 21.1578037,11.8032802 20.6388577,13.4306817 C20.2233316,14.7216648 20.3793848,15.5742008 20.8983307,16.0907778 C21.131487,16.3233294 21.2875401,16.2199221 21.39096,15.9873705 C22.5068784,13.559826 23.6486517,11.0803481 25.1791728,9.42720956 C26.8398921,7.61918986 28.3445582,6.89625774 28.6040312,6.99920548 C29.0712672,7.20602013 26.7877205,9.94378661 25.9317367,12.4747384 C25.1791728,14.7216648 25.6981187,16.3233294 27.9036389,16.3233294 C29.408305,16.3233294 31.0431694,15.0061498 31.7435617,13.559826 C32.1069161,12.8106974 32.1586261,12.2164499 31.9771797,11.9324244 C31.8474432,11.7260694 31.6659968,11.7260694 31.5362603,11.9581614 C30.5500784,13.7661811 29.2785686,15.4707934 28.2148218,15.5227269 C27.2808114,15.5742008 27.12522,14.3604285 27.7997574,12.8621712 C28.3967298,11.5192547 29.667778,9.60782769 30.2130406,8.47172584 C30.861723,7.12834974 30.0569874,5.86310362 29.2010037,5.73395936 C28.3445582,5.6048151 26.5804191,7.025402 25.4127908,8.26491118 M15.864463,13.7661811 C15.6571616,15.2644384 16.331699,16.3233294 18.0182732,16.3233294 C19.5487943,16.3233294 21.1578037,15.0061498 21.9099059,13.559826 C22.2732604,12.8364343 22.2474054,12.1392391 22.1435239,11.9324244 C22.0396424,11.6998728 21.8064861,11.7260694 21.6767496,11.9581614 C20.6647127,13.7661811 19.3414929,15.4707934 18.2514295,15.5227269 C17.3174192,15.5742008 17.2139994,14.4895728 17.8885367,13.0170524 C18.4850475,11.6998728 19.7824123,9.76270889 20.3530681,8.6008701 C20.9758956,7.30942746 20.7685942,6.17286602 20.3793848,5.70776284 C20.1716217,5.44947431 19.9901753,5.50140777 19.7307024,5.86310362 C18.9001119,6.97346854 18.1480097,8.7557513 16.5131454,11.3901104 C15.111899,13.6370368 13.6852595,15.4450565 12.6732226,15.3673861 C12.0762501,15.3159122 11.9986852,14.3861655 12.5434861,13.1204598 C13.088287,11.8809506 13.6072329,10.8477965 14.5670982,9.32380223 C15.5011085,7.85174145 15.630845,6.68944308 15.0601891,5.8369071 C14.8528878,5.6048151 14.5934148,5.57861857 14.3856518,5.86310362 C12.6990775,8.21343731 11.3758578,10.7443891 10.805202,12.4490015 C10.2340844,14.1536139 10.286256,16.0650409 12.1284217,16.1941851 C13.5813779,16.2975925 14.9563076,14.9799533 15.864463,13.7661811 M6.91310757,2.27280117 C4.63002255,5.96605136 1.90555648,11.0284146 1.12713761,13.3015375 C0.582336731,14.9027425 0.84180969,15.729082 1.33443896,16.1422517 C1.51634704,16.2975925 1.67193848,16.2975925 1.77582,16.039304 C2.52838392,14.3084951 3.48824919,12.3713311 4.47396942,10.4603637 C5.9532423,10.0986678 7.95099941,9.71123502 9.2483642,9.73697195 C9.55954707,9.73697195 9.61171868,9.58209075 9.53369212,9.34953916 C9.30007411,8.57467358 8.65139172,8.03235959 7.35402692,8.11002998 C6.88725261,8.13576692 6.29028013,8.18724079 5.61574278,8.31638505 C6.88725261,5.99224789 8.10659084,3.90020273 9.0147462,2.42768237 C10.5974389,2.19559036 12.4137496,1.67901331 14.3597968,1.70475024 C14.6968346,1.70475024 14.7490062,1.52367252 14.6709797,1.31731745 C14.3339419,0.516714932 13.6589428,0.000137876439 12.5434861,0.000137876439 C11.0905299,0.000137876439 8.34020884,0.748806937 6.18639861,0.645859196 C5.92692565,0.645859196 5.84936078,0.748806937 5.90107069,0.955621594 C6.03080717,1.47219865 6.31613509,1.98877571 6.91310757,2.27280117" id="Fill-3" fill="#FFFFFF"></path>
                            <g id="Group-7" transform="translate(0.000000, 17.946135)">
                                <mask id="mask-6" fill="white">
                                    <use xlink:href="#path-5"></use>
                                </mask>
                                <g id="Clip-6"></g>
                                <path d="M58.3013115,3.24528965 C58.3271665,2.87072532 58.3530215,2.47042406 58.3793381,2.05725434 L58.4827579,2.05725434 C58.7422309,2.05725434 58.9887764,2.04438587 59.2223944,2.01864893 C59.1706845,2.35414827 59.1314403,2.70297566 59.0926579,3.03847499 C58.8461124,3.11614538 58.5866395,3.19381578 58.3013115,3.24528965 L58.3013115,3.24528965 Z M58.1715751,5.18245361 C58.1845025,4.88555968 58.2103575,4.56246922 58.2366742,4.22696989 C58.4827579,4.17503643 58.7293034,4.11069409 58.9887764,4.02015523 C58.9499939,4.35611415 58.9112115,4.69161349 58.8848949,5.02757241 C58.664666,5.09191475 58.431048,5.1438482 58.1715751,5.18245361 L58.1715751,5.18245361 Z M58.0159836,7.20969684 C58.0418386,6.89993444 58.0676935,6.55110705 58.0935485,6.18987078 C58.3271665,6.15080579 58.5607845,6.09933192 58.7944025,6.02166153 C58.7685475,6.35762045 58.7422309,6.68025131 58.7293034,7.01621024 C58.4956854,7.08055257 58.2625291,7.1453545 58.0159836,7.20969684 L58.0159836,7.20969684 Z M57.6009192,0.662404369 C57.4711828,0.714337827 57.3022021,0.843482091 57.1078283,1.06270563 C56.9000652,1.30812569 56.7703287,1.52780881 56.7444738,1.70842695 C56.7444738,1.83757121 56.8095729,1.91524161 56.9393094,1.96671548 C57.0168742,1.99245241 57.1595382,2.01864893 57.3931562,2.0315174 C57.1466107,3.89101097 56.9393094,5.67329373 56.7832562,7.40364303 C56.7574013,7.39077456 56.7186188,7.36503763 56.6927639,7.3388411 C56.6147373,7.27449876 56.5630274,7.23589336 56.5237833,7.23589336 C56.4979283,7.23589336 56.4332909,7.28736723 56.3552644,7.37790609 C56.2513828,7.49418189 56.1608905,7.6099981 56.0699364,7.72627389 C55.9531274,7.90735162 55.9014175,8.10083822 55.9014175,8.30765288 C55.9014175,8.5659414 56.0957914,8.69508567 56.4850008,8.69508567 C57.2375648,8.5659414 57.963812,8.38486368 58.6775935,8.15277168 C58.6517385,8.50113948 58.6388111,8.86283533 58.6388111,9.22453119 C58.3793381,9.19879426 58.1069377,9.15972926 57.8340755,9.12112386 C57.0298017,9.030585 56.2513828,8.94050573 55.472964,8.8370984 L55.4600365,7.51991882 C55.538063,7.49418189 55.6290171,7.46798537 55.7324369,7.42937996 C56.031154,7.35170957 56.2126004,7.27449876 56.2643103,7.17109144 C56.3164819,7.11961757 56.3681918,6.96427678 56.4332909,6.68025131 C56.4979283,6.44815931 56.5371724,6.29281852 56.5500999,6.21560772 C56.5500999,6.12506886 56.4850008,6.07359499 56.3811193,6.07359499 C56.2255279,6.15080579 55.9272725,6.24134465 55.4600365,6.35762045 C55.4600365,5.98305613 55.4600365,5.59562333 55.472964,5.20819054 C55.706582,5.18245361 55.9014175,5.13052015 56.0828639,5.07904628 C56.3164819,5.05330934 56.4720734,4.94990201 56.5500999,4.75641541 C56.6535197,4.47193036 56.7703287,4.21364183 56.8742103,3.9553533 C56.8742103,3.86527403 56.8354278,3.81334057 56.7574013,3.81334057 C56.3423369,3.9167479 55.914345,3.9944183 55.4992806,4.0330237 C55.5122081,3.59411704 55.5251356,3.14188232 55.5509905,2.69010719 C55.6936545,2.66437025 55.8363184,2.63817373 55.9660549,2.6124368 C56.173818,2.58669986 56.3164819,2.496161 56.3811193,2.31554286 C56.4850008,2.0701228 56.5888824,1.82470274 56.6927639,1.59215115 C56.6927639,1.51494035 56.6535197,1.46300689 56.5759549,1.46300689 C56.2513828,1.54067728 55.9272725,1.60501962 55.589773,1.63121614 C55.6160896,0.972626355 55.6419446,0.533260105 55.654872,0.300708512 C55.6027004,0.171564248 55.5122081,0.0943534427 55.3953991,0.0943534427 C55.1488536,0.197760771 54.9281631,0.546128572 54.7208617,1.14037602 C54.6557626,1.32099416 54.6040527,1.51494035 54.5518811,1.70842695 L54.5001712,1.70842695 C54.2148433,1.70842695 54.0463244,1.68269001 53.9682978,1.63121614 C53.8902712,1.54067728 53.8256339,1.47587536 53.7734622,1.45013842 C53.7217523,1.46300689 53.6571149,1.46300689 53.6049433,1.46300689 C53.1118524,1.76036041 52.8394519,2.0701228 52.7748145,2.3798852 C52.7748145,2.62530526 52.9821159,2.76731799 53.397642,2.81925145 C53.7217523,2.81925145 54.0200077,2.81925145 54.2924082,2.80638299 C54.2148433,3.21955271 54.1497442,3.67132784 54.0980343,4.14929949 L54.0721793,4.14929949 C53.7605348,4.14929949 53.5661609,4.12356256 53.4881343,4.04589217 C53.4105695,3.94248484 53.3325429,3.8781425 53.2679055,3.85240556 C53.2157339,3.8781425 53.1510965,3.8781425 53.0989249,3.8781425 C52.554124,4.20077337 52.2429411,4.53673229 52.1649146,4.88555968 C52.1649146,5.1438482 52.3856051,5.31159787 52.8523794,5.37594021 C53.2679055,5.37594021 53.6571149,5.37594021 54.0200077,5.35020327 C53.9424429,6.47389625 53.9031987,7.57139269 53.8902712,8.65602068 C53.7734622,8.65602068 53.6437258,8.64315221 53.514451,8.61741527 C53.5403059,7.79107582 53.5920158,7.08055257 53.6437258,6.48676471 C53.6437258,6.35762045 53.5790884,6.29281852 53.4752068,6.27995006 C53.3454704,6.27995006 53.1769515,6.42196279 52.9433335,6.70644784 C52.7097155,7.04194717 52.4894866,7.49418189 52.2946511,8.06223282 C52.0222506,9.06964999 51.8537317,10.154278 51.8015601,11.2908394 C51.8015601,11.4457206 51.8795867,11.5362595 52.0610331,11.5362595 L53.2028064,11.5362595 C53.3454704,11.4971945 53.4234969,11.4199837 53.4234969,11.2908394 C53.4234969,10.8772101 53.4364244,10.4511719 53.4622794,9.97365984 C58.5220021,10.9291436 61.6486051,11.510063 62.8291608,11.7297461 C62.9847523,11.7297461 63.0623172,11.6782722 63.0881721,11.6006018 C63.4385991,10.8514732 63.6205072,10.3868296 63.6463622,10.1671464 C63.6463622,9.99939677 63.5424806,9.88312098 63.3347176,9.80545058 C62.2709708,9.67630632 61.1942965,9.53429359 60.1046948,9.40514933 C60.1046948,9.17259773 60.1046948,8.9143092 60.1176223,8.65602068 C60.2085763,8.75942801 60.3119961,8.8370984 60.4158776,8.9143092 C60.5714691,9.04345347 60.6882781,9.09538693 60.7663047,9.09538693 C60.856797,9.09538693 60.947751,9.05678152 61.0257776,8.96624266 C61.233079,8.57880987 61.5054794,8.01029936 61.8559064,7.24876183 C62.0895244,7.77820735 62.3231424,8.25571942 62.5304438,8.6822172 C62.5826154,8.78516494 62.6731077,8.82422993 62.8028442,8.82422993 C63.0106072,8.77229647 63.3610342,8.57880987 63.8799802,8.22998248 C63.9446176,8.17850861 63.9834,8.11370669 63.9834,8.01029936 C63.957545,7.64906309 63.4773815,6.88706597 62.5433712,5.69903066 C63.2700802,4.0716291 63.6334347,3.01273805 63.6334347,2.50902947 C63.6334347,1.86330815 63.2830077,1.54067728 62.6084703,1.54067728 C62.4787338,1.56641422 62.3102149,1.60501962 62.1024519,1.68269001 C61.6352159,1.94097854 61.349888,2.05725434 61.2593956,2.05725434 C61.1942965,2.0315174 61.1296591,1.99245241 61.06456,1.95384701 C61.0257776,1.90237314 60.973606,1.86330815 60.8960411,1.86330815 C60.7404497,1.94097854 60.6107132,2.09585974 60.4809767,2.32841133 C60.4029502,2.50902947 60.3383128,2.69010719 60.3119961,2.88359379 C60.3119961,3.10327692 60.3900227,3.20668424 60.5585416,3.20668424 C60.7792321,3.20668424 60.973606,3.18094731 61.1425866,3.12901385 C61.4537695,2.99986959 61.7520249,2.85785686 62.0373528,2.67723872 C62.1153794,2.67723872 62.1541618,2.72871259 62.1541618,2.80638299 C62.1153794,3.02560652 61.8817614,3.59411704 61.440842,4.52386382 C61.1555141,4.31704916 60.8831137,4.16216796 60.6236407,4.08449757 C60.4417326,4.08449757 60.3641677,4.17503643 60.3641677,4.3427861 C60.5714691,4.73021889 60.7663047,5.10478321 60.973606,5.47934754 C60.7270605,5.97018766 60.4417326,6.51250165 60.1305497,7.13248603 C60.1305497,6.38335738 60.1434772,5.62136027 60.1434772,4.83362622 C60.1564047,3.9553533 60.1951871,2.97413265 60.2473587,1.91524161 C60.2861412,1.91524161 60.3249236,1.90237314 60.3770952,1.88950467 C60.7270605,1.83757121 60.9348236,1.74749194 61.0128501,1.61834767 C61.090415,1.54067728 61.1425866,1.39866455 61.181369,1.20471836 C61.233079,1.03696869 61.2852506,0.894955961 61.324033,0.765811697 C61.324033,0.714337827 61.2852506,0.675272836 61.207224,0.675272836 C60.7270605,0.856350559 59.7801227,0.959298299 58.3659489,0.985494823 C58.1198652,0.985494823 57.9772012,0.946429832 57.9250296,0.869219026 C57.7952931,0.75294323 57.6784841,0.688141304 57.6009192,0.662404369 L57.6009192,0.662404369 Z M43.0838227,9.12112386 C43.0967502,9.05678152 43.1226051,8.96624266 43.1484601,8.86283533 C43.1484601,8.84996687 43.1618493,8.8370984 43.1618493,8.81136146 C44.2385235,8.57880987 45.1596064,8.39773215 45.9250978,8.28191594 C45.8599987,8.4110602 45.7824338,8.55307294 45.7044073,8.70795414 C44.9776983,8.82422993 44.1087871,8.96624266 43.0838227,9.12112386 L43.0838227,9.12112386 Z M46.2233532,7.46798537 C45.5875983,7.57139269 44.6535879,7.72627389 43.4213222,7.95882549 C43.4471772,7.85541816 43.4859596,7.75247042 43.5247421,7.62332615 C44.6665154,7.31310417 45.4320068,7.11961757 45.8212163,7.05481564 C46.1065442,7.05481564 46.2621356,7.1453545 46.2621356,7.31310417 C46.2492081,7.36503763 46.2362807,7.4165115 46.2233532,7.46798537 L46.2233532,7.46798537 Z M41.7218205,3.20668424 C42.3054038,3.01273805 42.8243498,2.88359379 43.2915858,2.80638299 C43.3950056,2.80638299 43.4601047,2.85785686 43.4601047,2.93552725 C43.2264867,3.14188232 43.0057961,3.33582851 42.7855673,3.52931511 C42.4351403,3.38730238 42.0847133,3.28389505 41.7218205,3.20668424 L41.7218205,3.20668424 Z M43.9402682,5.7247676 C44.1217145,5.5698864 44.2902335,5.4150052 44.4458249,5.25966441 C44.6794429,5.38880868 44.9001334,5.51795294 45.1337514,5.63422874 C44.510924,5.69903066 44.1217145,5.7247676 43.9531956,5.7247676 L43.9402682,5.7247676 Z M46.4311162,6.31901505 C46.3143072,6.31901505 46.1974982,6.30568699 46.0806892,6.30568699 C45.1466789,6.37048892 44.0049055,6.59017204 42.6299759,6.96427678 C42.6036592,6.96427678 42.5907318,6.96427678 42.5648768,6.93853984 C42.7726398,6.75792171 43.0187236,6.53823858 43.2915858,6.27995006 C43.3432957,6.24134465 43.4079331,6.18987078 43.4730321,6.12506886 C43.4471772,6.16367426 43.4342497,6.20273925 43.4213222,6.24134465 C43.4213222,6.43483125 43.5118146,6.52537012 43.7195776,6.52537012 C44.601878,6.46102778 45.3151978,6.31901505 45.8470712,6.08646345 C45.8599987,6.07359499 45.8729262,6.06072652 45.8858536,6.03453 C46.0677617,6.13793732 46.2492081,6.22847619 46.4311162,6.31901505 L46.4311162,6.31901505 Z M42.9411588,0.0557480399 C42.7597124,0.0814849751 42.5778043,0.158695781 42.4222128,0.314036568 C42.2015223,0.546128572 42.0459309,0.8044171 41.9420494,1.08844256 C41.851557,1.46300689 41.7993854,1.82470274 41.7993854,2.17353013 C41.7218205,2.19926707 41.643794,2.21213554 41.5528399,2.225004 C41.643794,2.05725434 41.6955039,1.94097854 41.6955039,1.88950467 C41.6696489,1.76036041 41.526985,1.69555848 41.293367,1.69555848 C41.008039,1.79896581 40.6710012,1.96671548 40.2817918,2.225004 C39.6589643,2.66437025 39.2826824,2.98700112 39.1658734,3.16761925 C39.1400184,3.21955271 39.1400184,3.30963199 39.1400184,3.41303931 C39.3736364,3.82620904 39.6331094,4.11069409 39.9313648,4.29131223 C39.9960022,4.32991763 40.0740287,4.3427861 40.1779103,4.3427861 C40.2037652,4.32991763 40.2817918,4.21364183 40.4115283,3.9944183 C40.4632382,3.90387943 40.5412647,3.78760364 40.6317571,3.65845937 C40.9692566,3.94248484 41.3455386,4.21364183 41.760603,4.47193036 C41.4360309,4.76928388 41.124848,5.06617781 40.8395201,5.35020327 C40.8395201,5.531281 40.8783026,5.63422874 40.9692566,5.68616219 C41.0731381,5.77624147 41.2028746,5.86678033 41.3326111,5.95731919 C40.3593566,6.64164591 39.7499184,7.15822297 39.5163004,7.50705036 C39.4904454,7.55852423 39.4904454,7.64906309 39.4904454,7.76533888 C39.7236017,8.19137708 39.9960022,8.48827101 40.3076467,8.66934873 C40.3722841,8.70795414 40.4503107,8.7208226 40.5541922,8.7208226 C40.657612,8.69508567 40.917085,8.46253407 41.3326111,8.04936435 C41.4882025,7.90735162 41.6825764,7.73914236 41.8903394,7.54565576 C41.851557,7.64906309 41.8381678,7.72627389 41.8381678,7.77820735 C41.8381678,7.90735162 41.9032669,7.97169395 42.0588584,7.99743089 C41.410176,9.27600506 41.0860656,10.1156726 41.0860656,10.5031054 C41.1377755,11.2517744 41.5399124,11.6392072 42.2666214,11.6392072 C42.8502047,11.6392072 43.3820781,11.5362595 43.8751691,11.3294448 C44.2643785,11.1745636 44.4979965,10.9934859 44.5626339,10.8128678 C44.6148055,10.5545792 44.6665154,10.3220276 44.7316145,10.0766076 C44.7316145,10.0508706 44.7052979,10.0251337 44.6665154,10.0251337 C44.1992794,10.2057518 43.6544785,10.3739611 43.0450403,10.5417108 C42.9153038,10.5417108 42.8502047,10.4897773 42.8502047,10.360633 C42.8502047,10.2962907 42.8631322,10.1928834 42.8889871,10.0380022 C43.4859596,9.92172638 44.043688,9.81831905 44.5884889,9.71537131 C45.2113163,10.0380022 45.8082888,10.3477646 46.3789446,10.6322496 C46.794009,10.8386047 47.2090734,11.0582878 47.637527,11.2779709 C48.1952553,11.5619964 48.5844648,11.755483 48.8051553,11.8588903 C48.8439377,11.8974957 48.8956476,11.9232327 48.9478192,11.9494292 C49.0124566,11.9494292 49.0775557,11.9103642 49.1421931,11.8588903 C49.2977845,11.7297461 49.4667652,11.6006018 49.6223566,11.4457206 C49.8559746,11.213169 50.011566,11.0196824 50.1020584,10.8643416 C50.1020584,10.7999993 50.0762034,10.7480658 50.037421,10.7223289 C49.6740665,10.5931846 49.2977845,10.4769088 48.9215026,10.360633 C48.8051553,10.3348961 48.6883463,10.2962907 48.5586098,10.2448168 C48.7659112,9.94746332 48.9215026,9.71537131 49.0383116,9.53429359 C49.2072922,9.301742 49.2977845,9.15972926 49.2977845,9.10825539 C49.2977845,9.08251846 49.2848571,9.030585 49.2719296,8.96624266 C49.2202197,8.9143092 49.1551206,8.8757038 49.0512391,8.8757038 C48.9478192,8.8757038 48.6754188,8.9919796 48.2340378,9.19879426 C47.8706833,9.40514933 47.5724279,9.62483245 47.3388099,9.84451558 C46.910818,9.70204326 46.534536,9.57289899 46.2233532,9.45708278 C46.6901275,9.39228086 47.1315085,9.34080699 47.5336454,9.301742 C47.6504544,9.301742 47.7150918,9.25026813 47.7150918,9.13399233 L47.8448283,8.57880987 C47.8448283,8.50113948 47.7801909,8.46253407 47.6763094,8.46253407 C47.6245995,8.47540254 47.5595004,8.47540254 47.4819355,8.47540254 C47.6245995,8.03649588 47.7150918,7.62332615 47.7672634,7.23589336 C47.754336,7.1453545 47.7280193,7.05481564 47.6892369,6.96427678 C47.7931184,7.01621024 47.8969999,7.06768411 48.0138089,7.11961757 C48.8956476,7.57139269 49.3887386,7.81681276 49.5184751,7.85541816 C49.5835742,7.86828663 49.6352841,7.86828663 49.686994,7.86828663 C49.7650206,7.86828663 49.894757,7.76533888 50.0503485,7.54565576 C50.1800849,7.4165115 50.296894,7.2616303 50.413703,7.08055257 C50.5822219,6.88706597 50.6731759,6.75792171 50.6731759,6.69311978 C50.6731759,6.60304051 50.6080768,6.51250165 50.504657,6.43483125 C49.427521,6.06072652 48.3637742,5.65996567 47.3129549,5.24679594 C47.4426914,5.13052015 47.6245995,4.96277048 47.8319008,4.74308736 C48.3508468,5.06617781 48.9736742,5.4150052 49.686994,5.78910994 C49.777948,5.78910994 49.8818296,5.763373 49.9857111,5.68616219 C50.271039,5.2987294 50.4912678,4.92416508 50.647321,4.54960075 C50.647321,4.44619343 50.6210043,4.36898262 50.5692944,4.29131223 C50.413703,4.16216796 49.8559746,3.9167479 48.8956476,3.58124857 C49.7520931,2.63817373 50.1930124,2.01864893 50.1930124,1.73416388 C50.1930124,1.17898142 49.8296579,0.894955961 49.1292656,0.894955961 C48.8827202,0.907824429 48.5327548,0.959298299 48.0655188,1.03696869 C47.0927261,1.28238875 46.5216086,1.39866455 46.3401622,1.39866455 C46.2750631,1.37292761 46.2233532,1.34673109 46.1716433,1.30812569 C46.1323991,1.25665182 46.0806892,1.23091488 46.0155901,1.23091488 C45.8858536,1.30812569 45.7690446,1.43726995 45.6656248,1.63121614 C45.5875983,1.78609734 45.5358883,1.95384701 45.5095717,2.10872821 C45.5095717,2.28980593 45.5746708,2.3798852 45.7173347,2.3798852 C45.9121703,2.3798852 46.0806892,2.36701673 46.2233532,2.31554286 C47.053482,2.1863986 47.8319008,2.04438587 48.5586098,1.8766362 C48.6361747,1.8766362 48.6754188,1.91524161 48.6754188,1.97958394 C48.6232472,2.10872821 48.2211103,2.4575556 47.4819355,3.05180305 C46.8069365,2.81925145 46.2492081,2.66437025 45.8341437,2.58669986 C45.6393082,2.58669986 45.5229609,2.6510422 45.4707893,2.78018646 C45.4707893,2.90933073 45.4966442,2.98700112 45.5746708,3.03847499 C45.7824338,3.28389505 46.0936167,3.55505205 46.4957536,3.8395371 C46.3143072,3.98154983 46.1065442,4.13643103 45.8858536,4.30418069 C45.8470712,4.32991763 45.8212163,4.36898262 45.8082888,4.39471956 C45.8082888,4.44619343 45.8341437,4.49812688 45.8858536,4.53673229 C45.9380253,4.61394309 46.0155901,4.69161349 46.0936167,4.76928388 C45.8212163,4.66587655 45.5617433,4.56246922 45.3022703,4.44619343 C45.5095717,4.22696989 45.6134532,4.0716291 45.6134532,3.98154983 C45.5746708,3.86527403 45.4449343,3.80047211 45.2242438,3.80047211 C44.7574695,3.9553533 44.2255961,4.17503643 43.6544785,4.48479883 C43.9139515,4.12356256 44.134642,3.80047211 44.3290159,3.51644664 C44.7833244,2.89646226 45.0169424,2.53522599 45.0169424,2.40608173 C45.0169424,2.05725434 44.601878,1.8766362 43.784215,1.8766362 C43.5376695,1.90237314 43.2781966,1.92811007 42.9928687,1.96671548 L42.9928687,1.70842695 C43.1484601,1.72129542 43.3562231,1.72129542 43.5898412,1.72129542 C44.134642,1.69555848 44.5238515,1.64408461 44.7316145,1.57928268 C44.9389159,1.54067728 45.0557249,1.46300689 45.1074348,1.34673109 C45.1725339,1.26952029 45.2242438,1.15324449 45.2500987,0.985494823 C45.3022703,0.843482091 45.3410528,0.714337827 45.3669077,0.598062031 C45.3669077,0.546128572 45.3281253,0.520391637 45.2634879,0.520391637 C44.9518433,0.675272836 44.3290159,0.765811697 43.3950056,0.791548633 C43.2264867,0.791548633 43.1226051,0.765811697 43.0967502,0.688141304 C43.0967502,0.688141304 43.0838227,0.688141304 43.0838227,0.675272836 C43.1096777,0.443180832 43.1355326,0.300708512 43.1484601,0.223497707 C43.1096777,0.120090378 43.0450403,0.0557480399 42.9411588,0.0557480399 L42.9411588,0.0557480399 Z M28.6318253,5.25966441 C28.5279438,5.27299247 28.4369897,5.28586094 28.3464974,5.28586094 C28.2038334,5.28586094 28.1387343,5.19532207 28.1387343,5.00137588 C28.1516618,4.80788928 28.1775168,4.60107462 28.2167609,4.38185109 C28.3982073,4.36898262 28.5667262,4.3427861 28.7486343,4.31704916 C28.7093901,4.61394309 28.6706077,4.92416508 28.6318253,5.25966441 L28.6318253,5.25966441 Z M29.0598172,2.21213554 C29.0081072,2.50902947 28.9688631,2.81925145 28.9171532,3.14188232 C28.8520541,3.15475079 28.7874167,3.15475079 28.7223176,3.15475079 C28.6188978,3.15475079 28.5408712,3.15475079 28.4633064,3.12901385 C28.5150163,2.90933073 28.5667262,2.67723872 28.6447528,2.41895019 C28.7874167,2.3412798 28.9300807,2.27693746 29.0598172,2.21213554 L29.0598172,2.21213554 Z M30.5778725,2.81925145 C30.4218193,2.87072532 30.2662279,2.90933073 30.1106365,2.93552725 C30.1235639,2.58669986 30.1364914,2.23787247 30.1494189,1.8766362 C30.4352085,1.92811007 30.5778725,2.0701228 30.5778725,2.3026744 L30.5778725,2.81925145 Z M30.5257009,4.88555968 C30.3701094,4.93703355 30.2015905,4.98850742 30.0459991,5.01470394 C30.0459991,4.67874502 30.0589266,4.3427861 30.071854,3.9944183 C30.097709,3.9944183 30.1235639,3.9944183 30.1623464,3.96868136 C30.2791554,3.94248484 30.4088919,3.89101097 30.564945,3.82620904 C30.5515558,4.1879049 30.5386283,4.53673229 30.5257009,4.88555968 L30.5257009,4.88555968 Z M35.1962141,5.85391186 C35.5332519,5.78910994 35.8190416,5.73763606 36.0392704,5.71189913 C36.1690069,5.71189913 36.2470334,5.75050453 36.2470334,5.81530646 C35.7927249,6.43483125 35.4944695,6.8355921 35.3518056,7.04194717 C35.3000956,6.65451438 35.247924,6.26708159 35.1962141,5.85391186 L35.1962141,5.85391186 Z M28.6576802,0.843482091 C28.1387343,1.06270563 27.5680785,1.69555848 26.945251,2.74158106 C26.4521601,3.68419631 26.2185421,4.60107462 26.2185421,5.492216 C26.3224236,6.09933192 26.8413695,6.39622585 27.7624524,6.39622585 C27.9960704,6.39622585 28.2426158,6.37048892 28.5020888,6.34475198 C28.4633064,6.65451438 28.4240622,6.97760483 28.3852798,7.31310417 L28.1904442,7.31310417 C27.8663339,7.31310417 27.6714983,7.27449876 27.6068609,7.17109144 C27.4512695,7.0290787 27.321533,6.95140831 27.2176515,6.92567138 C27.06206,6.97760483 26.854297,7.1453545 26.6077515,7.40364303 C26.361206,7.71340543 26.2185421,7.97169395 26.1797596,8.19137708 C26.1797596,8.34625828 26.2577862,8.46253407 26.4133776,8.51400795 C26.620679,8.59167834 27.230579,8.61741527 28.2555433,8.61741527 C28.2167609,8.9919796 28.1775168,9.37941239 28.1387343,9.77971365 C28.0089978,9.79258212 27.8921888,9.80545058 27.7753798,9.80545058 C27.5680785,9.80545058 27.3990979,9.77971365 27.2693614,9.71537131 C27.1530141,9.62483245 27.0362051,9.54716206 26.9193961,9.48281972 C26.7638047,9.52142512 26.5431141,9.72823978 26.2836412,10.089476 C26.1021948,10.4383034 26.0241682,10.696592 26.0241682,10.9034066 C26.0241682,11.1354986 26.2836412,11.2517744 26.8155146,11.2517744 C28.2943258,11.1354986 29.4102442,10.9548805 30.1757356,10.696592 C30.7076089,10.5674477 31.2131657,10.3739611 31.6804017,10.1028041 C32.0308287,9.89598945 32.2122751,9.56003052 32.2122751,9.09538693 C32.2122751,9.01771653 32.1605652,8.97911113 32.0566837,8.97911113 C31.3950738,9.21166272 30.6946815,9.39228086 29.9421176,9.52142512 L29.9162626,9.52142512 C29.9162626,9.19879426 29.9291901,8.86283533 29.9421176,8.52687641 C30.2920829,8.50113948 30.5778725,8.47540254 30.7851738,8.42392867 C31.2394823,8.35912675 31.5248103,8.24285095 31.6286918,8.08796975 C31.7062567,7.98456242 31.7713557,7.82968122 31.8101382,7.59712963 C31.8881647,7.40364303 31.9398747,7.23589336 31.9786571,7.09342104 C31.9786571,7.01621024 31.9269472,6.97760483 31.8359931,6.97760483 C31.4597112,7.1067491 30.8373454,7.19682837 29.9679725,7.24876183 C29.9809,6.86132904 29.9938275,6.48676471 30.0067549,6.09933192 C30.1623464,6.07359499 30.3183995,6.03453 30.4739909,5.98305613 C30.4610635,6.03453 30.4610635,6.07359499 30.4610635,6.11220039 C30.4610635,6.29281852 30.564945,6.38335738 30.7851738,6.38335738 L31.6023751,6.35762045 C31.6286918,6.51250165 31.7713557,6.59017204 32.0437562,6.59017204 C32.1347102,6.59017204 32.380794,6.53823858 32.7963201,6.40909432 C33.0687205,6.33188351 33.3669759,6.24134465 33.7040138,6.16367426 C33.7691128,8.12657515 33.8337502,9.89598945 33.9117768,11.4457206 C33.9117768,11.6649441 34.0027308,11.7812199 34.2100322,11.7812199 L35.6629884,11.7812199 C35.8190416,11.7812199 35.9095339,11.6911407 35.9095339,11.5229314 C35.741015,10.1671464 35.5595686,8.74655954 35.3776605,7.27449876 C35.5595686,7.42937996 35.9224614,7.72627389 36.4935789,8.13944362 C36.5582163,8.17850861 36.6362429,8.19137708 36.7138077,8.19137708 C37.5702532,6.95140831 38.0111725,6.09933192 38.0111725,5.6084918 C38.0111725,5.01470394 37.6741347,4.66587655 36.9995974,4.57533769 C36.7918343,4.57533769 36.4026249,4.62727115 35.8056524,4.70448195 C35.7022326,4.57533769 35.5332519,4.38185109 35.2871682,4.14929949 C36.6750253,2.88359379 37.3888068,2.05725434 37.4275892,1.69555848 C37.4017343,1.36005915 37.2849253,1.11463909 37.0771622,0.959298299 C36.8176893,0.8044171 36.5194339,0.727206295 36.1690069,0.727206295 C35.6893051,0.765811697 35.2349966,0.830154035 34.8070047,0.933561364 C34.0156583,1.10177062 33.5096399,1.17898142 33.2889494,1.17898142 C33.1592129,1.17898142 33.081648,1.15324449 33.0294764,1.10177062 C32.9777665,1.01123176 32.9126674,0.959298299 32.8351025,0.933561364 C32.6273395,1.03696869 32.4458931,1.21758683 32.3032291,1.48920341 C32.1993476,1.70842695 32.1476377,1.90237314 32.1476377,2.08299127 C32.1476377,2.26360941 32.3161566,2.3412798 32.6795111,2.3412798 C33.2760219,2.32841133 34.1324673,2.21213554 35.247924,1.97958394 C35.3130231,1.97958394 35.3518056,2.00578047 35.3776605,2.05725434 C35.1962141,2.21213554 34.8070047,2.6124368 34.1841772,3.27102658 C33.9634867,3.14188232 33.7432579,3.06467151 33.5225674,3.01273805 C33.3281935,3.01273805 33.2372394,3.11614538 33.2372394,3.29676352 C33.45793,3.7618667 33.6652313,4.1879049 33.8600669,4.58820616 C33.9117768,4.74308736 33.9768759,4.88555968 34.0415133,5.02757241 C33.4837849,5.13052015 33.1721404,5.18245361 33.107503,5.18245361 C32.9519115,5.16958514 32.8609575,5.11765168 32.8092476,5.02757241 C32.731221,4.92416508 32.6665836,4.84649468 32.6014845,4.80788928 C32.4846755,4.85936315 32.3549391,4.93703355 32.2252026,5.06617781 C32.1734927,3.02560652 31.9528021,1.77322887 31.5377377,1.30812569 C31.2002382,1.02410023 30.6946815,0.882087494 29.9938275,0.882087494 C29.6697171,0.933561364 29.3451451,1.01123176 29.0210347,1.11463909 C29.0081072,0.933561364 28.8912982,0.843482091 28.6576802,0.843482091 L28.6576802,0.843482091 Z M16.9560038,0.223497707 C16.3982755,0.520391637 15.7362039,1.08844256 14.9711742,1.92811007 C13.7513743,3.30963199 13.0121995,4.29131223 12.7785815,4.88555968 C12.7527266,4.94990201 12.7527266,5.04044087 12.7527266,5.16958514 C13.0121995,5.6470972 13.3233824,5.98305613 13.6608819,6.18987078 C13.7384468,6.24134465 13.8294008,6.25421312 13.9462098,6.25421312 C13.9849923,6.22847619 14.0759463,6.08646345 14.2315378,5.82817493 C13.9720648,7.3388411 13.8035459,9.22453119 13.7125918,11.4714575 C13.7384468,11.6263387 13.8294008,11.7040091 13.9979198,11.7297461 L15.0879832,11.7297461 C15.3991661,11.7297461 15.5547575,11.6520757 15.5547575,11.5229314 C15.5547575,9.79258212 15.6069291,7.85541816 15.7232764,5.71189913 C15.801303,4.60107462 15.8793296,3.67132784 15.9439669,2.94839572 C16.8521223,1.50207188 17.3059691,0.649535901 17.3059691,0.391247373 C17.2801142,0.287840044 17.1633052,0.223497707 16.9560038,0.223497707 L16.9560038,0.223497707 Z M22.7678287,2.70297566 C22.5605274,2.75444953 22.3527644,2.79351452 22.1450013,2.83211992 C22.1579288,2.39275367 22.1842454,1.92811007 22.2101004,1.42440148 C22.2876653,1.38579608 22.3527644,1.36005915 22.4307909,1.33386262 C22.6122373,1.34673109 22.7161188,1.39866455 22.7419738,1.47587536 C22.7419738,1.88950467 22.7549013,2.28980593 22.7678287,2.70297566 L22.7678287,2.70297566 Z M22.8066112,5.02757241 C22.6122373,5.11765168 22.4307909,5.18245361 22.2488828,5.20819054 C22.1320738,5.20819054 22.0803639,5.1438482 22.0803639,4.98850742 C22.0803639,4.65300808 22.0932914,4.26557529 22.1062189,3.8395371 C22.1450013,3.8395371 22.1971729,3.82620904 22.2618103,3.80047211 C22.4566459,3.77473517 22.6251648,3.73612977 22.7807562,3.69706478 C22.7807562,4.13643103 22.7936837,4.58820616 22.8066112,5.02757241 L22.8066112,5.02757241 Z M21.9635549,0.365510438 C21.652372,0.598062031 21.3148725,1.28238875 20.951518,2.40608173 C20.6661901,3.42590778 20.5235262,4.40758802 20.5235262,5.36307174 C20.6015527,5.84104339 21.0295446,6.07359499 21.7821085,6.07359499 C22.1191464,6.04739846 22.4566459,5.97018766 22.8195387,5.82817493 C22.8587828,7.63619462 22.9104927,9.41801779 22.9755918,11.2003006 C23.0273017,11.4199837 23.1570382,11.5362595 23.3648012,11.5362595 C23.844503,11.5362595 24.2858841,11.510063 24.688021,11.484326 C24.8436124,11.484326 24.9345665,11.3551818 24.9733489,11.1226302 L24.1432201,1.82470274 C24.0910485,0.99836329 23.8057206,0.533260105 23.2867747,0.429852776 C22.9492751,0.429852776 22.6122373,0.494654702 22.2618103,0.598062031 C22.2618103,0.443180832 22.1579288,0.365510438 21.9635549,0.365510438 L21.9635549,0.365510438 Z M18.2533686,3.01273805 C18.2533686,2.70297566 18.2662961,2.39275367 18.2921511,2.09585974 C18.4999141,1.88950467 18.668433,1.76036041 18.8240245,1.70842695 C18.9925434,1.70842695 19.0834974,1.78609734 19.0834974,1.92811007 C19.0576425,2.26360941 19.0317875,2.58669986 19.0054708,2.87072532 C18.7723145,2.92265878 18.5128416,2.97413265 18.2533686,3.01273805 L18.2533686,3.01273805 Z M18.1624146,5.28586094 C18.1624146,5.13052015 18.1624146,4.94990201 18.1753421,4.76928388 C18.1753421,4.56246922 18.1882695,4.3427861 18.201197,4.11069409 C18.2533686,4.11069409 18.318006,4.09782562 18.3831051,4.0716291 C18.5645515,4.04589217 18.7459979,4.00728676 18.902051,3.96868136 C18.8628069,4.38185109 18.8240245,4.71735042 18.785242,4.97563895 C18.785242,5.15671667 18.6296506,5.24679594 18.318006,5.24679594 C18.2662961,5.27299247 18.2141245,5.28586094 18.1624146,5.28586094 L18.1624146,5.28586094 Z M18.1494871,0.429852776 C17.8900141,0.456049299 17.6176137,0.765811697 17.3193583,1.34673109 C16.6706759,3.18094731 16.268539,6.47389625 16.1254133,11.2260375 C16.15173,11.3809187 16.2551498,11.4714575 16.411203,11.4971945 L17.5788313,11.4971945 C17.9029416,11.4971945 18.0714605,11.4199837 18.0714605,11.2779709 C18.0714605,9.84451558 18.084388,8.28191594 18.1365596,6.57730357 C18.927906,6.26708159 19.3817528,6.06072652 19.4985618,5.95731919 C19.9657978,5.77624147 20.2381982,5.42787367 20.3157631,4.92416508 L20.3157631,2.496161 C20.3157631,1.36005915 19.9916528,0.791548633 19.3558978,0.791548633 C19.0317875,0.791548633 18.694288,0.856350559 18.343861,0.959298299 C18.318006,0.649535901 18.2533686,0.468917767 18.1494871,0.429852776 L18.1494871,0.429852776 Z M8.17316736,0.714337827 C7.99125927,0.714337827 7.90076692,0.8044171 7.90076692,0.985494823 C8.12099575,1.34673109 8.32875879,1.66982154 8.52359436,1.97958394 C8.69211327,2.28980593 8.84770471,2.56096292 8.99036867,2.79351452 C9.04207858,2.89646226 9.13303263,2.94839572 9.2627691,2.94839572 C9.48345963,2.89646226 9.85974159,2.69010719 10.4045425,2.31554286 C10.4691799,2.26360941 10.508424,2.19926707 10.508424,2.09585974 C10.4821073,1.95384701 10.0799704,1.64408461 9.30155154,1.15324449 C8.9123421,0.920692897 8.53652184,0.765811697 8.17316736,0.714337827 L8.17316736,0.714337827 Z M6.1490936,0.0814849751 C6.01935712,0.120090378 5.92886477,0.223497707 5.87669316,0.391247373 C5.87669316,0.55899704 5.87669316,0.740074762 5.90300981,0.920692897 C6.08445621,1.8766362 6.33100169,2.84498839 6.6163296,3.80047211 C5.82498325,3.90387943 5.04656437,3.96868136 4.26814549,3.9944183 C4.34617206,3.27102658 4.43666441,2.66437025 4.51469098,2.16066167 C4.80001889,2.05725434 5.08534681,1.88950467 5.34481977,1.68269001 C5.57843777,1.48920341 5.69524677,1.17898142 5.69524677,0.75294323 C5.69524677,0.649535901 5.6172202,0.585193563 5.48748372,0.585193563 C5.12459094,0.75294323 4.7353815,0.882087494 4.31985541,0.985494823 C3.89186353,1.11463909 3.48972662,1.17898142 3.12637214,1.19184989 C2.91907079,1.19184989 2.7371627,1.16611296 2.60742622,1.08844256 C2.47768974,0.985494823 2.34795326,0.907824429 2.23160595,0.843482091 C2.06262534,0.894955961 1.82900734,1.11463909 1.54367943,1.50207188 C1.36223303,1.8766362 1.27127899,2.16066167 1.27127899,2.35414827 C1.27127899,2.6124368 1.54367943,2.72871259 2.11479695,2.72871259 C2.58157126,2.67723872 3.00956314,2.6124368 3.37291762,2.53522599 C3.15268879,2.94839572 2.95785322,3.4521043 2.77640683,4.04589217 L2.60742622,4.04589217 C2.2052893,4.04589217 1.94581634,4.00728676 1.82900734,3.9167479 C1.72558752,3.78760364 1.62170599,3.69706478 1.54367943,3.65845937 C1.46611456,3.68419631 1.38808799,3.68419631 1.31052312,3.68419631 C0.596741636,4.12356256 0.194604719,4.56246922 0.0907231965,5.02757241 C0.0907231965,5.37594021 0.38897859,5.59562333 0.998878552,5.67329373 C1.46611456,5.67329373 1.93288887,5.67329373 2.37426991,5.65996567 C2.27038839,6.17654273 2.16650687,6.74505324 2.0884803,7.36503763 C1.59585104,7.48085383 1.31052312,7.53278729 1.21956908,7.53278729 C1.15446999,7.51991882 1.0898326,7.50705036 1.03766099,7.48085383 C0.985951074,7.48085383 0.960096117,7.46798537 0.947168639,7.44224843 C0.817432159,7.46798537 0.68769568,7.55852423 0.557959201,7.68766849 C0.454077678,7.81681276 0.350196155,7.93308855 0.272631285,8.04936435 C0.116578153,8.35912675 0.0260858046,8.63028374 0.000230847828,8.86283533 C0.000230847828,9.1468608 0.155822284,9.28887353 0.492860113,9.28887353 C0.726478115,9.28887353 1.19371412,9.17259773 1.90703391,8.96624266 C1.82900734,9.71537131 1.77729743,10.5288423 1.73851499,11.4066556 C1.77729743,11.5877333 1.88117895,11.6782722 2.06262534,11.7040091 L3.30828023,11.7040091 C3.65824553,11.7040091 3.84015362,11.6134703 3.84015362,11.4585891 C3.84015362,10.5031054 3.86600858,9.46995125 3.91771849,8.35912675 C3.95696262,8.34625828 4.00867254,8.33338981 4.06038245,8.30765288 C4.99485446,8.07510128 5.46162877,7.80394429 5.48748372,7.49418189 C5.56551029,7.28736723 5.68231929,6.95140831 5.83791073,6.49963318 C5.83791073,6.44815931 5.79912829,6.42196279 5.72110173,6.42196279 C5.33189229,6.55110705 4.74830898,6.70644784 3.99574506,6.89993444 C4.02160001,6.48676471 4.04745497,6.04739846 4.0866991,5.59562333 C5.22801076,5.54414946 6.24004764,5.4536106 7.12234804,5.32446634 C7.32964939,5.9182542 7.55033992,6.51250165 7.80981287,7.1067491 C6.16248277,8.24285095 5.17630085,9.05678152 4.8521905,9.54716206 C4.82587385,9.61196398 4.82587385,9.71537131 4.82587385,9.85738404 C5.11120176,10.3868296 5.44870129,10.7613939 5.83791073,10.9934859 C5.91593729,11.0325509 6.01935712,11.0582878 6.1490936,11.0582878 C6.25297512,11.0063544 6.51244808,10.7613939 6.92751248,10.3091592 C7.32964939,9.92172638 7.86152279,9.39228086 8.53652184,8.7208226 C8.97744119,9.67630632 9.48345963,10.6322496 10.0541155,11.5877333 C10.157997,11.6649441 10.274806,11.7168776 10.4045425,11.7168776 C11.2605262,11.2779709 11.7406897,11.0063544 11.8187163,10.9034066 C11.9484527,10.8257362 12.0260176,10.7351974 12.0260176,10.6060531 C11.3126978,9.49568819 10.6510879,8.37199521 10.0282605,7.24876183 C10.8066794,6.47389625 11.1958888,5.99592459 11.1958888,5.82817493 C11.1571064,5.67329373 11.0010533,5.59562333 10.7157253,5.59562333 C10.3265159,5.7247676 9.88559655,5.90538573 9.41836054,6.15080579 C9.21105919,5.78910994 9.01622362,5.42787367 8.83477723,5.06617781 C9.5610245,4.93703355 10.1838519,4.79502081 10.7157253,4.62727115 C11.0273699,4.60107462 11.2217438,4.45906189 11.3126978,4.20077337 C11.4553618,3.8395371 11.5980257,3.50357818 11.7536172,3.16761925 C11.7536172,3.03847499 11.6889798,2.97413265 11.5850983,2.97413265 C10.4433249,3.25815811 9.27569658,3.46497277 8.10806827,3.61985397 C7.66714892,2.70297566 7.25208452,1.78609734 6.86287508,0.869219026 C6.66803952,0.352641971 6.43488321,0.0814849751 6.1490936,0.0814849751 L6.1490936,0.0814849751 Z" id="Fill-5" fill="#000000" mask="url(#mask-6)"></path>
                            </g>
                        </g>
                        <g id="Page-1" transform="translate(0.000000, 9.651351)">
                            <path d="M100.173418,10.6960487 C99.3789983,12.8497292 96.2764035,16.9435403 94.5448298,18.4546105 C96.5971112,17.2963076 100.104531,13.5165822 100.173418,10.6960487" id="Fill-1" fill="#9F5F2E"></path>
                            <path d="M100.385482,12.157546 C101.098087,12.67003 102.715262,13.1113901 104.665894,10.3388072 C101.332376,9.81170632 100.518299,11.2858776 100.385482,12.157546" id="Fill-3" fill="#58898A"></path>
                            <path d="M98.8392495,14.7730503 C99.3315562,15.5022928 100.696733,16.4802013 103.480391,14.5595005 C100.53452,12.9026175 99.2635542,14.0019179 98.8392495,14.7730503" id="Fill-5" fill="#6CC5BA"></path>
                            <path d="M100.426974,10.2943682 C101.251145,9.99596882 102.531497,8.90772023 101.377232,5.7149896 C99.0502862,8.17526921 99.7908713,9.68865668 100.426974,10.2943682" id="Fill-7" fill="#6CC5BA"></path>
                            <path d="M96.617016,15.6165722 C95.7545938,15.4630944 94.3091955,14.6096081 94.9084638,11.2658952 C97.616682,13.2923014 97.141907,14.9108595 96.617016,15.6165722" id="Fill-9" fill="#58898A"></path>
                            <path d="M111.676466,14.8522313 C103.502403,21.4291388 97.008028,19.7323266 94.5289626,18.3665345 C94.6911759,19.1708224 99.5798878,20.6246726 103.762547,19.5120031 C106.166704,18.8727796 111.175836,16.1212308 111.676466,14.8522313" id="Fill-11" fill="#9F5F2E"></path>
                            <path d="M111.093189,16.3500571 C111.5244,17.2210125 112.872576,18.4942901 116.198834,16.8103123 C113.222504,14.5584131 111.670675,15.5701902 111.093189,16.3500571" id="Fill-13" fill="#6CC5BA"></path>
                            <path d="M109.113921,15.4464454 C110.056564,15.231113 111.604143,14.21381 110.768107,10.5604677 C107.890238,12.9387499 108.49836,14.6965253 109.113921,15.4464454" id="Fill-15" fill="#6CC5BA"></path>
                            <path d="M105.572164,17.7020344 C106.525964,17.5441002 108.131273,16.6216291 107.51341,12.9242577 C104.499537,15.1249976 105.002292,16.9159286 105.572164,17.7020344" id="Fill-17" fill="#58898A"></path>
                            <path d="M103.738516,20.4013544 C103.78633,21.3733805 104.514342,23.0840966 108.231966,22.8849855 C106.402285,19.6200614 104.577917,19.9200651 103.738516,20.4013544" id="Fill-19" fill="#6CC5BA"></path>
                            <path d="M98.9900406,20.6146369 C98.799316,21.5690157 99.0883249,23.4073626 102.740957,24.1332182 C101.762896,20.5157052 99.9211732,20.3559884 98.9900406,20.6146369" id="Fill-21" fill="#58898A"></path>
                            <path d="M94.6317803,19.4802915 C94.2691026,20.3824415 94.2161531,22.2430703 97.6723941,23.6357789 C97.3752392,19.8991914 95.5944348,19.399007 94.6317803,19.4802915" id="Fill-23" fill="#6CC5BA"></path>
                            <path d="M109.104429,8.62805549 C103.954511,17.7998253 97.3004015,18.6636505 94.4940761,18.3269262 C94.9424648,19.0123178 100.016766,18.5255026 103.486466,15.9233318 C105.480131,14.4272351 109.109919,9.99349107 109.104429,8.62805549" id="Fill-25" fill="#9F5F2E"></path>
                            <path d="M108.347056,5.39377356 C108.047953,6.91322171 103.957203,8.83998321 102.910963,6.50002593 C102.579098,5.75812738 103.469855,5.39145624 103.633485,4.75740215 C103.821199,4.03029879 103.098145,3.19695528 104.230982,2.55862306 C105.656369,1.75558294 108.595865,4.1315478 108.347056,5.39377356" id="Fill-27" fill="#EE848B"></path>
                            <path d="M108.215798,5.40224068 C107.973363,6.63309351 104.658793,8.19460991 103.810715,6.29815181 C103.541894,5.6972532 104.263531,5.40027987 104.395993,4.88601334 C104.54829,4.2972361 103.962303,3.62164852 104.880331,3.10417339 C106.035481,2.45354156 108.417325,4.37905528 108.215798,5.40224068" id="Fill-29" fill="#D95B63"></path>
                            <path d="M109.545079,5.41560983 C110.40697,5.58673492 113.728623,8.65539985 111.569026,10.225829 C110.912027,10.7037315 110.357562,9.98072799 109.609539,9.89605672 C108.751721,9.79872933 108.104285,11.2240587 106.79737,9.79676852 C105.357638,8.22384378 108.094722,5.12790578 109.545079,5.41560983" id="Fill-31" fill="#EE848B"></path>
                            <path d="M109.507111,5.75286885 C110.178809,5.88620381 112.768731,8.2783899 111.084795,9.50264728 C110.572477,9.87520085 110.140203,9.31173586 109.55705,9.24542489 C108.888363,9.16984464 108.383837,10.2805534 107.365045,9.16824034 C106.24248,7.94202216 108.376399,5.52826718 109.507111,5.75286885" id="Fill-33" fill="#D95B63"></path>
                            <path d="M109.977335,5.10077532 C110.066765,4.22108543 112.910456,1.79895246 114.135378,3.36563826 C114.63654,4.00717908 114.002031,4.54319276 113.987509,5.30149079 C113.971217,6.17030711 114.687895,6.44321597 113.991937,7.32807526 C113.072846,8.49689524 109.827163,6.58172033 109.977335,5.10077532" id="Fill-35" fill="#EE848B"></path>
                            <path d="M110.1815,5.2512228 C110.246138,4.61306883 112.309044,2.85618462 113.197322,3.99256214 C113.561416,4.45763021 113.10134,4.84693978 113.090714,5.39685737 C113.078849,6.0271681 113.598251,6.22485323 113.093725,6.8665723 C112.427163,7.714711 110.072414,6.32521096 110.1815,5.2512228" id="Fill-37" fill="#D95B63"></path>
                            <g id="Group-41" transform="translate(106.607424, 0.166847)">
                                <mask id="mask-8" fill="white">
                                    <use xlink:href="#path-7"></use>
                                </mask>
                                <g id="Clip-40"></g>
                                <path d="M2.53467121,4.93200321 C1.31754026,4.96587172 -0.878537263,2.198993 0.551277263,0.510202311 C1.09493971,-0.131695013 1.64444608,0.619829319 2.49801384,0.492911547 C3.35211285,0.365637265 3.36486324,-0.266277763 4.425979,0.153156951 C5.8042607,0.698439905 4.85134617,4.86747479 2.53467121,4.93200321" id="Fill-39" fill="#EE848B" mask="url(#mask-8)"></path>
                            </g>
                            <path d="M109.215605,4.91916883 C108.298108,4.94483759 106.642152,2.85835934 107.720091,1.5849035 C108.130228,1.10058385 108.544439,1.66761395 109.188156,1.57171261 C109.832405,1.47616777 109.841791,0.999334846 110.641701,1.31555974 C111.681035,1.72697297 110.962409,4.87014862 109.215605,4.91916883" id="Fill-42" fill="#D95B63"></path>
                            <path d="M109.024703,7.99836865 C109.144061,8.36325725 109.801415,5.93951997 110.374297,5.95342389 C111.177748,5.97303197 111.388307,5.6511029 112.138101,5.27783631 C112.147486,5.27373644 109.924137,4.83469364 109.974608,4.36677349 C110.167988,2.58083367 109.643629,1.57173043 109.503374,2.42824713 C109.45255,2.73752007 109.052152,4.02505808 108.335474,4.58139287 C107.85397,4.95483771 105.832148,4.76784791 106.41902,4.9660678 C108.825124,5.77980323 108.598982,6.69496592 109.024703,7.99836865" id="Fill-44" fill="#EE848B"></path>
                            <path d="M109.111194,6.8708326 C109.177779,7.07475666 109.546124,5.71823385 109.866831,5.72607708 C110.316637,5.73659414 110.434401,5.55709106 110.85357,5.34817585 C110.859237,5.34550202 109.614834,5.09968797 109.642991,4.83800919 C109.751192,3.83835349 109.457756,3.27346245 109.379129,3.7529692 C109.350618,3.92605509 109.126777,4.64674126 108.725494,4.95815326 C108.456142,5.16706847 107.324368,5.06243261 107.652868,5.17348566 C108.999628,5.62892794 108.873009,6.14123367 109.111194,6.8708326" id="Fill-46" fill="#F9DAC3"></path>
                            <path d="M109.186598,5.9227105 C109.21387,6.00595572 109.363687,5.45265128 109.494555,5.45568162 C109.678019,5.46085102 109.725833,5.38687508 109.897255,5.30202556 C109.899026,5.30077777 109.391844,5.20077655 109.403532,5.09382337 C109.447273,4.6861535 109.327915,4.45602592 109.295685,4.65157198 C109.284351,4.72198282 109.192619,5.0159258 109.029343,5.14284357 C108.919548,5.22840612 108.457878,5.18526834 108.59158,5.23054518 C109.141086,5.4162872 109.089376,5.62520241 109.186598,5.9227105" id="Fill-48" fill="#EE848B"></path>
                            <path d="M111.41588,20.0578386 C111.483351,20.2435806 111.488663,20.4496438 111.415526,20.6448333 C111.278636,21.0116827 110.90852,21.2257673 110.520165,21.1956422 C110.280918,21.4409215 109.898938,21.5323664 109.54352,21.3976054 C109.27222,21.2951086 109.075298,21.0831631 108.988347,20.8362795 C108.57272,20.6311076 108.36588,20.1562355 108.522958,19.7339487 L108.530042,19.7161232 C108.48329,19.548385 108.486655,19.3665646 108.551292,19.1940134 C108.652941,18.9214611 108.883156,18.7332235 109.153925,18.6667343 C109.383786,18.3633438 109.807028,18.2380303 110.198572,18.3859822 C110.358483,18.446589 110.492362,18.5449859 110.593125,18.6661995 C110.715494,18.6617431 110.842112,18.6809947 110.965189,18.7276976 C111.437839,18.9066659 111.684877,19.4166543 111.516643,19.867462 C111.491142,19.9364468 111.456787,19.9999056 111.41588,20.0578386" id="Fill-50" fill="#EE848B"></path>
                            <path d="M110.19967,19.3393806 C110.525159,19.4623768 110.689851,19.8279784 110.56766,20.1556116 C110.445469,20.4830666 110.082437,20.6488441 109.757125,20.5254914 C109.431636,20.4028517 109.267474,20.0372501 109.389312,19.7096169 C109.511503,19.3818054 109.874535,19.2165627 110.19967,19.3393806" id="Fill-52" fill="#D95B63"></path>
                            <path d="M110.115092,19.5660323 C110.316442,19.6423255 110.418091,19.8678185 110.342474,20.0704947 C110.267034,20.2726362 110.042663,20.3753113 109.841844,20.2991963 C109.640494,20.2230813 109.538845,19.9974101 109.614462,19.7947338 C109.690256,19.5922358 109.914096,19.4902737 110.115092,19.5660323" id="Fill-54" fill="#F9DAC3"></path>
                            <path d="M99.2649886,11.1979443 C99.3324594,11.3836863 99.3377721,11.5897494 99.2646344,11.784939 C99.1277448,12.1519666 98.7576293,12.3662295 98.3692737,12.3357478 C98.1300268,12.5810271 97.7480464,12.6724721 97.3926293,12.5377111 C97.1213293,12.4352143 96.9244066,12.2232688 96.8378103,11.9763852 C96.4218288,11.7712133 96.214635,11.2966977 96.3720669,10.8740544 L96.3791504,10.8562289 C96.3322219,10.6884906 96.3357637,10.5070268 96.4004011,10.3344756 C96.50205,10.061745 96.7326195,9.87368568 97.0030341,9.80683995 C97.2328952,9.50362769 97.6561373,9.37813596 98.0476806,9.52608785 C98.2072375,9.58669465 98.3414708,9.68509158 98.4422343,9.80630518 C98.5646026,9.80202705 98.6912211,9.82127862 98.8142977,9.86780326 C99.2869476,10.0467716 99.5339864,10.5571165 99.3657521,11.0072111 C99.3398971,11.0765524 99.305719,11.1400113 99.2649886,11.1979443" id="Fill-56" fill="#EE848B"></path>
                            <path d="M98.0488139,10.4795041 C98.374303,10.6025003 98.5389956,10.9679236 98.4168043,11.2957351 C98.2942589,11.6231901 97.9315812,11.7893241 97.6062692,11.6659714 C97.28078,11.5429752 97.1164417,11.1777301 97.2384558,10.8497404 C97.3606471,10.5222854 97.723679,10.356508 98.0488139,10.4795041" id="Fill-58" fill="#D95B63"></path>
                            <path d="M97.9642009,10.7064231 C98.1655508,10.7821816 98.2671998,11.0082093 98.1914058,11.2105291 C98.1161431,11.4128489 97.8917716,11.5153457 97.690953,11.4394089 C97.4896031,11.3634722 97.3879541,11.1376227 97.463571,10.9349464 C97.5390108,10.7326267 97.7632052,10.6303081 97.9642009,10.7064231" id="Fill-60" fill="#F9DAC3"></path>
                            <path d="M114.555752,12.9999806 C114.622868,13.1853661 114.628181,13.3917857 114.55522,13.5869753 C114.418331,13.9538247 114.048215,14.1679093 113.660037,14.1377841 C113.420613,14.3830634 113.038809,14.4741519 112.683038,14.3399256 C112.411738,14.2372506 112.214993,14.025305 112.128219,13.7784214 C111.712238,13.5732496 111.505398,13.0983775 111.66283,12.6760907 L111.669913,12.6582652 C111.622985,12.4905269 111.626173,12.3087065 111.690987,12.1361554 C111.792636,11.8637813 112.023028,11.6753654 112.293797,11.6088762 C112.523481,11.3054857 112.946546,11.1801722 113.338089,11.3281241 C113.498001,11.3887309 113.63188,11.4871279 113.732643,11.6083415 C113.855366,11.6038851 113.981807,11.6231366 114.104884,11.6698395 C114.577357,11.8488078 114.824572,12.3591528 114.655984,12.8092474 C114.63066,12.8785887 114.596659,12.9420476 114.555752,12.9999806" id="Fill-62" fill="#EE848B"></path>
                            <path d="M113.339294,12.2815048 C113.664783,12.4048574 113.829652,12.7699243 113.70693,13.0977358 C113.585093,13.4251907 113.222061,13.5913247 112.896749,13.4676155 C112.57126,13.3446193 112.406921,12.9793742 112.529113,12.651741 C112.651304,12.3239295 113.014159,12.1586869 113.339294,12.2815048" id="Fill-64" fill="#D95B63"></path>
                            <path d="M113.254964,12.5081742 C113.456314,12.5839327 113.557963,12.8099604 113.481815,13.0126367 C113.406552,13.2147782 113.182535,13.3176315 112.981539,13.2413382 C112.780189,13.1652232 112.67854,12.939552 112.75398,12.7368757 C112.829597,12.5347342 113.053614,12.4320592 113.254964,12.5081742" id="Fill-66" fill="#F9DAC3"></path>
                            <path d="M16.0253095,10.6960487 C16.8200838,12.8495509 19.9225015,16.9435403 21.6538982,18.4546105 C19.6016167,17.2963076 16.094197,13.5165822 16.0253095,10.6960487" id="Fill-68" fill="#9F5F2E"></path>
                            <path d="M15.4940787,11.5139018 C14.7812965,12.0263858 13.1641221,12.4677459 11.2133125,9.695163 C14.546831,9.16788383 15.361085,10.6425899 15.4940787,11.5139018" id="Fill-70" fill="#58898A"></path>
                            <path d="M19.1171904,14.9341575 C18.9969472,14.06035 19.3592708,12.4130928 22.7034146,11.9594331 C21.6205169,15.1776542 19.9454345,15.2199007 19.1171904,14.9341575" id="Fill-72" fill="#6CC5BA"></path>
                            <path d="M4.10695363,14.3175546 C3.24523979,14.4758453 1.59565814,14.1829718 1.00081704,10.8383677 C4.24030145,11.7882902 4.35487787,13.4719115 4.10695363,14.3175546" id="Fill-74" fill="#58898A"></path>
                            <path d="M17.8257354,13.309913 C18.6881575,13.1566135 20.1335559,12.3033054 19.5342876,8.95923601 C16.8260694,10.986177 17.3008443,12.6043786 17.8257354,13.309913" id="Fill-76" fill="#58898A"></path>
                            <path d="M4.52224444,14.8522313 C12.6963067,21.4291388 19.1906823,19.7323266 21.6699247,18.3663563 C21.5075343,19.1708224 16.6188224,20.6246726 12.4363405,19.5120031 C10.0320066,18.8727796 5.02287432,16.1212308 4.52224444,14.8522313" id="Fill-78" fill="#9F5F2E"></path>
                            <path d="M5.10568102,16.3500571 C4.67464702,17.2210125 3.32611622,18.4942901 3.54177489e-05,16.8103123 C2.97636595,14.5584131 4.52784045,15.5701902 5.10568102,16.3500571" id="Fill-80" fill="#6CC5BA"></path>
                            <path d="M7.08480713,15.4464454 C6.14234083,15.231113 4.59458519,14.21381 5.43097534,10.5604677 C8.30849035,12.9387499 7.70019051,14.6965253 7.08480713,15.4464454" id="Fill-82" fill="#58898A"></path>
                            <path d="M10.6265643,17.7020344 C9.67294142,17.5441002 8.06745486,16.6216291 8.68531749,12.9242577 C11.6991908,15.1249976 11.1964359,16.9162851 10.6265643,17.7020344" id="Fill-84" fill="#58898A"></path>
                            <path d="M7.77292086,18.4417761 C7.7251069,19.4139805 6.99674089,21.1248748 3.27929396,20.9257637 C5.10915196,17.6604831 6.93316603,17.9604868 7.77292086,18.4417761" id="Fill-86" fill="#58898A"></path>
                            <path d="M17.208953,20.6149042 C17.3995005,21.5689266 17.1106687,23.4072735 13.4580363,24.133129 C14.4360974,20.515616 16.2776433,20.3558993 17.208953,20.6149042" id="Fill-88" fill="#58898A"></path>
                            <path d="M21.5670716,19.4802915 C21.9293951,20.3824415 21.9826988,22.2430703 18.5264578,23.6357789 C18.8236127,19.8988349 20.6044171,19.399007 21.5670716,19.4802915" id="Fill-90" fill="#58898A"></path>
                            <path d="M7.09429908,8.62805549 C12.2440398,17.799647 18.8986806,18.6636505 21.7046518,18.3269262 C21.2562631,19.0123178 16.1819622,18.5255026 12.7126166,15.9233318 C10.7182432,14.4270568 7.08880933,9.99349107 7.09429908,8.62805549" id="Fill-92" fill="#9F5F2E"></path>
                            <path d="M7.85168994,5.39405877 C8.15096991,6.91332866 12.2415428,8.83991191 13.2877831,6.49995463 C13.6192933,5.75805608 12.7285369,5.39156319 12.5652611,4.75733084 C12.377547,4.03022749 13.1006003,3.19706223 11.9677636,2.5583735 C10.5423763,1.75551164 7.60323443,4.1314765 7.85168994,5.39405877" id="Fill-94" fill="#EE848B"></path>
                            <path d="M7.98307208,5.4019733 C8.22568366,6.63318264 11.5404308,8.19434253 12.3885088,6.29824093 C12.6571524,5.69734233 11.9349845,5.400369 11.8025221,4.88610247 C11.65058,4.29714697 12.2365666,3.62155939 11.3185386,3.10426252 C10.1633887,2.45363069 7.78154508,4.37914441 7.98307208,5.4019733" id="Fill-96" fill="#D95B63"></path>
                            <path d="M6.65379083,5.41560983 C5.79189991,5.58637841 2.47006923,8.65539985 4.62984356,10.225829 C5.28684281,10.7037315 5.84130767,9.98072799 6.58933053,9.89605672 C7.44679423,9.79872933 8.09440777,11.2240587 9.40114562,9.79676852 C10.8412313,8.22384378 8.10379347,5.12790578 6.65379083,5.41560983" id="Fill-98" fill="#EE848B"></path>
                            <path d="M6.69188262,5.75286885 C6.02018501,5.88620381 3.42990794,8.2783899 5.11419899,9.50264728 C5.62616255,9.87520085 6.05843618,9.31173586 6.64194359,9.24542489 C7.31027652,9.16984464 7.81515653,10.2805534 8.83394808,9.16824034 C9.95633654,7.94202216 7.82224008,5.52826718 6.69188262,5.75286885" id="Fill-100" fill="#D95B63"></path>
                            <path d="M6.22141095,5.10077532 C6.13233531,4.22108543 3.28829007,1.79895246 2.0637214,3.36563826 C1.56220607,4.00682257 2.19671504,4.54319276 2.21123632,5.30149079 C2.22788266,6.17030711 1.51120451,6.44321597 2.2068091,7.32807526 C3.12607678,8.49689524 6.37158221,6.58172033 6.22141095,5.10077532" id="Fill-102" fill="#EE848B"></path>
                            <path d="M6.01720992,5.2512228 C5.95257253,4.61306883 3.88966574,2.85618462 3.00138859,3.99256214 C2.63764831,4.45763021 3.09772487,4.84693978 3.10817311,5.39685737 C3.12021514,6.0271681 2.60045967,6.22485323 3.10498551,6.8665723 C3.77190172,7.714711 6.12629658,6.32556747 6.01720992,5.2512228" id="Fill-104" fill="#D95B63"></path>
                            <g id="Group-108" transform="translate(4.427219, 0.166847)">
                                <mask id="mask-10" fill="white">
                                    <use xlink:href="#path-9"></use>
                                </mask>
                                <g id="Clip-107"></g>
                                <path d="M2.62939598,4.93200321 C3.84617274,4.96587172 6.04260444,2.198993 4.61278992,0.510202311 C4.06948165,-0.131695013 3.5196211,0.619829319 2.66569917,0.492911547 C1.81195433,0.365637265 1.79920394,-0.266277763 0.738442357,0.153156951 C-0.640016433,0.698439905 0.313075192,4.86747479 2.62939598,4.93200321" id="Fill-106" fill="#EE848B" mask="url(#mask-10)"></path>
                            </g>
                            <path d="M6.9829811,4.91916883 C7.90065497,4.94483759 9.55678892,2.85835934 8.47849555,1.5849035 C8.06871219,1.10094037 7.65432453,1.66761395 7.01042985,1.57171261 C6.36653518,1.47616777 6.3567953,0.999334846 5.55706252,1.31555974 C4.51772868,1.72697297 5.23617772,4.87014862 6.9829811,4.91916883" id="Fill-109" fill="#D95B63"></path>
                            <path d="M7.17402444,7.99836865 C7.05466662,8.36325725 6.3973132,5.93951997 5.82443111,5.95342389 C5.02097947,5.97303197 4.81077513,5.6511029 4.06098139,5.27819282 C4.05159569,5.27373644 6.27494488,4.83469364 6.22412041,4.36677349 C6.0307395,2.58083367 6.55509927,1.57173043 6.69535356,2.42824713 C6.74617803,2.73769833 7.14675277,4.02487983 7.86325383,4.58103636 C8.34475813,4.95483771 10.3665803,4.76784791 9.77970823,4.9660678 C7.37360345,5.77980323 7.59992287,6.69496592 7.17402444,7.99836865" id="Fill-111" fill="#EE848B"></path>
                            <path d="M7.08751658,6.8708326 C7.02093122,7.07475666 6.6529408,5.71823385 6.33187891,5.72607708 C5.88242767,5.73695065 5.76466366,5.55709106 5.34514042,5.34817585 C5.33982776,5.34550202 6.58405328,5.09968797 6.55571908,4.83800919 C6.44751786,3.83835349 6.74095391,3.27346245 6.81958131,3.7529692 C6.8480926,3.92605509 7.07228695,4.64674126 7.47357005,4.95797501 C7.74292203,5.16742498 8.87434202,5.06243261 8.54619657,5.17348566 C7.19908249,5.62892794 7.32570095,6.14123367 7.08751658,6.8708326" id="Fill-113" fill="#F9DAC3"></path>
                            <path d="M7.0121299,5.9227105 C6.98485824,6.00595572 6.83504116,5.45265128 6.70417258,5.45603813 C6.52070864,5.46085102 6.47289468,5.38687508 6.30147277,5.30202556 C6.2995248,5.30077777 6.80688405,5.20077655 6.79555037,5.09382337 C6.75145527,4.6861535 6.87081309,4.45584766 6.90304324,4.65157198 C6.91473109,4.72198282 7.0059318,5.0159258 7.1695618,5.14284357 C7.27917973,5.22840612 7.740673,5.18526834 7.606971,5.23054518 C7.05799589,5.4162872 7.10952871,5.62520241 7.0121299,5.9227105" id="Fill-115" fill="#EE848B"></path>
                            <path d="M14.6863946,8.24111672 C14.6189238,8.42685874 14.6139653,8.63292186 14.6867488,8.82811141 C14.8236384,9.19496081 15.193931,9.40940194 15.5821095,9.37892028 C15.8211793,9.62419957 16.2033368,9.71564454 16.5587539,9.58106179 C16.8300539,9.47838674 17.0269766,9.26644119 17.1139271,9.01937935 C17.5295544,8.81438575 17.7369253,8.33951364 17.5793164,7.91722684 L17.5722328,7.89940131 C17.6191613,7.73166308 17.6156196,7.54984268 17.5511593,7.37764806 C17.4495103,7.10491746 17.2191179,6.91685812 16.9483492,6.85001238 C16.7186651,6.54680012 16.2952459,6.42130839 15.9037027,6.56926029 C15.7441457,6.62986709 15.6099124,6.72826401 15.5091489,6.84947761 C15.3867806,6.84502123 15.2603392,6.8642728 15.1372626,6.91097569 C14.6644356,7.08994401 14.4175739,7.60028893 14.5856311,8.05074006 C14.6114861,8.11972486 14.6456642,8.18354026 14.6863946,8.24111672" id="Fill-117" fill="#EE848B"></path>
                            <path d="M15.902587,7.52294395 C15.5770979,7.64576185 15.4124054,8.01118521 15.5349508,8.33881845 C15.657142,8.66627343 16.0198197,8.83240736 16.3451318,8.7090547 C16.6706209,8.58605854 16.8349592,8.22063518 16.712768,7.89282369 C16.5907539,7.56519046 16.2277219,7.39959129 15.902587,7.52294395" id="Fill-119" fill="#D95B63"></path>
                            <path d="M15.9870583,7.74929253 C15.7860626,7.82540754 15.6844137,8.05107875 15.7598535,8.25375502 C15.8354704,8.45589653 16.0594876,8.55874983 16.2608375,8.48245657 C16.4618333,8.40634155 16.5634822,8.18049209 16.4880424,7.97799407 C16.4124255,7.77549606 16.1880541,7.67317752 15.9870583,7.74929253" id="Fill-121" fill="#F9DAC3"></path>
                            <path d="M12.9495613,14.3213871 C12.8820905,14.5071291 12.877132,14.7131922 12.9499155,14.9083818 C13.0869822,15.2754094 13.4574519,15.4896723 13.8452762,15.4595471 C14.084346,15.7046482 14.4665035,15.7959149 14.8222748,15.6613321 C15.0935748,15.5586571 15.2903204,15.3470681 15.3770939,15.0996497 C15.7927211,14.8948344 15.999915,14.4201405 15.8424831,13.9978537 L15.8357537,13.9800282 C15.882328,13.8119334 15.8787863,13.6304695 15.814326,13.4579184 C15.712677,13.1851878 15.4824617,12.9971285 15.2115159,12.9302827 C14.9818318,12.6270705 14.5584126,12.5015787 14.1672236,12.6497089 C14.0073124,12.7101374 13.8734333,12.8088909 13.7723157,12.929748 C13.6499473,12.9254698 13.523506,12.9447214 13.4004293,12.991246 C12.9276023,13.1703926 12.6807406,13.6805593 12.8489749,14.1310104 C12.8746528,14.1999952 12.9088309,14.2638106 12.9495613,14.3213871" id="Fill-123" fill="#EE848B"></path>
                            <path d="M14.165736,13.6031965 C13.8406011,13.7260144 13.6759085,14.0917943 13.7980998,14.419071 C13.920291,14.7468825 14.2831458,14.9126599 14.6082808,14.7893072 C14.9337699,14.6663111 15.0981082,14.3008877 14.975917,13.9734327 C14.8539029,13.6456212 14.4912251,13.4802003 14.165736,13.6031965" id="Fill-125" fill="#D95B63"></path>
                            <path d="M14.250349,13.8298659 C14.0493533,13.9056244 13.9477043,14.1312956 14.0231442,14.3339719 C14.098761,14.5364699 14.3227783,14.6387885 14.523774,14.5628517 C14.7249468,14.4869149 14.8267729,14.2610655 14.7513331,14.0585675 C14.6755391,13.8560694 14.4513447,13.7535727 14.250349,13.8298659" id="Fill-127" fill="#F9DAC3"></path>
                            <path d="M9.26544251,22.0255988 C9.1979717,22.2115191 9.19301322,22.4175822 9.26579669,22.6127718 C9.40286338,22.9796212 9.77333303,23.1938841 10.1611574,23.1637589 C10.4002272,23.4088599 10.7823847,23.5003049 11.138156,23.3659004 C11.4094559,23.2632254 11.6062015,23.0512798 11.692975,22.8040397 C12.1089565,22.5990461 12.3157961,22.1243523 12.1583642,21.7020655 L12.1512807,21.6842399 C12.1982092,21.5163235 12.1946674,21.3348596 12.1302071,21.1621302 C12.0285582,20.8897561 11.7981657,20.7015185 11.5273971,20.6346728 C11.2977129,20.3312822 10.8742938,20.206147 10.4831047,20.3542772 C10.3231936,20.4147057 10.1893145,20.5131026 10.0881968,20.634138 C9.9658285,20.6296816 9.83938713,20.6489332 9.71631046,20.6956361 C9.24348351,20.8746044 8.9966218,21.3849493 9.16485611,21.8352222 C9.19053397,21.904207 9.2247121,21.9680224 9.26544251,22.0255988" id="Fill-129" fill="#EE848B"></path>
                            <path d="M10.4816349,21.3074261 C10.1564999,21.4304222 9.99180742,21.7960238 10.1139987,22.1236571 C10.2361899,22.4511121 10.5990447,22.6168895 10.9241797,22.4938933 C11.2496688,22.3708972 11.4143613,22.0052956 11.2918159,21.6776623 C11.1699788,21.3502073 10.807124,21.1844299 10.4816349,21.3074261" id="Fill-131" fill="#D95B63"></path>
                            <path d="M10.5662302,21.5340777 C10.3652345,21.6098362 10.2635855,21.8358639 10.3390253,22.0385402 C10.4146422,22.2406817 10.6386595,22.3433567 10.8398323,22.2672417 C11.0410051,22.1911267 11.142477,21.9652772 11.0668601,21.7627792 C10.9914203,21.5606377 10.7672259,21.4579627 10.5662302,21.5340777" id="Fill-133" fill="#F9DAC3"></path>
                            <path d="M64.470043,27.6558459 C62.4184699,26.7126971 57.407921,26.0412094 55.1489769,26.2059173 C57.3864932,25.5684763 62.4618567,25.735145 64.470043,27.6558459" id="Fill-135" fill="#9F5F2E"></path>
                            <path d="M63.6020248,26.4862772 C63.7436958,25.6261954 64.5655647,24.1785841 67.8544569,24.7393753 C65.8937303,27.4565208 64.3004628,27.0010785 63.6020248,26.4862772" id="Fill-137" fill="#58898A"></path>
                            <path d="M62.3730644,27.5728324 C63.2372574,27.6245264 64.7527829,28.2965489 64.5429327,31.6486397 C61.6544382,29.9692966 61.9376031,28.3257828 62.3730644,27.5728324" id="Fill-139" fill="#58898A"></path>
                            <path d="M60.7051186,25.7497976 C60.5421969,24.8932809 60.815622,23.2488758 64.0937117,22.6283691 C63.1886112,25.8608507 61.5372586,25.9891945 60.7051186,25.7497976" id="Fill-141" fill="#6CC5BA"></path>
                            <path d="M59.3921118,26.867494 C58.8967946,27.582476 58.4809902,29.1965777 61.2228552,31.1089005 C61.705245,27.7851523 60.2492213,26.9903119 59.3921118,26.867494" id="Fill-143" fill="#58898A"></path>
                            <path d="M68.6785925,31.2137146 C68.5050455,31.4393859 68.258538,31.6040937 67.9659873,31.6645223 C67.4148872,31.7782492 66.8699851,31.4875148 66.6082479,30.9864391 C66.1263895,30.8807338 65.7220959,30.4805506 65.6115925,29.9391893 C65.5274753,29.5265283 65.6333744,29.1211757 65.8662461,28.8243806 C65.7957648,28.1546755 66.2124546,27.5347036 66.8462552,27.4035077 L66.8731727,27.3986948 C67.041407,27.2113485 67.2638305,27.0764092 67.5230884,27.0229326 C67.9321634,26.9384396 68.3378737,27.0771222 68.6268825,27.3593004 C69.1717846,27.4088553 69.6499242,27.8332812 69.7710529,28.4291887 C69.8204607,28.6725071 69.8043456,28.9131518 69.7349268,29.130445 C69.8342736,29.2775056 69.9081196,29.4480959 69.9458395,29.6357988 C70.0928232,30.3552371 69.6632059,31.0515023 68.9867269,31.1910762 C68.883307,31.2126451 68.7797101,31.2195971 68.6785925,31.2137146" id="Fill-145" fill="#EE848B"></path>
                            <path d="M68.6148936,29.1640105 C68.7156571,29.6592037 68.3991995,30.1429886 67.9070699,30.2442376 C67.4156487,30.3460213 66.9348527,30.0265878 66.8346205,29.5313946 C66.7336799,29.0365579 67.0504917,28.5527731 67.5422671,28.4511675 C68.0336884,28.3497403 68.5141301,28.6688172 68.6148936,29.1640105" id="Fill-147" fill="#D95B63"></path>
                            <path d="M68.2748301,29.2342074 C68.3373424,29.5400935 68.1414823,29.8390276 67.8374209,29.9019517 C67.5337137,29.9643411 67.236913,29.7671907 67.1747548,29.4613046 C67.1122425,29.1554186 67.3082798,28.8564844 67.6118099,28.7937386 C67.9158712,28.7308144 68.212672,28.9283213 68.2748301,29.2342074" id="Fill-149" fill="#F9DAC3"></path>
                            <path d="M51.7857606,27.903799 C53.8006764,26.8836439 58.782714,26.0235621 61.0462624,26.1032422 C58.78661,25.5504726 53.7211635,25.9085875 51.7857606,27.903799" id="Fill-151" fill="#9F5F2E"></path>
                            <path d="M52.6094535,26.7020018 C52.4362607,25.8479806 51.5607339,24.4326336 48.2952175,25.1171339 C50.3558221,27.7581644 51.9308494,27.2428283 52.6094535,26.7020018" id="Fill-153" fill="#58898A"></path>
                            <g id="Group-157" transform="translate(51.709914, 27.618163)">
                                <mask id="mask-12" fill="white">
                                    <use xlink:href="#path-11"></use>
                                </mask>
                                <g id="Clip-156"></g>
                                <path d="M2.16807979,0.123423968 C1.30636596,0.207560468 -0.182950382,0.936624633 0.151570257,4.27819843 C2.97525029,2.49101082 2.63116686,0.859974855 2.16807979,0.123423968" id="Fill-155" fill="#6CC5BA" mask="url(#mask-12)"></path>
                            </g>
                            <path d="M55.4769453,25.8568399 C55.607991,24.9953321 55.2736474,23.3619788 51.9748383,22.8657161 C52.9992967,26.061477 54.654191,26.127788 55.4769453,25.8568399" id="Fill-158" fill="#6CC5BA"></path>
                            <path d="M56.8304877,26.9242861 C57.3521911,27.6200166 57.8278515,29.2175405 55.158947,31.2316471 C54.5534806,27.928933 55.9788679,27.0795465 56.8304877,26.9242861" id="Fill-160" fill="#6CC5BA"></path>
                            <path d="M47.9638845,31.1714147 C48.1374314,31.3805081 48.3784492,31.5288165 48.6603745,31.5756977 C49.1900469,31.6650036 49.6997083,31.367139 49.9320488,30.8794325 C50.3880523,30.7612492 50.7597616,30.3649877 50.8456496,29.8446605 C50.9115266,29.4471512 50.7962418,29.0640805 50.563193,28.7892109 C50.6071111,28.1474918 50.1870566,27.5706577 49.5775171,27.4685174 L49.5516621,27.4645958 C49.3844904,27.2922229 49.1670254,27.1710093 48.9176844,27.1294758 C48.5241932,27.0633431 48.1418586,27.2107602 47.8760484,27.490621 C47.3577097,27.5572885 46.9164045,27.9797536 46.8220162,28.5526661 C46.7834109,28.7867153 46.807672,29.0157734 46.8816951,29.220767 C46.791734,29.3649755 46.7274508,29.5305747 46.6976999,29.7106125 C46.5834777,30.4027778 47.0180535,31.0519836 47.6686775,31.1607193 C47.7683785,31.1772971 47.867194,31.1803274 47.9638845,31.1714147" id="Fill-162" fill="#EE848B"></path>
                            <path d="M47.9517007,29.2123711 C47.8730733,29.6888475 48.1927185,30.1391204 48.6655455,30.2182658 C49.1385495,30.2974111 49.5855215,29.9758386 49.6645031,29.4991839 C49.7429534,29.0227075 49.4234853,28.5727911 48.9504813,28.4936458 C48.4773001,28.4143222 48.0303281,28.7364295 47.9517007,29.2123711" id="Fill-164" fill="#D95B63"></path>
                            <path d="M48.2789962,29.2675411 C48.2301197,29.5616624 48.4277507,29.8399189 48.7199471,29.8889391 C49.0123207,29.9376028 49.2885791,29.7390264 49.3372785,29.4445487 C49.3858008,29.1500709 49.1881698,28.8718144 48.8959734,28.8229724 C48.6035998,28.7739522 48.3273414,28.9728851 48.2789962,29.2675411" id="Fill-166" fill="#F9DAC3"></path>
                        </g>
                    </g>
                </g>
            </g>
        </g>
    </g>
</svg>