<?xml version="1.0" encoding="UTF-8" standalone="no"?>
<svg width="96px" height="46px" viewBox="0 0 96 46" version="1.1" xmlns="http://www.w3.org/2000/svg" xmlns:xlink="http://www.w3.org/1999/xlink">
    <!-- Generator: Sketch 3.6.1 (26313) - http://www.bohemiancoding.com/sketch -->
    <title>Page 1</title>
    <desc>Created with Sketch.</desc>
    <defs>
        <path id="path-1" d="M95.9999727,0.00856881497 L0,0.00856881497 L0,33.3910806 L95.9999727,33.3910806 L95.9999727,0.00856881497 L95.9999727,0.00856881497 Z"></path>
        <path id="path-3" d="M-4.0967283e-05,23.6662509 L18.1622578,23.6662509 L18.1622578,0.135781714 L-4.0967283e-05,0.135781714 L-4.0967283e-05,23.6662509 L-4.0967283e-05,23.6662509 Z"></path>
        <path id="path-5" d="M0,45.2837389 L96,45.2837389 L96,0.136012936 L0,0.136012936 L0,45.2837389 Z"></path>
    </defs>
    <g id="Page-1" stroke="none" stroke-width="1" fill="none" fill-rule="evenodd">
        <g id="Desktop-Landscape" transform="translate(-1123.000000, -1510.000000)">
            <g id="Page-1" transform="translate(1123.000000, 1510.000000)">
                <g id="Group-3" transform="translate(0.000000, 0.127444)">
                    <mask id="mask-2" fill="white">
                        <use xlink:href="#path-1"></use>
                    </mask>
                    <g id="Clip-2"></g>
                    <path d="M79.2418959,33.3910806 L16.7580495,33.3910806 C7.5410936,33.3910806 -2.7311522e-05,25.8800382 -2.7311522e-05,16.6998451 L-2.7311522e-05,16.6998451 C-2.7311522e-05,7.51965198 7.5410936,0.00847360591 16.7580495,0.00847360591 L79.2418959,0.00847360591 C88.4588518,0.00847360591 95.9999727,7.51965198 95.9999727,16.6998451 L95.9999727,16.6998451 C95.9999727,25.8800382 88.4588518,33.3910806 79.2418959,33.3910806" id="Fill-1" fill="#FF5F72" mask="url(#mask-2)"></path>
                </g>
                <g id="Group-6" transform="translate(38.918919, 21.617488)">
                    <mask id="mask-4" fill="white">
                        <use xlink:href="#path-3"></use>
                    </mask>
                    <g id="Clip-5"></g>
                    <path d="M18.1622578,11.9010367 L9.08104011,23.6662917 L-4.0967283e-05,11.9010367 L9.08104011,0.135781714 L18.1622578,11.9010367 Z" id="Fill-4" fill="#FF5F72" mask="url(#mask-4)"></path>
                </g>
                <path d="M19.9136364,12.0329556 L20.5725269,12.0329556 L19.7795368,12.8365201 L18.8644643,13.761136 L18.7912694,13.7977235 L18.7302282,13.8461441 L18.6570333,13.8828676 L18.6325895,13.8828676 L18.6202993,13.8828676 L18.6202993,13.8947007 L18.5961286,13.9194551 L18.5473775,13.9194551 L18.5226606,13.9194551 L18.510507,13.9194551 L18.510507,13.9314242 L18.4375852,13.9556345 L18.2666151,13.9797088 L16.4853576,13.9797088 L14.8506265,13.9797088 L15.155423,14.6739188 L16.2291755,14.6739188 L18.2544615,14.6739188 L19.4990475,14.6739188 L19.5964131,14.6612696 L19.6453007,14.6495725 L19.7062054,14.6495725 L19.8038441,14.6252262 L19.9259266,14.5886387 L20.0235653,14.5277049 L20.1333576,14.4543939 L20.2309963,14.3693859 L20.2797474,14.3208292 L20.3039181,14.2966189 L20.3039181,14.2841057 L20.3162083,14.2841057 L20.3407886,14.2841057 L21.4266947,13.2131399 L22.3660745,12.2640416 L22.5001741,12.1302049 L22.6465639,12.0451968 L22.8049707,11.9966402 L22.988231,12.0086093 L23.5982339,12.0086093 L24.0129593,12.0086093 L26.2821371,9.74494603 L25.0499778,9.74494603 L22.6710077,9.74494603 L21.1703761,9.74494603 L20.9140575,9.74494603 L20.6946094,9.80587982 L20.4871784,9.9034011 L20.3162083,10.0736893 L19.2794629,11.1080677 L18.2666151,12.1180997 L18.217864,12.1425821 L18.1935568,12.1546872 L18.18113,12.1788975 L18.1080717,12.2398313 L17.9616819,12.3249754 L17.7907118,12.373668 L17.6201514,12.3860452 L16.4487602,12.3860452 L14.5334031,12.3860452 L13.5328455,12.3860452 L14.021039,13.5057037 L15.7168114,13.5057037 L17.644322,13.5057037 L17.8395994,13.4809494 L17.9371016,13.456603 L18.0470304,13.4323927 L18.2423078,13.3107972 L18.3399465,13.2378942 L18.4497388,13.1645833 L19.3159238,12.2640416 L19.462177,12.1425821 L19.5353718,12.0938894 L19.6209935,12.0695431 L19.7673832,12.0208505 L19.9136364,12.0329556 Z" id="Fill-7" fill="#004498"></path>
                <path d="M26.526029,10.1103448 L24.7326179,11.8990509 L24.5863647,12.1668604 L24.5133064,12.3006971 L24.4522651,12.446503 L24.2935852,12.7147205 L24.147332,12.9943631 L23.8056649,13.5056357 L23.6225411,13.7488268 L23.4518441,14.0046672 L23.2444131,14.22324 L23.0489991,14.4544619 L22.8419778,14.6738508 L22.7808,14.7222714 L22.7320489,14.7832052 L22.6344102,14.9048008 L22.5123277,15.0024581 L22.4512865,15.0510147 L22.4025354,15.1118125 L22.1828142,15.3310653 L21.951076,15.5255638 L21.82913,15.6230851 L21.7682253,15.6715057 L21.7193377,15.7324395 L21.2069735,16.0853931 L20.6946094,16.4016231 L20.1576649,16.6694326 L19.8893292,16.778651 L19.6330105,16.9005186 L19.0718953,17.083184 L18.7912694,17.1564949 L18.5226606,17.2292619 L18.2300176,17.2776825 L17.9493917,17.3267831 L17.6567488,17.3633706 L17.5102225,17.3752037 L17.3761229,17.399414 L17.1319579,17.399414 L16.6074401,17.3633706 L16.1315368,17.2900596 L15.8875084,17.2292619 L15.6679238,17.1683281 L15.2410447,17.0223862 L15.02146,16.9248649 L14.8261826,16.8278877 L14.4479181,16.5966657 L14.0940973,16.3166151 L13.9234003,16.158024 L13.7770105,16.0120821 L13.4719408,15.6472954 L13.3377047,15.4523889 L13.2279124,15.2702675 L13.1058299,15.0632558 L13.0081912,14.8563802 L12.8497844,14.4302516 L12.7156848,13.9555665 L12.6667972,13.7125114 L12.6423533,13.4690482 L12.6057559,12.9459425 L12.6057559,12.678133 L12.6300632,12.4227007 L9.71414851,12.4227007 L9.68984125,12.7632771 L9.70185832,13.1038535 L9.71414851,13.4323247 L9.7508825,13.761068 L9.78747994,14.0654649 L9.86067482,14.381695 L9.93373314,14.6856839 L10.0313718,14.9900809 L10.1290105,15.2702675 L10.2509565,15.5497741 L10.373039,15.8175836 L10.5315824,16.0853931 L10.6903989,16.3288562 L10.8731129,16.5841525 L11.0563733,16.8278877 L11.2760945,17.0708068 L11.4831158,17.2776825 L11.7149906,17.4845581 L11.9468654,17.6794647 L12.2030475,17.8622661 L12.4593661,18.0201771 L12.7277018,18.166119 L13.3011073,18.4339284 L13.899093,18.628835 L14.2160432,18.7141151 L14.5455568,18.786746 L14.8750703,18.8357106 L15.228891,18.8844033 L15.5948654,18.9209908 L15.9729935,18.9452011 L16.8025809,18.8961004 L17.2173064,18.8476798 L17.632305,18.786746 L18.0225866,18.7016019 L18.4375852,18.6042166 L18.8278669,18.4828931 L19.2425923,18.3487843 L19.6330105,18.1903293 L20.0235653,18.0201771 L20.8044017,17.630636 L21.1703761,17.399414 L21.5606578,17.1564949 L21.9269053,16.9005186 L22.3171869,16.6327091 L22.488157,16.4749341 L22.6710077,16.3288562 L22.8419778,16.1704011 L23.0246919,16.0244593 L23.1832353,15.8541711 L23.3542054,15.695852 L23.5127488,15.5255638 L23.6837189,15.3671087 L23.9885155,15.0024581 L24.2814316,14.6369913 L24.5620575,14.2475863 L24.8424102,13.8584533 L25.0865752,13.4323247 L25.3304671,13.0067403 L25.3794913,12.8850087 L25.4039351,12.8236668 L25.440396,12.7751102 L25.562342,12.5562654 L25.7819266,12.1059266 L25.977204,11.6191363 L26.1722083,11.132346 L26.3554686,10.6213454 L26.526029,10.1103448 Z" id="Fill-9" fill="#61B330"></path>
                <path d="M10.104635,11.93572 L11.3489479,11.93572 L13.7038839,11.93572 L15.2045155,11.93572 L15.25313,11.9236148 L15.3140347,11.9236148 L15.4359807,11.9112377 L15.5460461,11.8868913 L15.667992,11.862681 L15.8632694,11.7409495 L15.9487545,11.6679105 L16.0463932,11.5948716 L17.0831385,10.5604932 L18.0958498,9.55046113 L18.2300859,9.40451925 L18.4007829,9.31910313 L18.5717531,9.27068252 L18.7667573,9.27068252 L19.9258583,9.27068252 L21.8413519,9.27068252 L22.8419095,9.27068252 L22.3414259,8.15102403 L20.6700973,8.15102403 L18.7423135,8.15102403 L18.5105752,8.15102403 L18.3034174,8.22406298 L18.10814,8.33341738 L17.94946,8.50384159 L17.0466777,9.40451925 L16.8881343,9.51387365 L16.7414714,9.5869126 L16.5952182,9.62336407 L16.4488284,9.62336407 L15.8022282,9.62336407 L16.5952182,8.83231283 L17.5225809,7.90742486 L17.6322367,7.79820648 L17.7663363,7.72516753 L17.9128626,7.67633889 L18.0958498,7.67633889 L19.9015511,7.67633889 L21.5364188,7.67633889 L21.2190589,7.00688322 L20.1455795,7.00688322 L18.10814,7.00688322 L16.8758441,7.00688322 L16.6441058,7.00688322 L16.4245212,7.08019419 L16.2169536,7.2138949 L16.0216762,7.40866543 L14.9480603,8.46739012 L13.9965269,9.42872955 L13.8501371,9.52611482 L13.7038839,9.59901775 L13.6549963,9.59901775 L13.6305525,9.59901775 L13.6182623,9.59901775 L13.6182623,9.61139493 L13.5453405,9.63574124 L13.3742339,9.64771038 L12.7765212,9.64771038 L12.3739494,9.64771038 L10.104635,11.93572 Z" id="Fill-11" fill="#61B330"></path>
                <path d="M9.83602617,11.6071127 L11.6298469,9.80589343 L11.8981826,9.23395903 L12.2031158,8.68637095 L12.5323562,8.1632652 L12.7034629,7.90742486 L12.8984671,7.67633889 L13.2888853,7.20178975 L13.715901,6.76369209 L14.1673605,6.33769957 L14.6554174,5.96067171 L15.1433377,5.59534097 L15.6557018,5.27911089 L16.1804927,4.99919627 L16.7293178,4.78021544 L17.2662623,4.58544492 L17.8276506,4.45147217 L18.4007829,4.35422292 L18.9986321,4.30553029 L19.2303704,4.30553029 L19.7305809,4.31763544 L19.9747459,4.34211777 L20.218911,4.39067439 L20.6700973,4.5001648 L21.1214202,4.65848386 L21.523992,4.84101322 L21.7072523,4.95050364 L21.9025297,5.08447638 L22.2562139,5.36425499 L22.5978811,5.69286224 L22.7442708,5.85104529 L22.890524,6.03357465 L23.134689,6.41073852 L23.3419835,6.81238472 L23.427332,7.01926039 L23.5128171,7.25048238 L23.634763,7.70054919 L23.671497,7.93204321 L23.7079579,8.18733949 L23.7324017,8.71085328 L23.7324017,9.25857737 L26.66047,9.25857737 L26.66047,8.5649114 L26.6358896,8.22406298 L26.6115824,7.90742486 L26.5628313,7.57908964 L26.5019266,7.27469269 L26.4287317,6.97070377 L26.3432467,6.67854799 L26.2334543,6.3863922 L26.1115084,6.10661359 L25.9772723,5.83880412 L25.8310191,5.58323581 L25.4892154,5.08447638 L25.3062282,4.84101322 L25.1112239,4.62176037 L24.8792125,4.39067439 L24.6596279,4.1836627 L24.4155994,3.97678703 L24.1717075,3.80649883 L23.9032353,3.63607462 L23.634763,3.49013274 L23.3541371,3.34419086 L23.0733747,3.23456444 L22.7685781,3.11296887 L22.4635084,3.01571962 L22.134268,2.9303035 L21.8169081,2.86964173 L21.4630873,2.80884395 L21.1214202,2.77225647 L20.7554458,2.735805 L20.3894714,2.735805 L19.5477303,2.77225647 L18.7302964,2.88174688 L17.9128626,3.06414023 L17.1198725,3.31984455 L16.3268825,3.63607462 L15.5583363,4.03772082 L14.7895169,4.51240597 L14.0577047,5.06013006 L13.6794401,5.34004468 L13.3254828,5.65627476 L12.9838156,5.97264085 L12.6667289,6.32573043 L12.3496421,6.66644284 L12.056726,7.04360671 L11.7639465,7.42077058 L11.507901,7.83452193 L11.2392922,8.23616813 L10.9952637,8.6742658 L10.7633889,9.11236347 L10.556231,9.5869126 L10.3486634,10.0614617 L10.1656762,10.5604932 L9.98268905,11.0714938 L9.83602617,11.6071127 Z" id="Fill-13" fill="#004498"></path>
                <path d="M14.1640421,22.4803541 L14.1898515,22.3671913 L14.2155243,22.2643655 L14.2620905,22.0637465 L14.2877633,21.8734644 L14.3135727,21.7038562 L14.2982782,21.575188 L14.2827107,21.4568567 L14.2569013,21.3489985 L14.2207135,21.2615422 L14.1640421,21.1740858 L14.1073707,21.0968305 L14.0403209,21.0300481 L13.9630293,20.9786353 L13.8701701,20.9272224 L13.7825001,20.8860104 L13.6845883,20.8449345 L13.5917292,20.8192281 L13.4835755,20.7935216 L13.3804745,20.7780162 L13.2720478,20.7678152 L13.1637576,20.7678152 L13.0554674,20.7678152 L12.8752114,20.7729837 L12.7101132,20.7883532 L12.5451516,20.8140596 L12.3956211,20.850103 L12.2460905,20.8911789 L12.1119909,20.9477603 L11.9832171,21.0145427 L11.8645485,21.091798 L11.8026879,21.0403851 L11.7357747,20.9941407 L11.6635357,20.9477603 L11.5862441,20.9117169 L11.4109041,20.8449345 L11.3129923,20.8140596 L11.2097548,20.7883532 L10.7664888,20.7574782 L10.5962014,20.7574782 L10.4468074,20.7729837 L10.3076552,20.7935216 L10.1889866,20.8294291 L9.14227255,20.8294291 L9.14759829,20.839766 L9.15784011,20.8654725 L9.15784011,20.9015159 L9.1630293,20.9580973 L9.15784011,20.9838037 L9.15784011,21.0198472 L9.15784011,21.101999 L9.15265092,21.1432109 L9.15265092,21.1946238 L9.15265092,21.3026181 L8.97731095,22.1203278 L8.68876472,23.4369331 L8.54428677,24.1258386 L9.75596245,24.1258386 L9.74558407,24.0950997 L9.74039488,24.0591922 L9.73520569,24.0126758 L9.73520569,23.9665674 L9.73520569,23.8995131 L9.73520569,23.8328667 L9.73520569,23.7556114 L9.74558407,23.6734596 L9.92078748,22.8556138 L10.0703181,22.1460343 L10.0858856,21.9866271 L10.1014532,21.9146763 L10.127126,21.8529264 L10.1786083,21.7345951 L10.2612256,21.6368018 L10.3539482,21.5494815 L10.4724802,21.4877317 L10.6013906,21.4363188 L10.7561104,21.4106123 L10.8385912,21.4157808 L10.9160193,21.4363188 L10.9777434,21.4620252 L11.0345514,21.5082696 L11.0706026,21.55465 L11.1014646,21.6110954 L11.111843,21.6780138 L11.1170321,21.7654701 L11.1014646,21.8632634 L11.0861701,21.9712577 L11.0603607,22.0894529 L11.0293622,22.2281861 L10.642631,24.1258386 L11.8541701,24.1258386 L11.8387391,24.0640887 L11.8284973,24.0230128 L11.8284973,23.9766324 L11.8233081,23.920323 L11.8233081,23.8585732 L11.8233081,23.7143994 L12.0037007,22.8917932 L12.1584205,22.1562353 L12.1842299,22.017366 L12.2254703,21.8889698 L12.2718999,21.7654701 L12.3389496,21.6523073 L12.3698117,21.5957259 L12.4162413,21.5494815 L12.4626708,21.5082696 L12.5245314,21.4773947 L12.5813394,21.4466558 L12.6534418,21.4259818 L12.7256808,21.4106123 L12.8132142,21.4106123 L12.9008842,21.4157808 L12.9783124,21.4414873 L13.040173,21.4671937 L13.0968444,21.5134381 L13.1328956,21.5598185 L13.1689468,21.6266009 L13.1845144,21.6985517 L13.1947562,21.786008 L13.1845144,21.8734644 L13.1689468,21.9814586 L13.1483266,22.0996539 L13.1226538,22.2281861 L12.7204916,24.1258386 L13.9217889,24.1258386 L13.9114105,24.1001321 L13.9062213,24.0640887 L13.9011687,24.0230128 L13.9011687,23.9766324 L13.8959795,23.920323 L13.8959795,23.8532687 L13.8959795,23.7813178 L13.9011687,23.7043345 L14.0455101,23.0356949 L14.1640421,22.4803541 Z" id="Fill-15" fill="#040000"></path>
                <path d="M16.6335363,21.4209085 L16.6335363,21.4209085 L16.6643983,21.4311095 L16.7315846,21.4311095 L16.7986344,21.4414465 L16.8603585,21.4568159 L16.9170299,21.4826584 L16.963596,21.5083648 L17.009889,21.5442722 L17.0460768,21.5803157 L17.082128,21.6266961 L17.1079374,21.6729405 L17.1285576,21.7295219 L17.1439886,21.7859672 L17.1594196,21.8580541 L17.1594196,21.9248364 L17.1594196,22.0019558 L17.154367,22.0842436 L17.1491778,22.1768684 L15.8395903,22.1768684 L15.860074,22.0071243 L15.8809673,21.9300049 L15.9118293,21.8632226 L15.9788791,21.7397228 L16.0201195,21.6831415 L16.0716017,21.6368971 L16.1747027,21.5494407 L16.2366999,21.5133973 L16.3086657,21.4876909 L16.4581963,21.4414465 L16.5406771,21.425941 L16.6335363,21.4209085 Z M15.1486088,21.446615 L15.0404552,21.6008536 L14.9477326,21.7550923 L14.870441,21.909467 L14.8137696,22.0739066 L14.7621508,22.2282813 L14.7311522,22.38252 L14.7157212,22.5368947 L14.7157212,22.7013343 L14.7209104,22.855709 L14.725963,22.9276598 L14.7415306,23.0047792 L14.7723926,23.1489529 L14.8188222,23.2878221 L14.8754936,23.4162183 L14.9527852,23.539582 L15.0404552,23.6527448 L15.1436927,23.7659075 L15.2518464,23.8585324 L15.3807568,23.9459887 L15.519909,24.0179395 L15.5921479,24.0486784 L15.6747653,24.0847219 L15.8345377,24.1311023 L16.0149303,24.1720422 L16.2055647,24.1928522 L16.3036131,24.1978846 L16.4119033,24.2083576 L16.535761,24.2030531 L16.6749132,24.2030531 L16.8139289,24.1928522 L16.963596,24.1826512 L17.11299,24.1618412 L17.2780882,24.1414393 L17.4430498,24.1155968 L17.6235789,24.0898904 L17.9533656,23.4264193 L17.731596,23.4624627 L17.628495,23.4779682 L17.535909,23.4986421 L17.4378606,23.5088431 L17.3503272,23.5240765 L17.185229,23.5447505 L17.0306458,23.5550875 L16.8964097,23.5652885 L16.772825,23.5652885 L16.6749132,23.5652885 L16.5562447,23.549919 L16.4531437,23.5346856 L16.3550953,23.5138756 L16.2675619,23.4933376 L16.1798919,23.4574302 L16.1077895,23.4264193 L16.0407397,23.3854794 L15.9840683,23.3442674 L15.9272603,23.2928546 L15.8858834,23.2413057 L15.8447795,23.1796918 L15.8189701,23.1179419 L15.7931607,23.0459911 L15.7827824,22.9740402 L15.7725405,22.8917524 L15.7778663,22.8093286 L18.1287055,22.8093286 L18.1957553,22.2951997 L18.1957553,22.1923739 L18.2010811,22.0997491 L18.1907027,21.919804 L18.1648933,21.7500598 L18.1287055,21.6008536 L18.066845,21.4619844 L18.0307937,21.3952021 L17.9947425,21.3386207 L17.9483129,21.2768708 L17.9018834,21.2254579 L17.7987824,21.1278006 L17.6749246,21.0403443 L17.55134,20.963225 L17.422293,20.8963066 L17.28833,20.8501982 L17.1439886,20.8089863 L16.994458,20.7832799 L16.8397383,20.7677744 L16.6852916,20.7677744 L16.4170925,20.7832799 L16.1747027,20.8243558 L16.0560341,20.8450297 L15.9478805,20.8757687 L15.8447795,20.9118121 L15.7519203,20.9581925 L15.653872,20.9992684 L15.5663385,21.0506813 L15.4065661,21.1637081 L15.2620882,21.2923763 L15.2003642,21.3643271 L15.1486088,21.446615 Z" id="Fill-17" fill="#040000"></path>
                <path d="M20.4746834,20.0221379 L19.1340973,20.3871966 L19.1446122,20.4027021 L19.1548541,20.4387455 L19.1599067,20.4746529 L19.1701485,20.5312343 L19.1701485,20.5878157 L19.1754743,20.664935 L19.1754743,20.7420543 L19.1754743,20.8397116 L18.9897559,21.7346768 L18.6598327,23.292841 L18.479167,24.1259202 L19.7114629,24.1259202 L19.7012211,24.1002137 L19.6909792,24.0694748 L19.6807374,24.0334314 L19.6807374,23.986915 L19.6754117,23.9304696 L19.6754117,23.8635512 L19.6754117,23.7916004 L19.6807374,23.714345 L19.8198896,23.0561784 L20.0415226,22.0224801 L20.155002,21.4929818 L21.0416706,21.4929818 L21.1500973,20.8295107 L20.2940176,20.8295107 L20.4746834,20.0221379 Z" id="Fill-19" fill="#040000"></path>
                <path d="M21.5677178,20.8294699 L21.5779596,20.8449753 L21.588338,20.8706818 L21.5933906,20.9065892 L21.6036324,20.9631706 L21.6036324,21.019752 L21.6089582,21.0968713 L21.6036324,21.1843276 L21.6036324,21.2819849 L21.428429,22.0996947 L21.1447989,23.4265009 L20.9902156,24.1258794 L22.2225115,24.1258794 L22.206944,24.1103739 L22.1967021,24.0846675 L22.1864603,24.04876 L22.1864603,24.0025156 L22.1811346,23.9460703 L22.1811346,23.8790159 L22.1811346,23.8018966 L22.1913764,23.7144402 L22.3564745,22.9327739 L22.4957633,22.2489009 L22.5162469,22.1357381 L22.547109,22.0329123 L22.6141587,21.8529672 L22.6915869,21.703761 L22.7328273,21.6368427 L22.7844461,21.5855658 L22.8823579,21.4981095 L22.9339767,21.46193 L22.9957007,21.4413921 L23.0523721,21.4208541 L23.1194219,21.4158216 L23.2585741,21.4208541 L23.356759,21.4311911 L23.4494817,21.4465606 L23.5370151,21.4672345 L23.6196324,21.4981095 L23.6918714,21.5238159 L23.7589212,21.5598593 L23.8205087,21.5957667 L23.8773166,21.6420111 L24.2382384,20.9271272 L24.0424148,20.8449753 L23.944503,20.8089319 L23.8516438,20.788394 L23.6556836,20.757519 L23.45986,20.747182 L22.6863977,20.8294699 L21.5677178,20.8294699 Z" id="Fill-21" fill="#040000"></path>
                <path d="M25.1147607,22.7013887 L25.1147607,22.7013887 L25.1147607,22.578025 L25.1301917,22.4648622 L25.1764848,22.2437052 L25.2540495,22.0328851 L25.3725815,21.832266 L25.4344421,21.7346088 L25.5066811,21.6523209 L25.5787835,21.5802341 L25.6612643,21.5237887 L25.7437451,21.4774083 L25.8366043,21.4415009 L25.9293269,21.4157944 L26.0325644,21.4106259 L26.1767693,21.4363324 L26.2438191,21.4568703 L26.3110054,21.4877453 L26.3676768,21.5134517 L26.419159,21.5493591 L26.4655886,21.5905711 L26.5120182,21.64212 L26.5428802,21.6883644 L26.5738788,21.7449457 L26.5995516,21.8015271 L26.625361,21.8683095 L26.6409286,21.9350918 L26.6564962,22.0122112 L26.6615488,22.0894665 L26.666738,22.1769228 L26.6564962,22.2540422 L26.6511704,22.336194 L26.6356028,22.4904326 L26.625361,22.5214436 L26.6203084,22.5369491 L26.6203084,22.557351 L26.6100666,22.6294379 L26.5995516,22.6603128 L26.594499,22.6756823 L26.594499,22.6963562 L26.5842572,22.7683071 L26.563637,22.8247524 L26.5480694,22.8866383 L26.5069656,23.0046975 L26.491398,23.0253715 L26.4811562,23.051078 L26.460536,23.1024908 L26.4089172,23.2002841 L26.3470566,23.2772675 L26.3262999,23.2927729 L26.3110054,23.3133109 L26.2798703,23.3545228 L26.2079044,23.4112402 L26.1356654,23.4676856 L26.1200979,23.4676856 L26.1097195,23.4728541 L26.0892358,23.4831911 L26.048132,23.503593 L26.0325644,23.503593 L26.0221861,23.5088975 L26.0017024,23.5190985 L25.9603255,23.5396364 L25.8674663,23.5603104 L25.8159841,23.5653429 L25.7695545,23.5755438 L25.7593127,23.5755438 L25.6818845,23.5653429 L25.6097821,23.5498374 L25.5428688,23.5292994 L25.4859243,23.503593 L25.4292529,23.4676856 L25.3777707,23.4264737 L25.2899642,23.3339849 L25.2126725,23.2103491 L25.1818105,23.1383983 L25.1611903,23.0665834 L25.1250026,22.8918068 L25.1147607,22.799182 L25.1147607,22.7013887 Z M24.5425844,21.3026317 L24.4032956,21.4363324 L24.2899528,21.5855386 L24.1919044,21.7449457 L24.1146128,21.9146899 L24.047563,22.094635 L24.0011334,22.2847811 L23.9701349,22.4854002 L23.9650822,22.7013887 L23.9650822,22.8556274 L23.9803767,23.0046975 L24.0115118,23.1488713 L24.0578048,23.2877405 L24.0785616,23.3494903 L24.1094236,23.4162727 L24.1816626,23.5396364 L24.2641434,23.6527992 L24.3620552,23.7659619 L24.4083482,23.8120703 L24.4650196,23.8585868 L24.5940666,23.9460431 L24.7332188,24.0179939 L24.8931277,24.0846403 L25.063142,24.1311567 L25.2540495,24.1720966 L25.4550623,24.1927705 L25.5633525,24.197803 L25.6818845,24.208276 L25.7335033,24.2031075 L25.7901747,24.2031075 L25.9035175,24.197803 L26.0119442,24.1876021 L26.1252871,24.1772651 L26.2285246,24.1568631 L26.3316256,24.1361892 L26.3521092,24.1258522 L26.3624876,24.1208197 L26.3780552,24.1208197 L26.4294009,24.1104827 L26.5325018,24.0899448 L26.5738788,24.0694068 L26.594499,24.0592058 L26.6047408,24.0539013 L26.6203084,24.0539013 L26.7131676,24.0179939 L26.800701,23.976646 L26.8418048,23.956244 L26.8626982,23.9460431 L26.87294,23.9407386 L26.8882344,23.9407386 L26.9657991,23.8893257 L27.0481434,23.8430813 L27.0841946,23.8120703 L27.1255716,23.7863639 L27.2081889,23.735087 L27.2390509,23.6990436 L27.2751021,23.6681686 L27.3421519,23.6065548 L27.3988233,23.5346039 L27.4608205,23.4623811 L27.5071135,23.3802293 L27.5585957,23.2978054 L27.5996996,23.2103491 L27.6205929,23.1643767 L27.6461292,23.1231648 L27.6772643,23.020203 L27.7081263,22.9225457 L27.7183681,22.8659644 L27.7339357,22.8145515 L27.7596085,22.7117257 L27.7647977,22.6499758 L27.7750395,22.5933944 L27.7906071,22.4803677 L27.7956597,22.3568679 L27.8059016,22.2386727 L27.7956597,22.0791295 L27.7750395,21.9350918 L27.7389883,21.7911901 L27.6977479,21.6625219 L27.6308347,21.5289572 L27.5585957,21.4106259 L27.4710623,21.2974632 L27.3730139,21.1946374 L27.2543454,21.0968441 L27.1255716,21.0095238 L27.0533326,20.9684479 L26.9810936,20.9375729 L26.831563,20.8809916 L26.7440296,20.8501166 L26.6615488,20.8294427 L26.4860723,20.7935352 L26.388297,20.7780298 L26.2954378,20.7728613 L26.0942885,20.7678288 L25.8521718,20.7728613 L25.7335033,20.7833343 L25.6250765,20.8037362 L25.5117337,20.8192417 L25.4086327,20.8449481 L25.3055317,20.8706546 L25.2126725,20.906698 L25.0220381,20.9786489 L24.9291789,21.0198608 L24.8465616,21.0711376 L24.6867892,21.1740994 L24.5425844,21.3026317 Z" id="Fill-23" fill="#040000"></path>
                <path d="M21.345798,26.4843165 L21.005633,26.4843165 L20.7427596,27.7749432 L21.0726828,27.7749432 L21.345798,26.4843165 Z" id="Fill-25" fill="#040000"></path>
                <path d="M21.5468324,25.9441547 L21.1383726,25.9441547 L21.0468324,26.4441547 L21.4614272,26.4441547 L21.5468324,25.9441547 Z" id="Fill-27" fill="#040000"></path>
                <path d="M17.7575693,26.4843165 L17.4120785,26.4843165 L17.1438794,27.7749432 L17.4740757,27.7749432 L17.7575693,26.4843165 Z" id="Fill-29" fill="#040000"></path>
                <path d="M18.5051266,27.5436396 L18.5051266,27.5436396 L18.4637496,27.5281342 L18.4328876,27.5179332 L18.3762162,27.4869222 L18.3297866,27.4510148 L18.3039772,27.4047704 L18.2886828,27.3740315 L18.283357,27.3483251 L18.2783044,27.2865752 L18.283357,27.2144883 L18.3091664,27.137505 L18.324734,27.0500487 L18.3504068,26.9727933 L18.3814054,26.905875 L18.427835,26.8494296 L18.4739915,26.7980167 L18.5359886,26.7621093 L18.6030384,26.7310984 L18.6856558,26.7155929 L18.7423272,26.7310984 L18.7989986,26.7621093 L18.8351863,26.7980167 L18.8712376,26.8494296 L18.8868051,26.905875 L18.8917212,26.9727933 L18.8868051,27.0500487 L18.8761536,27.137505 L18.85567,27.2144883 L18.8299972,27.2865752 L18.7938094,27.3483251 L18.7730526,27.3740315 L18.7577582,27.4047704 L18.7267596,27.4253084 L18.7113286,27.4357814 L18.7010868,27.4510148 L18.6700882,27.4665203 L18.6444154,27.4869222 L18.577229,27.5179332 L18.5051266,27.5436396 Z M18.4226458,26.4843709 L18.1080171,26.4843709 L17.7266117,28.2945671 L18.0513457,28.2945671 L18.2008762,27.620759 L18.2677895,27.7030468 L18.3504068,27.7646607 L18.4382134,27.7956716 L18.489559,27.8007041 L18.5413144,27.8007041 L18.5721764,27.7905031 L18.577229,27.7854706 L18.5876074,27.7854706 L18.6082276,27.7854706 L18.6390896,27.7749976 L18.6444154,27.7699652 L18.6546572,27.7699652 L18.6752774,27.7699652 L18.737138,27.7492912 L18.7989986,27.7287532 L18.8506174,27.6980143 L18.9020996,27.6670034 L18.9225832,27.6466014 L18.9330982,27.6361284 L18.9381508,27.631096 L18.9485292,27.631096 L19.0001479,27.5950525 L19.0001479,27.5848516 L19.0052006,27.5795471 L19.0154424,27.5693461 L19.0361991,27.5486721 L19.0774395,27.5024277 L19.1083016,27.4459824 L19.1443528,27.3945695 L19.164973,27.3328196 L19.1907824,27.2710697 L19.1907824,27.2503957 L19.1907824,27.2401948 L19.1961081,27.2350263 L19.2063499,27.2042874 L19.2269701,27.137505 L19.2475903,26.9882988 L19.2475903,26.8597666 L19.2372119,26.7980167 L19.2269701,26.7466038 L19.1961081,26.6591475 L19.134111,26.5818922 L19.0514936,26.5254468 L19.0001479,26.4997404 L18.9485292,26.4843709 L18.8917212,26.4688654 L18.8351863,26.4638329 L18.7577582,26.4638329 L18.690845,26.4740339 L18.5721764,26.5152458 L18.5153684,26.5409523 L18.4690754,26.5769957 L18.3917838,26.664316 L18.3814054,26.664316 L18.4226458,26.4843709 Z" id="Fill-31" fill="#040000"></path>
                <path d="M17.96367,25.9441547 L17.5510583,25.9441547 L17.46367,26.4441547 L17.88224,26.4441547 L17.96367,25.9441547 Z" id="Fill-33" fill="#040000"></path>
                <path d="M16.5149633,27.4407459 L16.5149633,27.4407459 L16.4841013,27.4614198 L16.4685337,27.4717568 L16.4582919,27.4869903 L16.3964313,27.5282022 L16.3603801,27.5384031 L16.3293815,27.5539086 L16.3087613,27.5539086 L16.2985195,27.5539086 L16.2931937,27.5539086 L16.2931937,27.5590771 L16.2623317,27.5694141 L16.2109861,27.5642456 L16.1694725,27.5590771 L16.1334213,27.5437076 L16.1128011,27.5282022 L16.0923175,27.5023597 L16.0819391,27.4767893 L16.0767499,27.4407459 L16.0819391,27.4100069 L16.1076119,27.3430886 L16.1489889,27.2968442 L16.1902293,27.2504638 L16.2418481,27.2248933 L16.2931937,27.1991869 L16.3551909,27.1836814 L16.4170515,27.1785129 L16.4943431,27.1887139 L16.6386845,27.1887139 L16.6180643,27.2556322 L16.6026333,27.2866432 L16.5922549,27.3225506 L16.5560671,27.3843005 L16.5149633,27.4407459 Z M16.829592,27.7749296 L16.9791226,27.0191058 L16.9893644,26.9471549 L16.9944171,26.8802365 L16.9944171,26.8184867 L16.9944171,26.7670738 L16.9841752,26.7104924 L16.9739334,26.664384 L16.9533132,26.6230361 L16.932693,26.5921611 L16.8965053,26.5562537 L16.8604541,26.5305473 L16.8192137,26.5047048 L16.7779733,26.4894714 L16.726491,26.4741019 L16.6696831,26.4637649 L16.6078225,26.4585964 L16.5459619,26.4637649 L16.4221041,26.4687974 L16.3087613,26.4843029 L16.1954185,26.5100093 L16.0819391,26.5562537 L16.0303203,26.8391606 L16.1231795,26.7772748 L16.2262805,26.7363349 L16.3345707,26.7053239 L16.4480501,26.6951229 L16.5149633,26.6898184 L16.5716347,26.7053239 L16.6127385,26.7208294 L16.6489263,26.7567368 L16.6644939,26.7927802 L16.6800615,26.8494976 L16.6748723,26.9111115 L16.6696831,26.9883668 L16.4943431,26.9883668 L16.3810003,26.9830623 L16.2676575,26.9985678 L16.1540415,27.0244103 L16.0509405,27.0603177 L15.9426504,27.1117306 L15.8963573,27.1424695 L15.8601696,27.1887139 L15.8190657,27.2350943 L15.7879306,27.2916757 L15.7416376,27.4202079 L15.7364484,27.4614198 L15.7416376,27.5023597 L15.7570686,27.5796151 L15.782878,27.6413649 L15.798309,27.6670714 L15.8241183,27.6980823 L15.844602,27.7133158 L15.8757371,27.7339897 L15.9426504,27.7700332 L15.9788381,27.7749296 L16.0252677,27.7855386 L16.1231795,27.8007721 L16.1798509,27.7904351 L16.2418481,27.7802341 L16.2931937,27.7647287 L16.3551909,27.7443267 L16.4065366,27.7133158 L16.4324825,27.6929138 L16.4634811,27.6772723 L16.5149633,27.6361964 L16.5665821,27.589816 L16.5459619,27.7749296 L16.829592,27.7749296 Z" id="Fill-35" fill="#040000"></path>
                <path d="M20.3199636,27.0191058 L20.3199636,27.0191058 L19.7528398,27.0191058 L19.7733235,26.9418504 L19.8044586,26.8802365 L19.8353206,26.8237912 L19.8817502,26.7824432 L19.9228541,26.7465358 L19.9795255,26.7208294 L20.0361969,26.7002914 L20.1085724,26.6951229 L20.1652438,26.7002914 L20.2168626,26.7208294 L20.2530504,26.7465358 L20.2891016,26.7877477 L20.304396,26.8288237 L20.3199636,26.885405 L20.3250162,26.9418504 L20.3199636,27.0191058 Z M19.7115994,27.2299258 L20.582837,27.2299258 L20.5984046,27.137437 L20.6138356,27.0550132 L20.6190248,26.9778938 L20.6240774,26.9111115 L20.6190248,26.8391606 L20.6087829,26.7824432 L20.5932154,26.7259979 L20.5725952,26.6796175 L20.5364074,26.6282046 L20.5003562,26.5871287 L20.4539266,26.5512213 L20.407497,26.5253788 L20.3508256,26.4996723 L20.2891016,26.4843029 L20.2168626,26.4687974 L20.1446236,26.4637649 L19.995093,26.4789984 L19.9228541,26.4945039 L19.8609935,26.5202103 L19.7424615,26.5769277 L19.6445496,26.6590795 L19.5567431,26.7518403 L19.5156393,26.8029812 L19.4847772,26.8647311 L19.4278327,26.9933993 L19.3919181,27.147774 L19.3764871,27.2197248 L19.3711613,27.2916757 L19.3711613,27.358594 L19.3815397,27.4252404 L19.3919181,27.4819578 L19.4125383,27.5384031 L19.4331585,27.5849196 L19.4692097,27.631028 L19.5000717,27.6670714 L19.5466378,27.7029788 L19.5929309,27.7288213 L19.6497388,27.7545277 L19.7064102,27.7700332 L19.7785127,27.7855386 L19.8507516,27.7904351 L19.9330959,27.8007721 L20.0569536,27.7904351 L20.1137616,27.7802341 L20.1754856,27.7749296 L20.2891016,27.7390222 L20.3405838,27.7184843 L20.3663932,27.7082833 L20.3972552,27.7029788 L20.448874,27.4305449 L20.4178754,27.4407459 L20.407497,27.4407459 L20.4025809,27.4407459 L20.4025809,27.4460504 L20.3919294,27.4562513 L20.3405838,27.4819578 L20.2839124,27.5023597 L20.232157,27.5282022 L20.1188142,27.5539086 L20.0053349,27.5694141 L19.9281798,27.5539086 L19.8609935,27.5384031 L19.8044586,27.5126967 L19.7682708,27.4767893 L19.7322196,27.4305449 L19.7166521,27.3740995 L19.7064102,27.3379201 L19.7064102,27.3071812 L19.7115994,27.2299258 Z" id="Fill-37" fill="#040000"></path>
                <path d="M14.8805872,26.2117738 L15.375472,26.2117738 L15.0456853,27.7749704 L15.3858504,27.7749704 L15.7209627,26.2117738 L16.2314151,26.2117738 L16.2828973,25.9441003 L14.9424478,25.9441003 L14.8805872,26.2117738 Z" id="Fill-39" fill="#040000"></path>
                <mask id="mask-6" fill="white">
                    <use xlink:href="#path-5"></use>
                </mask>
                <g id="Clip-42"></g>
                <path d="M45.8811721,17.2242702 L47.6341622,17.2242702 L47.6341622,16.559847 L45.8811721,16.559847 L45.8811721,17.2242702 Z M45.8811721,15.045615 L47.6341622,15.045615 L47.6341622,14.4429416 L45.8811721,14.4429416 L45.8811721,15.045615 Z M44.1901792,10.7656959 L44.1901792,9.97763696 L45.8811721,9.97763696 L45.8811721,10.7656959 L49.7595448,10.7656959 L49.7595448,12.3416778 L45.8811721,12.3416778 L45.8811721,12.9442151 L49.2784523,12.9442151 L49.2784523,15.045615 L49.9455363,15.045615 L49.9455363,16.559847 L49.2784523,16.559847 L49.2784523,18.7385022 L45.8811721,18.7385022 L45.8811721,19.5110557 L49.154458,19.5110557 L49.154458,21.0252877 L45.8811721,21.0252877 L45.8811721,22.0142377 C46.5792546,22.0759876 47.401468,22.1068626 48.3322447,22.1068626 C48.8286316,22.1068626 49.3715846,22.0759876 49.9455363,21.9987323 L49.4491494,23.7447303 L48.3322447,23.7447303 C46.0828677,23.7447303 44.4850071,23.5747142 43.5386629,23.2503233 C42.8250128,23.0339267 42.2356302,22.7712857 41.7702418,22.4467589 C41.4909815,23.0030518 41.2117212,23.4974588 40.9168933,23.930252 L39.3965974,22.7712857 C39.7845576,22.2613733 40.1258151,21.6743414 40.4205064,20.9944128 C40.7307653,20.3299896 40.979027,19.6965773 41.1495875,19.093904 L42.8561479,19.5729416 C42.7320171,20.0209682 42.5923186,20.4536253 42.4373257,20.870913 C42.8250128,21.1797984 43.2749701,21.4269339 43.8024922,21.6124555 C43.9110555,21.6743414 44.0350498,21.7050803 44.1901792,21.7360913 L44.1901792,18.7385022 L41.2117212,18.7385022 L41.2117212,17.2242702 L44.1901792,17.2242702 L44.1901792,16.559847 L40.6066344,16.559847 L40.6066344,15.045615 L44.1901792,15.045615 L44.1901792,14.4430777 L41.3358521,14.4430777 L41.3358521,12.9442151 L44.1901792,12.9442151 L44.1901792,12.3416778 L40.6687681,12.3416778 L40.6687681,10.7656959 L44.1901792,10.7656959 Z M37.5196131,12.3416778 L37.5196131,9.97763696 L39.1484723,9.97763696 L39.1484723,12.3416778 L40.6066344,12.3416778 L40.6066344,13.9640401 L39.1484723,13.9640401 L39.1484723,16.1735702 C39.5052973,16.0499345 39.8465548,15.9109293 40.1878122,15.771924 L40.4205064,17.2242702 C39.9861166,17.4715417 39.5672945,17.6878023 39.1484723,17.8731879 L39.1484723,21.7514608 C39.1484723,22.5705307 39.039909,23.1265515 38.8226458,23.4203395 C38.5433855,23.7602358 38.0779972,23.930252 37.3954822,23.930252 C36.97666,23.930252 36.5886999,23.8838716 36.2474424,23.8066162 L35.9371835,22.1068626 C36.3405747,22.2304983 36.7439659,22.2923842 37.1472205,22.2923842 C37.3024865,22.2923842 37.3954822,22.2304983 37.4419118,22.1068626 C37.488478,21.9368464 37.5196131,21.6743414 37.5196131,21.3343091 L37.5196131,18.5531166 C37.1782191,18.6767523 36.8525292,18.8002521 36.5422703,18.9085184 L35.9371835,17.1625203 C36.4802731,17.0233791 37.0076586,16.8688684 37.5196131,16.7143577 L37.5196131,13.9640401 L35.9371835,13.9640401 L35.9371835,12.3416778 L37.5196131,12.3416778 Z" id="Fill-41" fill="#000000" mask="url(#mask-6)"></path>
                <path d="M60.9762504,17.5332916 L62.5431124,17.5332916 L62.5431124,17.1006344 L60.9762504,17.1006344 L60.9762504,17.5332916 Z M60.9762504,15.8336739 L62.5431124,15.8336739 L62.5431124,15.4165222 L60.9762504,15.4165222 L60.9762504,15.8336739 Z M60.9762504,12.2797919 L63.5824523,12.2797919 L63.5824523,11.6772546 L60.9762504,11.6772546 L60.9762504,12.2797919 Z M57.7029644,17.5332916 L59.3318236,17.5332916 L59.3318236,17.1006344 L57.7029644,17.1006344 L57.7029644,17.5332916 Z M57.7029644,15.8335379 L59.3318236,15.8335379 L59.3318236,15.4163862 L57.7029644,15.4163862 L57.7029644,15.8335379 Z M56.8497525,12.2797919 L59.3318236,12.2797919 L59.3318236,11.6772546 L56.8497525,11.6772546 L56.8497525,12.2797919 Z M65.1493144,12.8207154 L63.8151465,12.8207154 L63.8151465,13.6705242 L60.9762504,13.6705242 L60.9762504,14.0876759 L64.1254054,14.0876759 L64.1254054,18.862138 L60.9762504,18.862138 L60.9762504,19.4648113 L64.7926259,19.4648113 L64.7926259,20.8399021 L60.9762504,20.8399021 L60.9762504,21.6897109 L59.3318236,21.6897109 L59.3318236,20.8399021 L55.5777183,20.8399021 L55.5777183,19.4648113 L59.3318236,19.4648113 L59.3318236,18.862138 L56.1206714,18.862138 L56.1206714,14.0876759 L59.3318236,14.0876759 L59.3318236,13.6705242 L56.3687966,13.6705242 L56.3687966,12.8207154 L55.2674595,12.8207154 L55.2674595,11.5846298 L54.2435505,12.8824652 C53.6540313,12.218042 53.0490811,11.6463797 52.4285633,11.1828476 L53.5764666,9.97763696 C54.1969844,10.3794192 54.755505,10.8119403 55.2674595,11.3064833 L55.2674595,10.2249085 L65.1493144,10.2249085 L65.1493144,12.8207154 Z M54.8485007,16.3127115 L54.8485007,20.9635378 C55.5001536,21.4425754 56.2448023,21.7050803 57.0980142,21.7669662 C57.718532,21.890602 59.285394,21.9368464 61.7830327,21.9368464 C63.2101963,21.9368464 64.4356643,21.8442216 65.4595733,21.627961 C65.1181792,22.2460038 64.854623,22.8949215 64.6683585,23.6210946 L60.154037,23.6210946 C58.5251778,23.6210946 57.2220085,23.4974588 56.2448023,23.2503233 C55.5467198,23.0648017 54.8642048,22.6786609 54.1815533,22.1068626 C53.6540313,22.7095359 53.1420768,23.3120732 52.6146913,23.930252 C52.2268677,23.2965677 51.8390441,22.7095359 51.4510839,22.1687484 C52.0251721,21.890602 52.5992603,21.5815806 53.1576444,21.2725592 L53.1576444,18.0123291 L51.4510839,18.0123291 L51.4510839,16.3127115 L54.8485007,16.3127115 Z M54.4918122,13.9640401 L53.3282048,15.4163862 C52.7232546,14.7520991 52.1027368,14.1804367 51.4510839,13.7167686 L52.6146913,12.511694 C53.2972063,12.9288456 53.9178606,13.4077472 54.4918122,13.9640401 L54.4918122,13.9640401 Z" id="Fill-43" fill="#000000" mask="url(#mask-6)"></path>
                <path d="M74.9699915,21.627961 L78.8482276,21.627961 L78.8482276,18.4294808 L74.9699915,18.4294808 L74.9699915,21.627961 Z M77.3900654,9.97763696 L77.3900654,12.8207154 L80.9736102,12.8207154 L80.9736102,14.5665774 L77.3900654,14.5665774 L77.3900654,16.7452326 L80.6012176,16.7452326 L80.6012176,23.8683661 L78.8482276,23.8683661 L78.8482276,23.3275787 L74.9699915,23.3275787 L74.9699915,23.8683661 L73.2170014,23.8683661 L73.2170014,16.7452326 L75.512808,16.7452326 L75.512808,9.97763696 L77.3900654,9.97763696 Z M69.5714595,19.8200771 L67.8183329,20.2989786 C67.6786344,18.2749701 67.4305092,16.3899668 67.0892518,14.6284633 L68.7802447,14.2113116 C69.1680683,16.06544 69.431761,17.9350738 69.5714595,19.8200771 L69.5714595,19.8200771 Z M72.5499175,14.4430777 C72.3326543,16.6062274 72.037963,18.5376111 71.681138,20.2682397 C72.053394,20.2063538 72.4103556,20.1446039 72.720478,20.0672126 L72.9687397,21.627961 C71.2623158,22.122368 69.3851949,22.5086448 67.337377,22.8330356 L66.9651209,20.9635378 C68.051027,20.8399021 69.059505,20.7162663 69.9592831,20.5771251 C70.3315391,18.4449863 70.5952319,16.2817005 70.7813599,14.0876759 L72.5499175,14.4430777 Z M70.9054908,9.97763696 L70.9054908,11.9707705 L73.2789986,11.9707705 L73.2789986,13.6705242 L66.9651209,13.6705242 L66.9651209,11.9707705 L69.1525007,11.9707705 L69.1525007,9.97763696 L70.9054908,9.97763696 Z" id="Fill-44" fill="#000000" mask="url(#mask-6)"></path>
            </g>
        </g>
    </g>
</svg>