<?xml version="1.0" encoding="UTF-8" standalone="no"?>
<svg width="34px" height="42px" viewBox="0 0 34 42" version="1.1" xmlns="http://www.w3.org/2000/svg" xmlns:xlink="http://www.w3.org/1999/xlink">
    <!-- Generator: Sketch 3.6.1 (26313) - http://www.bohemiancoding.com/sketch -->
    <title>Page 1</title>
    <desc>Created with Sketch.</desc>
    <defs>
        <path id="path-1" d="M16.815,0.667 C7.529,0.667 0,8.195 0,17.481 C0,21.9 1.706,25.918 4.494,28.919 L4.486,28.927 L4.807,29.247 C4.887,29.329 4.967,29.409 5.048,29.489 L16.815,42 L28.58,29.489 C28.661,29.409 28.742,29.329 28.822,29.247 L29.143,28.927 L29.135,28.919 C31.922,25.918 33.629,21.9 33.629,17.481 C33.629,8.195 26.1,0.667 16.815,0.667 L16.815,0.667 Z"></path>
    </defs>
    <g id="Page-1" stroke="none" stroke-width="1" fill="none" fill-rule="evenodd">
        <g id="Desktop-Landscape" transform="translate(-1202.000000, -1442.000000)">
            <g id="Page-1" transform="translate(1202.000000, 1441.000000)">
                <g id="Group-55" transform="translate(0.000000, 0.332900)">
                    <mask id="mask-2" fill="white">
                        <use xlink:href="#path-1"></use>
                    </mask>
                    <g id="Clip-2"></g>
                    <path d="M0,2.089 L33.629,2.089 L33.629,0.667 L0,0.667 L0,2.089 Z" id="Fill-1" fill="#006CB7" mask="url(#mask-2)"></path>
                    <path d="M0,2.852 L33.629,2.852 L33.629,2.089 L0,2.089 L0,2.852 Z" id="Fill-3" fill="#006CB7" mask="url(#mask-2)"></path>
                    <path d="M0,3.616 L33.629,3.616 L33.629,2.853 L0,2.853 L0,3.616 Z" id="Fill-4" fill="#006CB8" mask="url(#mask-2)"></path>
                    <path d="M0,4.379 L33.629,4.379 L33.629,3.616 L0,3.616 L0,4.379 Z" id="Fill-5" fill="#006DB8" mask="url(#mask-2)"></path>
                    <path d="M0,5.142 L33.629,5.142 L33.629,4.379 L0,4.379 L0,5.142 Z" id="Fill-6" fill="#006EB8" mask="url(#mask-2)"></path>
                    <path d="M0,5.905 L33.629,5.905 L33.629,5.142 L0,5.142 L0,5.905 Z" id="Fill-7" fill="#006EB9" mask="url(#mask-2)"></path>
                    <path d="M0,6.668 L33.629,6.668 L33.629,5.905 L0,5.905 L0,6.668 Z" id="Fill-8" fill="#006FB9" mask="url(#mask-2)"></path>
                    <path d="M0,7.431 L33.629,7.431 L33.629,6.668 L0,6.668 L0,7.431 Z" id="Fill-9" fill="#0070BA" mask="url(#mask-2)"></path>
                    <path d="M0,8.194 L33.629,8.194 L33.629,7.431 L0,7.431 L0,8.194 Z" id="Fill-10" fill="#0070BA" mask="url(#mask-2)"></path>
                    <path d="M0,8.957 L33.629,8.957 L33.629,8.194 L0,8.194 L0,8.957 Z" id="Fill-11" fill="#0071BB" mask="url(#mask-2)"></path>
                    <path d="M0,9.721 L33.629,9.721 L33.629,8.958 L0,8.958 L0,9.721 Z" id="Fill-12" fill="#0071BB" mask="url(#mask-2)"></path>
                    <path d="M0,10.484 L33.629,10.484 L33.629,9.721 L0,9.721 L0,10.484 Z" id="Fill-13" fill="#0072BC" mask="url(#mask-2)"></path>
                    <path d="M0,11.247 L33.629,11.247 L33.629,10.484 L0,10.484 L0,11.247 Z" id="Fill-14" fill="#0073BC" mask="url(#mask-2)"></path>
                    <path d="M0,12.01 L33.629,12.01 L33.629,11.247 L0,11.247 L0,12.01 Z" id="Fill-15" fill="#0073BD" mask="url(#mask-2)"></path>
                    <path d="M0,12.773 L33.629,12.773 L33.629,12.01 L0,12.01 L0,12.773 Z" id="Fill-16" fill="#0074BD" mask="url(#mask-2)"></path>
                    <path d="M0,13.536 L33.629,13.536 L33.629,12.773 L0,12.773 L0,13.536 Z" id="Fill-17" fill="#0075BE" mask="url(#mask-2)"></path>
                    <path d="M0,14.299 L33.629,14.299 L33.629,13.536 L0,13.536 L0,14.299 Z" id="Fill-18" fill="#0075BE" mask="url(#mask-2)"></path>
                    <path d="M0,15.062 L33.629,15.062 L33.629,14.299 L0,14.299 L0,15.062 Z" id="Fill-19" fill="#0076BE" mask="url(#mask-2)"></path>
                    <path d="M0,15.826 L33.629,15.826 L33.629,15.063 L0,15.063 L0,15.826 Z" id="Fill-20" fill="#0076BF" mask="url(#mask-2)"></path>
                    <path d="M0,16.589 L33.629,16.589 L33.629,15.826 L0,15.826 L0,16.589 Z" id="Fill-21" fill="#0077BF" mask="url(#mask-2)"></path>
                    <path d="M0,17.352 L33.629,17.352 L33.629,16.589 L0,16.589 L0,17.352 Z" id="Fill-22" fill="#0078C0" mask="url(#mask-2)"></path>
                    <path d="M0,18.115 L33.629,18.115 L33.629,17.352 L0,17.352 L0,18.115 Z" id="Fill-23" fill="#0078C0" mask="url(#mask-2)"></path>
                    <path d="M0,18.878 L33.629,18.878 L33.629,18.115 L0,18.115 L0,18.878 Z" id="Fill-24" fill="#0079C1" mask="url(#mask-2)"></path>
                    <path d="M0,19.641 L33.629,19.641 L33.629,18.878 L0,18.878 L0,19.641 Z" id="Fill-25" fill="#007AC1" mask="url(#mask-2)"></path>
                    <path d="M0,20.404 L33.629,20.404 L33.629,19.641 L0,19.641 L0,20.404 Z" id="Fill-26" fill="#007AC2" mask="url(#mask-2)"></path>
                    <path d="M0,21.167 L33.629,21.167 L33.629,20.404 L0,20.404 L0,21.167 Z" id="Fill-27" fill="#007BC2" mask="url(#mask-2)"></path>
                    <path d="M0,21.931 L33.629,21.931 L33.629,21.168 L0,21.168 L0,21.931 Z" id="Fill-28" fill="#007CC3" mask="url(#mask-2)"></path>
                    <path d="M0,22.694 L33.629,22.694 L33.629,21.931 L0,21.931 L0,22.694 Z" id="Fill-29" fill="#007CC3" mask="url(#mask-2)"></path>
                    <path d="M0,23.457 L33.629,23.457 L33.629,22.694 L0,22.694 L0,23.457 Z" id="Fill-30" fill="#007DC4" mask="url(#mask-2)"></path>
                    <path d="M0,24.22 L33.629,24.22 L33.629,23.457 L0,23.457 L0,24.22 Z" id="Fill-31" fill="#007EC4" mask="url(#mask-2)"></path>
                    <path d="M0,24.983 L33.629,24.983 L33.629,24.22 L0,24.22 L0,24.983 Z" id="Fill-32" fill="#007EC5" mask="url(#mask-2)"></path>
                    <path d="M0,25.746 L33.629,25.746 L33.629,24.983 L0,24.983 L0,25.746 Z" id="Fill-33" fill="#007FC5" mask="url(#mask-2)"></path>
                    <path d="M0,26.509 L33.629,26.509 L33.629,25.746 L0,25.746 L0,26.509 Z" id="Fill-34" fill="#007FC5" mask="url(#mask-2)"></path>
                    <path d="M0,27.273 L33.629,27.273 L33.629,26.51 L0,26.51 L0,27.273 Z" id="Fill-35" fill="#0080C6" mask="url(#mask-2)"></path>
                    <path d="M0,28.036 L33.629,28.036 L33.629,27.273 L0,27.273 L0,28.036 Z" id="Fill-36" fill="#0081C6" mask="url(#mask-2)"></path>
                    <path d="M0,28.799 L33.629,28.799 L33.629,28.036 L0,28.036 L0,28.799 Z" id="Fill-37" fill="#0081C7" mask="url(#mask-2)"></path>
                    <path d="M0,29.562 L33.629,29.562 L33.629,28.799 L0,28.799 L0,29.562 Z" id="Fill-38" fill="#0082C7" mask="url(#mask-2)"></path>
                    <path d="M0,30.325 L33.629,30.325 L33.629,29.562 L0,29.562 L0,30.325 Z" id="Fill-39" fill="#0083C8" mask="url(#mask-2)"></path>
                    <path d="M0,31.088 L33.629,31.088 L33.629,30.325 L0,30.325 L0,31.088 Z" id="Fill-40" fill="#0083C8" mask="url(#mask-2)"></path>
                    <path d="M0,31.851 L33.629,31.851 L33.629,31.088 L0,31.088 L0,31.851 Z" id="Fill-41" fill="#0084C9" mask="url(#mask-2)"></path>
                    <path d="M0,32.614 L33.629,32.614 L33.629,31.851 L0,31.851 L0,32.614 Z" id="Fill-42" fill="#0085C9" mask="url(#mask-2)"></path>
                    <path d="M0,33.378 L33.629,33.378 L33.629,32.615 L0,32.615 L0,33.378 Z" id="Fill-43" fill="#0085CA" mask="url(#mask-2)"></path>
                    <path d="M0,34.141 L33.629,34.141 L33.629,33.378 L0,33.378 L0,34.141 Z" id="Fill-44" fill="#0086CA" mask="url(#mask-2)"></path>
                    <path d="M0,34.904 L33.629,34.904 L33.629,34.141 L0,34.141 L0,34.904 Z" id="Fill-45" fill="#0087CB" mask="url(#mask-2)"></path>
                    <path d="M0,35.667 L33.629,35.667 L33.629,34.904 L0,34.904 L0,35.667 Z" id="Fill-46" fill="#0087CB" mask="url(#mask-2)"></path>
                    <path d="M0,36.43 L33.629,36.43 L33.629,35.667 L0,35.667 L0,36.43 Z" id="Fill-47" fill="#0088CC" mask="url(#mask-2)"></path>
                    <path d="M0,37.193 L33.629,37.193 L33.629,36.43 L0,36.43 L0,37.193 Z" id="Fill-48" fill="#0089CC" mask="url(#mask-2)"></path>
                    <path d="M0,37.956 L33.629,37.956 L33.629,37.193 L0,37.193 L0,37.956 Z" id="Fill-49" fill="#0089CC" mask="url(#mask-2)"></path>
                    <path d="M0,38.719 L33.629,38.719 L33.629,37.956 L0,37.956 L0,38.719 Z" id="Fill-50" fill="#008ACD" mask="url(#mask-2)"></path>
                    <path d="M0,39.483 L33.629,39.483 L33.629,38.72 L0,38.72 L0,39.483 Z" id="Fill-51" fill="#008BCD" mask="url(#mask-2)"></path>
                    <path d="M0,40.246 L33.629,40.246 L33.629,39.483 L0,39.483 L0,40.246 Z" id="Fill-52" fill="#008BCE" mask="url(#mask-2)"></path>
                    <path d="M0,41.009 L33.629,41.009 L33.629,40.246 L0,40.246 L0,41.009 Z" id="Fill-53" fill="#008CCE" mask="url(#mask-2)"></path>
                    <path d="M0,42 L33.629,42 L33.629,41.009 L0,41.009 L0,42 Z" id="Fill-54" fill="#008CCE" mask="url(#mask-2)"></path>
                </g>
                <g id="Group-62" transform="translate(2.000000, 2.332900)">
                    <path d="M29.6245,15.2398 C29.6245,23.4198 22.9945,30.0498 14.8145,30.0498 C6.6355,30.0498 0.0045,23.4198 0.0045,15.2398 C0.0045,7.0608 6.6355,0.4298 14.8145,0.4298 C22.9945,0.4298 29.6245,7.0608 29.6245,15.2398" id="Fill-56" fill="#3E3A39"></path>
                    <path d="M29.3319,14.8456 C29.3319,22.8636 22.8329,29.3636 14.8149,29.3636 C6.7969,29.3636 0.2979,22.8636 0.2979,14.8456 C0.2979,6.8286 6.7969,0.3286 14.8149,0.3286 C22.8329,0.3286 29.3319,6.8286 29.3319,14.8456" id="Fill-58" fill="#FEFEFE"></path>
                    <path d="M11.5891,14.0492 L16.1671,14.0492 C16.7051,14.0492 17.1991,13.9442 17.6481,13.7342 C18.0961,13.5932 18.5001,13.3832 18.8601,13.1032 C19.1291,12.8222 19.3531,12.5072 19.5331,12.1562 C19.7121,11.8762 19.8471,11.5602 19.9371,11.2092 C19.8471,10.7892 19.7121,10.4382 19.5331,10.1572 C19.3531,9.8072 19.1291,9.5272 18.8601,9.3162 C18.5001,8.9662 18.0521,8.7202 17.5131,8.5802 C16.9751,8.4402 16.3011,8.3692 15.4941,8.3692 L11.5891,8.3692 L11.5891,14.0492 Z M10.2421,5.9502 L15.4941,5.9502 C16.7501,5.9502 17.8271,6.0562 18.7251,6.2662 C19.7121,6.5462 20.5201,6.9322 21.1491,7.4232 C21.6871,7.9142 22.1361,8.4752 22.4951,9.1062 C22.7641,9.7372 22.9431,10.4382 23.0341,11.2092 C23.0341,11.9812 22.8541,12.6822 22.4951,13.3132 C22.2261,14.0152 21.8221,14.6112 21.2831,15.1012 C20.6551,15.5222 19.9371,15.8732 19.1291,16.1532 C18.2311,16.3642 17.2881,16.5042 16.3011,16.5742 L11.5891,16.5742 L11.5891,22.8852 C11.5891,23.2352 11.4541,23.5162 11.1851,23.7272 C10.9151,23.8662 10.5121,23.9722 9.9731,24.0412 C9.4341,23.9722 9.0311,23.8662 8.7611,23.7272 C8.5821,23.5162 8.4921,23.2352 8.4921,22.8852 L8.4921,7.4232 L8.4921,6.7922 C8.5821,6.5822 8.6711,6.4072 8.7611,6.2662 C8.8511,6.1262 9.0311,6.0202 9.3001,5.9502 L10.2421,5.9502 Z" id="Fill-60" fill="#0086CD"></path>
                </g>
            </g>
        </g>
    </g>
</svg>