<?xml version="1.0" encoding="UTF-8" standalone="no"?>
<svg width="547px" height="529px" viewBox="0 0 547 529" version="1.1" xmlns="http://www.w3.org/2000/svg" xmlns:xlink="http://www.w3.org/1999/xlink">
    <!-- Generator: Sketch 3.6.1 (26313) - http://www.bohemiancoding.com/sketch -->
    <title>Group Copy</title>
    <desc>Created with Sketch.</desc>
    <defs>
        <path id="path-1" d="M25.8666102,12.2347128 L25.8666102,0.0701057885 L0.0180788136,0.0701057885 L0.0180788136,12.2347128 L25.8666102,12.2347128 L25.8666102,12.2347128 Z"></path>
        <path id="path-3" d="M0.288466582,25.8221172 L12.5164457,25.8221172 L12.5164457,0.0576178901 L0.288466582,0.0576178901 L0.288466582,25.8221172 L0.288466582,25.8221172 Z"></path>
        <path id="path-5" d="M3.14120015e-20,0.361418435 L3.14120015e-20,10.652296 L21.9329617,10.652296 L21.9329617,0.361418435 L0,0.361418435 L3.14120015e-20,0.361418435 Z"></path>
        <filter x="-50%" y="-50%" width="200%" height="200%" filterUnits="objectBoundingBox" id="filter-7">
            <feOffset dx="0" dy="2" in="SourceAlpha" result="shadowOffsetOuter1"></feOffset>
            <feGaussianBlur stdDeviation="2" in="shadowOffsetOuter1" result="shadowBlurOuter1"></feGaussianBlur>
            <feColorMatrix values="0 0 0 0 0   0 0 0 0 0   0 0 0 0 0  0 0 0 0.35 0" in="shadowBlurOuter1" type="matrix" result="shadowMatrixOuter1"></feColorMatrix>
            <feMerge>
                <feMergeNode in="shadowMatrixOuter1"></feMergeNode>
                <feMergeNode in="SourceGraphic"></feMergeNode>
            </feMerge>
        </filter>
    </defs>
    <g id="Page-1" stroke="none" stroke-width="1" fill="none" fill-rule="evenodd">
        <g id="Desktop-Landscape" transform="translate(-367.000000, -1454.000000)">
            <g id="Group-Copy" transform="translate(367.000000, 1454.000000)">
                <g id="Page-1">
                    <path d="M431.141807,93.0440389 C514.786451,194.945413 494.572947,277.004078 477.86511,308.441958 C487.910441,306.270396 505.334477,244.473472 490.741629,191.973984 C482.353524,161.797833 447.107949,99.145481 431.141807,93.0440389" id="Fill-1" fill="#9F5F2E"></path>
                    <path d="M427.760142,86.6853895 C422.803534,88.0478249 413.006208,87.1935536 407.820138,68.099779 C427.250227,71.9497877 428.777655,81.6512079 427.760142,86.6853895" id="Fill-3" fill="#58898A"></path>
                    <path d="M432.145645,95.8022473 C430.116414,100.520418 423.334541,107.6324 405.160698,99.7587505 C420.301704,87.0014004 428.843944,91.8677374 432.145645,95.8022473" id="Fill-5" fill="#6CC5BA"></path>
                    <path d="M443.602282,109.51527 C441.571892,114.233441 434.791178,121.347738 416.616176,113.472931 C431.758341,100.714423 440.300581,105.58076 443.602282,109.51527" id="Fill-7" fill="#58898A"></path>
                    <path d="M452.900587,125.059767 C451.017377,129.83813 444.458012,137.153842 426.050072,129.840446 C440.794735,116.625863 449.481837,121.227122 452.900587,125.059767" id="Fill-9" fill="#58898A"></path>
                    <path d="M457.110632,121.094235 C454.448643,116.701336 452.601359,107.053163 469.583855,96.8667295 C471.168069,116.589053 462.237599,120.701826 457.110632,121.094235" id="Fill-11" fill="#6CC5BA"></path>
                    <path d="M447.003069,104.76191 C443.926194,100.64798 441.148315,91.2255291 457.057671,79.4382053 C460.555226,98.9139711 452.066296,103.872912 447.003069,104.76191" id="Fill-13" fill="#58898A"></path>
                    <path d="M436.228907,89.7985024 C432.516956,86.2459838 428.227874,77.4069379 441.981679,63.1702398 C448.634914,81.8044674 441.077738,88.0911173 436.228907,89.7985024" id="Fill-15" fill="#6CC5BA"></path>
                    <path d="M454.896905,243.62823 C465.002498,252.528626 480.844638,278.208856 485.4501,290.916431 C483.455636,277.183267 470.192045,249.931085 454.896905,243.62823" id="Fill-17" fill="#9F5F2E"></path>
                    <path d="M463.346548,245.532977 C467.663444,242.683091 473.500815,234.706419 462.454197,218.143047 C452.508531,235.389373 458.856976,242.970163 463.346548,245.532977" id="Fill-19" fill="#58898A"></path>
                    <path d="M460.453822,254.853332 C458.066492,250.268279 450.73646,243.635522 433.088757,252.876238 C449.22178,264.557067 457.432574,259.044818 460.453822,254.853332" id="Fill-21" fill="#6CC5BA"></path>
                    <path d="M474.391081,259.537818 C479.426494,258.357118 487.669738,252.894643 483.04921,233.534632 C467.740164,246.274619 471.066202,255.581315 474.391081,259.537818" id="Fill-23" fill="#6CC5BA"></path>
                    <path d="M453.235624,241.389993 C453.345719,236.22385 450.099645,226.889373 430.175866,226.538636 C438.719264,244.521163 448.571058,243.62059 453.235624,241.389993" id="Fill-25" fill="#6CC5BA"></path>
                    <path d="M471.533469,269.391687 C468.866844,273.818156 461.134675,279.983263 444.097711,269.661396 C460.92955,259.007313 468.779927,265.020781 471.533469,269.391687" id="Fill-27" fill="#58898A"></path>
                    <path d="M520.482205,356.041656 C492.465838,403.021949 457.552868,406.718004 442.912506,404.640203 C445.179311,408.250599 471.781821,406.324437 490.236118,393.23024 C500.843514,385.703855 520.351249,363.127015 520.482205,356.041656" id="Fill-29" fill="#9F5F2E"></path>
                    <path d="M521.096769,351.766363 C526.015133,350.594924 534.055569,345.22621 529.469809,326.315328 C514.547834,338.822648 517.833311,347.910567 521.096769,351.766363" id="Fill-31" fill="#58898A"></path>
                    <g id="Group-35" transform="translate(520.345339, 355.296158)">
                        <mask id="mask-2" fill="white">
                            <use xlink:href="#path-1"></use>
                        </mask>
                        <g id="Clip-34"></g>
                        <path d="M0.0180788136,9.09478473 C3.7207589,12.5338635 12.6523881,16.2391786 25.8673055,1.94344557 C7.17195805,-3.52481702 1.42150466,4.24349589 0.0180788136,9.09478473" id="Fill-33" fill="#6CC5BA" mask="url(#mask-2)"></path>
                    </g>
                    <path d="M509.017688,363.63923 C513.240713,360.86227 518.961035,353.073121 508.189075,336.860486 C498.439264,353.705143 504.631257,361.127348 509.017688,363.63923" id="Fill-36" fill="#6CC5BA"></path>
                    <path d="M507.135637,381.590272 C509.145166,386.225099 515.840122,393.198176 533.684838,385.396294 C518.75591,372.89592 510.368963,377.710167 507.135637,381.590272" id="Fill-38" fill="#58898A"></path>
                    <path d="M495.791181,381.108732 C500.172976,378.587589 506.349904,371.154966 496.567643,354.32883 C485.826974,370.561143 491.564679,378.339874 495.791181,381.108732" id="Fill-40" fill="#58898A"></path>
                    <path d="M491.741759,397.594779 C493.753606,402.229607 500.446244,409.202683 518.292119,401.400801 C503.363191,388.901585 494.976244,393.713517 491.741759,397.594779" id="Fill-42" fill="#6CC5BA"></path>
                    <path d="M476.072874,393.803343 C480.966902,392.534669 488.897243,387.005056 483.93484,368.189093 C469.266664,380.992745 472.732929,390.012369 476.072874,393.803343" id="Fill-44" fill="#58898A"></path>
                    <path d="M468.873914,407.361601 C469.683984,412.347166 474.458645,420.748658 493.675496,417.560767 C482.275414,401.783371 472.962507,404.39133 468.873914,407.361601" id="Fill-46" fill="#58898A"></path>
                    <path d="M457.241936,401.687989 C462.204338,400.720278 470.459171,395.683781 466.654508,376.600425 C451.23073,388.487298 454.139565,397.70139 457.241936,401.687989" id="Fill-48" fill="#6CC5BA"></path>
                    <path d="M445.452579,409.862023 C445.327418,414.910095 448.465715,424.048947 467.941001,424.461034 C459.656037,406.852395 450.019797,407.697406 445.452579,409.862023" id="Fill-50" fill="#6CC5BA"></path>
                    <path d="M332.22694,502.580212 C379.470588,474.949512 383.432861,440.104965 381.461575,425.467755 C385.058796,427.75623 382.931058,454.315039 369.683692,472.648304 C362.06973,483.186632 339.320556,502.501499 332.22694,502.580212" id="Fill-52" fill="#9F5F2E"></path>
                    <path d="M327.942145,503.161186 C326.733414,508.064565 321.297022,516.056284 302.398868,511.333484 C315.033177,496.523799 324.105033,499.871431 327.942145,503.161186" id="Fill-54" fill="#58898A"></path>
                    <g id="Group-58" transform="translate(331.154271, 502.465990)">
                        <mask id="mask-4" fill="white">
                            <use xlink:href="#path-3"></use>
                        </mask>
                        <g id="Clip-57"></g>
                        <path d="M9.43272951,0.0576178901 C12.8480028,3.78261133 16.4915791,12.7304669 2.07836086,25.8223487 C-3.25488914,7.10825028 4.56535662,1.42352599 9.43272951,0.0576178901" id="Fill-56" fill="#6CC5BA" mask="url(#mask-4)"></path>
                    </g>
                    <path d="M339.9182,491.185529 C337.105554,495.381645 329.266766,501.039746 313.116359,490.157625 C330.052499,480.545336 337.43584,486.785684 339.9182,491.185529" id="Fill-59" fill="#6CC5BA"></path>
                    <path d="M357.904881,489.440176 C362.528886,491.483251 369.460256,498.220187 361.516008,515.98741 C349.114638,500.9821 353.994758,492.6408 357.904881,489.440176" id="Fill-61" fill="#58898A"></path>
                    <path d="M357.507611,478.105454 C354.951081,482.464784 347.463439,488.57896 330.690704,478.680756 C347.021899,468.07529 354.766817,473.863036 357.507611,478.105454" id="Fill-63" fill="#58898A"></path>
                    <path d="M374.043467,474.185182 C378.667472,476.228256 385.598842,482.965193 377.653436,500.732416 C365.252065,485.728263 370.133344,477.386963 374.043467,474.185182" id="Fill-65" fill="#6CC5BA"></path>
                    <path d="M370.364197,458.505136 C369.05696,463.385363 363.461799,471.264801 344.66215,466.166954 C357.589661,451.61193 366.594301,455.141298 370.364197,458.505136" id="Fill-67" fill="#58898A"></path>
                    <path d="M383.99145,451.417346 C388.977031,452.264672 397.35123,457.096283 394.014762,476.266456 C378.307054,464.760416 380.987586,455.479186 383.99145,451.417346" id="Fill-69" fill="#58898A"></path>
                    <path d="M378.399534,439.757121 C377.392452,444.706802 372.287505,452.912668 353.212039,448.970056 C365.228655,433.655679 374.430308,436.628266 378.399534,439.757121" id="Fill-71" fill="#6CC5BA"></path>
                    <path d="M386.670244,428.042607 C391.725358,427.954633 400.849365,431.157572 401.119388,450.614817 C383.551649,442.20638 384.469496,432.589461 386.670244,428.042607" id="Fill-73" fill="#6CC5BA"></path>
                    <path d="M406.941925,398.729641 C399.923637,385.810234 418.33969,346.773043 440.242868,357.471113 C447.186986,360.860418 442.852707,368.974838 445.49963,374.604 C448.531308,381.057337 458.912719,382.728838 454.446325,394.30433 C448.827986,408.868614 412.770024,409.463595 406.941925,398.729641" id="Fill-75" fill="#EE848B"></path>
                    <path d="M407.858613,397.868308 C402.17074,387.398275 417.095033,355.76477 434.844719,364.432499 C440.471171,367.179363 436.959709,373.7554 439.104829,378.317302 C441.560535,383.547109 449.974137,384.901442 446.354897,394.282221 C441.801586,406.084593 412.582283,406.567291 407.858613,397.868308" id="Fill-77" fill="#D95B63"></path>
                    <path d="M397.989899,405.884105 C390.610035,409.895013 347.532626,407.770911 353.899613,383.119742 C355.837291,375.619981 364.305361,377.512574 370.326996,373.564173 C377.229395,369.039313 373.344768,354.68223 391.625229,357.125816 C411.770359,359.819433 410.41213,399.132121 397.989899,405.884105" id="Fill-79" fill="#EE848B"></path>
                    <path d="M396.225476,403.189215 C390.471546,406.316913 356.888991,404.66046 361.852553,385.443985 C363.363756,379.597204 369.964841,381.073079 374.659538,377.993998 C380.040303,374.466946 377.012101,363.273445 391.264233,365.177613 C406.969622,367.278565 405.908072,397.925839 396.225476,403.189215" id="Fill-81" fill="#D95B63"></path>
                    <path d="M396.718935,410.821747 C401.403202,417.790194 395.16717,452.832682 376.645658,448.870391 C369.061827,447.248664 370.47916,439.460673 365.982634,433.837299 C360.830172,427.390907 353.899961,429.774301 353.651956,419.068128 C353.325147,404.922876 388.837268,399.092301 396.718935,410.821747" id="Fill-83" fill="#EE848B"></path>
                    <path d="M394.303791,410.969914 C397.700522,416.023774 393.177342,441.442397 379.743393,438.570518 C374.242103,437.39329 375.270045,431.74445 372.007747,427.665246 C368.2703,422.989905 363.24184,424.716968 363.062211,416.952128 C362.825795,406.691612 388.585787,402.460769 394.303791,410.969914" id="Fill-85" fill="#D95B63"></path>
                    <path d="M402.878943,405.737096 C411.630943,398.06023 444.59117,404.853886 444.314193,425.912022 C444.209892,433.917633 435.602755,431.784269 430.088717,437.925068 C424.574678,444.065867 428.315602,448.758571 417.962005,452.168711 C404.506036,456.603282 386.21978,420.34884 402.878943,405.737096" id="Fill-87" fill="#EE848B"></path>
                    <path d="M403.427797,407.498308 C410.025406,401.709404 434.881456,406.833874 434.671696,422.711977 C434.59405,428.748596 428.10306,427.140761 423.944933,431.770958 C419.786806,436.401154 422.607564,439.938625 414.801225,442.511857 C404.653912,445.856017 390.86534,418.518176 403.427797,407.498308" id="Fill-89" fill="#D95B63"></path>
                    <path d="M386.145031,383.849924 C383.054249,381.915659 392.925745,403.624338 388.623915,407.020587 C382.59069,411.782745 382.995146,415.413977 379.7398,422.71464 C379.69808,422.806086 398.728349,412.439075 401.194485,416.164068 C410.609374,430.381088 420.594442,434.554053 416.429362,427.440913 C414.925112,424.872311 410.060057,413.02711 411.959491,404.590891 C413.23312,398.922373 429.250254,387.949963 423.728103,390.082169 C401.079754,398.828611 397.190491,390.768596 386.145031,383.849924" id="Fill-91" fill="#EE848B"></path>
                    <path d="M392.35267,392.611877 C390.622435,391.528411 396.146903,403.679205 393.739871,405.581059 C390.362842,408.246895 390.588827,410.279551 388.767039,414.3657 C388.743861,414.41779 399.395295,408.614995 400.775543,410.698584 C406.045053,418.657893 411.635579,420.992669 409.303875,417.0107 C408.461356,415.574181 405.739104,408.943739 406.801814,404.222096 C407.514536,401.049254 416.479774,394.90614 413.388992,396.100731 C400.711803,400.996006 398.535392,396.483879 392.35267,392.611877" id="Fill-93" fill="#F9DAC3"></path>
                    <path d="M397.550676,399.992411 C396.846066,399.550227 399.098965,404.504538 398.117378,405.280096 C396.740607,406.368192 396.83216,407.196998 396.089306,408.862711 C396.080035,408.884704 400.423585,406.518674 400.98681,407.367157 C403.135407,410.612925 405.413801,411.564431 404.463505,409.941547 C404.120471,409.354669 403.009088,406.651792 403.443674,404.726788 C403.734558,403.432647 407.389723,400.927711 406.128842,401.415039 C400.960155,403.410654 400.072439,401.571308 397.550676,399.992411" id="Fill-95" fill="#EE848B"></path>
                    <path d="M329.04785,438.588228 C334.758901,429.694777 365.753636,427.741992 366.605426,445.226773 C366.87545,450.767961 360.25814,450.857092 357.626282,454.473276 C354.60967,458.61846 357.155769,465.72697 348.309899,466.930821 C337.179839,468.448368 324.302161,445.976865 329.04785,438.588228" id="Fill-97" fill="#EE848B"></path>
                    <path d="M329.907984,438.866387 C334.536624,431.658328 359.653427,430.075958 360.345289,444.245518 C360.562003,448.736809 355.199781,448.808577 353.066249,451.739492 C350.622133,455.097542 352.684972,460.858665 345.518344,461.835637 C336.49748,463.063796 326.06276,444.854389 329.907984,438.866387" id="Fill-99" fill="#D95B63"></path>
                    <path d="M321.43354,435.438884 C316.344818,432.187328 302.747464,404.357529 320.495992,399.815306 C325.896458,398.432035 327.637123,404.415407 332.21593,406.833527 C337.461104,409.605858 345.16546,402.183652 349.964458,414.528914 C355.252511,428.132433 329.99664,440.911777 321.43354,435.438884" id="Fill-101" fill="#EE848B"></path>
                    <path d="M322.520008,433.395115 C318.553099,430.86124 307.952656,409.164137 321.789902,405.623194 C325.997861,404.545515 327.357249,409.209281 330.925497,411.093771 C335.01409,413.256073 341.022978,407.470642 344.762743,417.094507 C348.884944,427.699973 329.195262,437.660684 322.520008,433.395115" id="Fill-103" fill="#D95B63"></path>
                    <path d="M317.879895,436.352306 C315.110128,441.714074 290.859022,449.943091 286.932674,436.919505 C285.325282,431.588991 290.725749,429.778584 292.7121,425.000221 C294.989335,419.525013 291.085007,415.992172 297.746354,412.123643 C306.551664,407.013063 322.540984,427.328052 317.879895,436.352306" id="Fill-105" fill="#EE848B"></path>
                    <path d="M316.948488,434.883839 C314.940117,438.773204 297.346882,444.742686 294.500628,435.294769 C293.333617,431.428554 297.251853,430.115894 298.693522,426.650191 C300.344952,422.677482 297.512605,420.114668 302.345211,417.308769 C308.73074,413.602296 320.330153,428.339056 316.948488,434.883839" id="Fill-107" fill="#D95B63"></path>
                    <path d="M323.221721,438.46275 C331.095276,441.304533 338.241043,464.391853 324.869674,471.520041 C319.786746,474.229863 318.148064,468.077489 312.364002,466.738205 C306.5811,465.400078 304.91924,469.378575 299.179216,464.050375 C291.71707,457.123601 308.23253,433.052365 323.221721,438.46275" id="Fill-109" fill="#EE848B"></path>
                    <path d="M322.300396,439.419117 C328.238591,441.562898 333.625151,458.971281 323.543894,464.344625 C319.711418,466.390014 318.474873,461.749399 314.113939,460.740016 C309.753004,459.730633 308.501394,462.731001 304.17175,458.713147 C298.545299,453.490285 310.997661,435.338756 322.300396,439.419117" id="Fill-111" fill="#D95B63"></path>
                    <path d="M331.216265,420.348956 C331.364604,417.734053 321.1014,431.469532 317.469413,429.941567 C312.374896,427.798943 310.226299,429.31186 304.494387,429.796873 C304.421377,429.802661 317.55633,438.176372 316.063669,441.018155 C310.365366,451.870179 311.197455,459.596821 314.237246,454.511707 C315.334722,452.674676 321.114148,445.507131 327.090587,443.775438 C331.106169,442.612101 343.578233,448.881387 340.32057,446.148414 C326.951519,434.936392 330.686648,429.695009 331.216265,420.348956" id="Fill-113" fill="#EE848B"></path>
                    <path d="M327.845957,427.291937 C327.928238,425.827637 322.183579,433.516079 320.149713,432.66065 C317.298823,431.461429 316.095887,432.308755 312.888056,432.578464 C312.847495,432.581937 320.198387,437.270011 319.36398,438.860484 C316.173533,444.935302 316.640569,449.259906 318.341832,446.413492 C318.954889,445.385589 322.190533,441.373523 325.536272,440.404654 C327.783376,439.752954 334.765738,443.262643 332.940474,441.732363 C325.458626,435.456131 327.54812,432.522902 327.845957,427.291937" id="Fill-115" fill="#F9DAC3"></path>
                    <path d="M324.995067,433.120428 C325.028675,432.523133 322.686541,435.657776 321.857929,435.310512 C320.695554,434.820868 320.204181,435.166975 318.895785,435.275785 C318.880719,435.276943 321.87763,437.190372 321.536914,437.837442 C320.23663,440.315754 320.42669,442.077544 321.119711,440.916523 C321.370033,440.498647 322.690018,438.86303 324.054041,438.468306 C324.97073,438.20207 327.818143,439.6328 327.072971,439.008881 C324.021592,436.44954 324.874541,435.253792 324.995067,433.120428" id="Fill-117" fill="#EE848B"></path>
                    <path d="M506.896904,282.549665 C497.561978,288.66847 481.557592,307.883788 476.28924,317.768101 C479.535315,306.736656 493.611293,285.932024 506.896904,282.549665" id="Fill-119" fill="#9F5F2E"></path>
                    <path d="M499.741981,283.122884 C496.534151,280.282258 492.680814,273.055678 503.684553,260.757875 C509.819761,276.069936 503.725115,281.547459 499.741981,283.122884" id="Fill-121" fill="#58898A"></path>
                    <path d="M501.021985,291.108121 C503.515934,287.626213 510.308237,283.041161 523.701624,292.685861 C509.099506,300.382406 503.008336,294.900253 501.021985,291.108121" id="Fill-123" fill="#6CC5BA"></path>
                    <path d="M489.039208,293.321471 C485.046803,291.76341 478.925502,286.318298 484.985382,270.976141 C496.050543,283.217224 492.230814,290.46464 489.039208,293.321471" id="Fill-125" fill="#6CC5BA"></path>
                    <path d="M508.522027,280.907219 C509.036578,276.657855 512.793726,269.378028 529.17823,271.42226 C520.063495,285.172788 512.086798,283.28251 508.522027,280.907219" id="Fill-127" fill="#58898A"></path>
                    <path d="M490.228585,301.73859 C491.898558,305.682361 497.516897,311.643739 512.7031,305.168409 C500.146437,294.459921 492.999511,298.474302 490.228585,301.73859" id="Fill-129" fill="#58898A"></path>
                    <path d="M468.546873,340.878224 C479.022154,342.347154 493.742481,369.661843 478.192383,377.736907 C473.26243,380.297405 470.419652,374.326767 466.030904,373.449344 C461.000127,372.442276 455.597343,377.721858 450.806457,370.196631 C444.779027,360.727878 459.844705,339.657009 468.546873,340.878224" id="Fill-131" fill="#EE848B"></path>
                    <path d="M468.65326,341.775788 C477.14219,342.965748 489.07073,365.100405 476.46887,371.645188 C472.475306,373.719516 470.171416,368.88096 466.614757,368.171383 C462.538912,367.354153 458.159435,371.632455 454.278285,365.533328 C449.393529,357.861092 461.601363,340.786083 468.65326,341.775788" id="Fill-133" fill="#D95B63"></path>
                    <path d="M468.232232,332.6521 C469.06548,326.676831 488.70417,302.714404 500.246797,316.924479 C503.759418,321.247925 499.04502,325.328286 498.757613,330.493271 C498.426168,336.410663 508.395011,340.303501 499.167863,349.815083 C489.000848,360.294376 466.831124,342.708888 468.232232,332.6521" id="Fill-135" fill="#EE848B"></path>
                    <path d="M470.54435,332.784408 C471.194492,328.12643 486.504697,309.4459 495.503543,320.523647 C498.242019,323.893272 494.567153,327.075375 494.341168,331.100174 C494.082733,335.715323 501.855464,338.750417 494.662182,346.16452 C486.736477,354.334502 469.453826,340.624489 470.54435,332.784408" id="Fill-137" fill="#D95B63"></path>
                    <path d="M465.917796,329.809159 C459.883412,329.53482 442.269317,310.960785 452.476893,301.958525 C456.65704,298.274046 460.556732,302.420387 465.733531,302.228234 C471.665932,302.007142 473.248987,296.986851 479.549917,301.419107 C487.875442,307.275148 476.074381,330.271021 465.917796,329.809159" id="Fill-139" fill="#EE848B"></path>
                    <path d="M466.863921,328.350879 C462.487921,328.15178 449.709908,314.677907 457.115268,308.14933 C460.145787,305.475391 462.976976,308.482704 466.730647,308.343798 C471.034796,308.182898 472.182105,304.543564 476.7528,307.75692 C482.791819,312.005126 474.231037,328.685411 466.863921,328.350879" id="Fill-141" fill="#D95B63"></path>
                    <path d="M466.227917,335.536944 C466.93021,343.871299 448.912818,359.998275 436.84521,350.839745 C432.257131,347.357837 437.169701,343.300627 435.973718,337.492045 C434.775417,331.684621 430.461998,331.838575 432.911909,324.403636 C436.096561,314.739257 464.890549,319.675047 466.227917,335.536944" id="Fill-143" fill="#EE848B"></path>
                    <path d="M464.973989,335.101822 C465.503606,341.386156 451.915523,353.546211 442.818171,346.640272 C439.357701,344.013793 443.062699,340.955548 442.158758,336.574224 C441.257135,332.195216 438.005267,332.313286 439.851392,326.706117 C442.253788,319.418187 463.965748,323.139708 464.973989,335.101822" id="Fill-145" fill="#D95B63"></path>
                    <path d="M486.044615,335.230657 C488.484096,334.272206 471.704407,330.694221 471.578087,326.759712 C471.399617,321.240517 469.12354,319.922068 466.291193,314.922613 C466.255267,314.858948 464.122894,330.277504 460.913905,330.109659 C448.662032,329.468377 441.982142,333.451504 447.876299,334.085841 C450.005195,334.315035 458.939142,336.568784 463.010352,341.269591 C465.745352,344.427386 465.251661,358.364278 466.376951,354.265396 C470.995161,337.450836 477.321587,338.651215 486.044615,335.230657" id="Fill-147" fill="#EE848B"></path>
                    <path d="M478.3216,335.068947 C479.687942,334.533002 470.295071,332.531599 470.224378,330.327626 C470.124713,327.239284 468.851083,326.501925 467.265711,323.702971 C467.24485,323.667087 466.051185,332.296617 464.254893,332.202855 C457.396533,331.845173 453.657927,334.074612 456.95731,334.428823 C458.149817,334.557311 463.150463,335.817882 465.427698,338.450149 C466.959761,340.217726 466.682785,348.019608 467.313225,345.724188 C469.89641,336.312155 473.438003,336.983534 478.3216,335.068947" id="Fill-149" fill="#F9DAC3"></path>
                    <path d="M471.828873,334.91754 C472.385144,334.698763 468.556144,333.881533 468.527171,332.983275 C468.485451,331.723861 467.966265,331.422899 467.319599,330.281555 C467.312646,330.267665 466.825909,333.786614 466.092326,333.748415 C463.297063,333.602564 461.771953,334.51124 463.117434,334.655934 C463.603013,334.708023 465.642674,335.223133 466.570951,336.295023 C467.195597,337.017334 467.083184,340.198279 467.34046,339.261822 C468.393898,335.423389 469.837885,335.698886 471.828873,334.91754" id="Fill-151" fill="#EE848B"></path>
                    <path d="M523.168995,232.536593 C514.020651,238.927422 498.591079,258.605759 493.617088,268.641711 C496.535194,257.519978 509.988844,236.307888 523.168995,232.536593" id="Fill-153" fill="#9F5F2E"></path>
                    <path d="M516.034469,233.319907 C512.745516,230.575357 508.677783,223.464532 519.314151,210.849561 C525.90017,225.972942 519.970088,231.62757 516.034469,233.319907" id="Fill-155" fill="#58898A"></path>
                    <path d="M517.551003,241.263472 C519.940652,237.709796 526.595046,232.926803 540.267728,242.172149 C525.897389,250.295829 519.648609,244.996569 517.551003,241.263472" id="Fill-157" fill="#58898A"></path>
                    <path d="M505.639499,243.829412 C501.601897,242.391736 495.321827,237.128359 500.92626,221.614884 C512.347202,233.524909 508.744187,240.879976 505.639499,243.829412" id="Fill-159" fill="#6CC5BA"></path>
                    <path d="M524.745444,230.846571 C525.134834,226.58216 528.674109,219.196996 545.111923,220.753899 C536.408597,234.769505 528.37859,233.115368 524.745444,230.846571" id="Fill-161" fill="#6CC5BA"></path>
                    <path d="M507.076765,252.209258 C508.860309,256.100939 514.654801,261.894472 529.642832,254.973486 C516.773267,244.640044 509.749184,248.862783 507.076765,252.209258" id="Fill-163" fill="#58898A"></path>
                    <path d="M440.493306,179.886161 C453.562202,183.156237 479.440401,198.705596 489.375636,207.880331 C481.288844,196.596541 456.978634,178.470478 440.493306,179.886161" id="Fill-165" fill="#9F5F2E"></path>
                    <path d="M448.876081,177.702212 C451.400161,173.192401 452.919477,163.428473 435.490805,153.7803 C434.585706,173.662366 443.709712,177.485751 448.876081,177.702212" id="Fill-167" fill="#58898A"></path>
                    <path d="M450.590671,187.308482 C446.364168,184.330108 436.802099,181.798548 425.371885,198.102629 C445.074315,201.081003 449.835069,192.417904 450.590671,187.308482" id="Fill-169" fill="#6CC5BA"></path>
                    <path d="M465.125573,185.079274 C469.056556,181.721223 473.868302,173.087064 460.861986,158.006512 C453.120546,176.346722 460.35323,183.089447 465.125573,185.079274" id="Fill-171" fill="#6CC5BA"></path>
                    <path d="M437.98881,178.65858 C435.712734,174.02028 428.537995,167.215048 410.678213,176.041361 C426.531942,188.098394 434.871374,182.779455 437.98881,178.65858" id="Fill-173" fill="#58898A"></path>
                    <path d="M467.116329,195.14347 C466.782566,200.298037 462.748441,209.32229 442.868699,207.964485 C452.922142,190.780667 462.661524,192.520463 467.116329,195.14347" id="Fill-175" fill="#58898A"></path>
                    <path d="M515.980233,168.31634 C507.906188,179.090809 497.651097,207.46234 495.740074,220.841294 C494.885966,206.991218 502.295961,177.60683 515.980233,168.31634" id="Fill-177" fill="#9F5F2E"></path>
                    <path d="M508.097638,171.905437 C503.291687,169.996639 495.943113,163.380087 503.370492,144.911389 C516.631765,159.765061 511.969517,168.480249 508.097638,171.905437" id="Fill-179" fill="#6CC5BA"></path>
                    <path d="M512.836257,180.437849 C514.23273,175.46386 520.053876,167.474455 539.219736,172.920724 C525.815918,187.647065 516.650192,183.926702 512.836257,180.437849" id="Fill-181" fill="#6CC5BA"></path>
                    <path d="M500.150609,187.868041 C494.979605,187.741868 485.793018,184.074753 486.357401,164.179954 C503.94716,173.527164 502.595884,183.317715 500.150609,187.868041" id="Fill-183" fill="#6CC5BA"></path>
                    <path d="M517.14817,165.785359 C515.984636,160.752335 517.252471,150.952523 536.683719,146.543418 C531.998293,165.889538 522.170836,167.018149 517.14817,165.785359" id="Fill-185" fill="#6CC5BA"></path>
                    <path d="M504.962702,196.931768 C508.4788,200.720426 517.307287,205.179306 531.874639,191.597781 C513.221012,184.601553 506.76363,192.088582 504.962702,196.931768" id="Fill-187" fill="#58898A"></path>
                    <path d="M494.67296,117.617073 C488.12982,126.652902 480.016373,150.297003 478.615265,161.408318 C477.718278,149.945108 483.460619,125.499983 494.67296,117.617073" id="Fill-189" fill="#9F5F2E"></path>
                    <path d="M488.190431,120.69627 C484.18296,119.17988 478.004874,113.796119 483.90946,98.3937685 C495.097465,110.522569 491.353064,117.807027 488.190431,120.69627" id="Fill-191" fill="#58898A"></path>
                    <path d="M492.231857,127.702684 C493.32238,123.56213 498.036778,116.863393 513.990172,121.118544 C503.083781,133.500848 495.439687,130.540994 492.231857,127.702684" id="Fill-193" fill="#6CC5BA"></path>
                    <path d="M481.822053,134.029616 C477.536447,133.993732 469.87497,131.079023 470.073142,114.588577 C484.774926,122.096441 483.786385,130.225909 481.822053,134.029616" id="Fill-195" fill="#6CC5BA"></path>
                    <path d="M495.606685,115.504314 C494.574106,111.348712 495.491954,103.212299 511.532265,99.2974672 C507.913026,115.388559 499.784513,116.456977 495.606685,115.504314" id="Fill-197" fill="#58898A"></path>
                    <path d="M485.932549,141.47451 C488.897011,144.566324 496.271081,148.140836 508.157901,136.691516 C492.607803,131.146856 487.357994,137.438136 485.932549,141.47451" id="Fill-199" fill="#58898A"></path>
                    <path d="M102.965333,120.991329 C33.964528,233.306016 65.1574347,311.857307 85.9886318,340.734688 C75.7404941,339.947554 50.0697377,281.089648 57.382386,227.096922 C61.5845513,196.061869 87.9773013,129.205298 102.965333,120.991329" id="Fill-201" fill="#9F5F2E"></path>
                    <path d="M105.450127,114.233672 C110.546962,114.910839 120.136845,112.733488 122.67715,93.1130289 C103.950513,99.5652083 103.758135,109.384698 105.450127,114.233672" id="Fill-203" fill="#58898A"></path>
                    <path d="M102.344627,123.861472 C104.998504,128.260159 112.684318,134.38591 129.619299,124.118448 C112.882489,113.534975 105.080786,119.514875 102.344627,123.861472" id="Fill-205" fill="#6CC5BA"></path>
                    <path d="M92.8628689,139.003489 C95.5155871,143.402177 103.200242,149.529085 120.136382,139.261623 C103.398413,128.675835 95.59671,134.655735 92.8628689,139.003489" id="Fill-207" fill="#6CC5BA"></path>
                    <path d="M85.7646167,155.665832 C88.280585,160.14439 95.7751803,166.500493 113.018428,156.755086 C96.6119049,145.664607 88.6317311,151.404893 85.7646167,155.665832" id="Fill-209" fill="#58898A"></path>
                    <path d="M81.0549699,152.308476 C83.0946309,147.594936 83.6126585,137.784706 65.4017305,129.99903 C66.5154318,149.754923 75.9233682,152.615227 81.0549699,152.308476" id="Fill-211" fill="#6CC5BA"></path>
                    <path d="M88.8452002,134.755284 C91.3345138,130.261678 92.8039968,120.54984 75.4390646,111.031312 C74.6232002,130.801096 83.7089629,134.561973 88.8452002,134.755284" id="Fill-213" fill="#58898A"></path>
                    <path d="M97.4831646,118.467061 C100.678247,114.444578 103.724991,105.104313 88.1609867,92.86786 C84.1048426,112.232501 92.4477515,117.434527 97.4831646,118.467061" id="Fill-215" fill="#6CC5BA"></path>
                    <path d="M96.7340528,353.379524 C173.994326,460.19238 258.58579,461.642789 293.283205,453.542259 C288.615163,462.690371 224.348457,463.721747 177.26126,436.214905 C150.196349,420.40394 98.5616354,370.357299 96.7340528,353.379524" id="Fill-217" fill="#9F5F2E"></path>
                    <path d="M91.4442614,348.489342 C94.0297636,344.05014 95.7078483,334.371871 78.5503589,324.484086 C77.3114966,344.22956 86.3126597,348.186064 91.4442614,348.489342" id="Fill-219" fill="#58898A"></path>
                    <path d="M99.1480379,355.054845 C104.233284,354.301281 112.850851,349.570377 109.873642,330.00548 C93.6560189,341.36914 96.1824172,350.861044 99.1480379,355.054845" id="Fill-221" fill="#6CC5BA"></path>
                    <path d="M109.494334,369.621329 C114.57958,368.867764 123.197148,364.136861 120.219938,344.573121 C104.002315,355.935624 106.528714,365.427528 109.494334,369.621329" id="Fill-223" fill="#6CC5BA"></path>
                    <path d="M122.164106,382.573726 C127.270212,381.975273 136.026847,377.510606 133.652265,357.86468 C117.092767,368.727122 119.328282,378.291951 122.164106,382.573726" id="Fill-225" fill="#58898A"></path>
                    <path d="M117.249566,385.625836 C113.677841,381.932096 104.81111,377.682733 90.6122883,391.479563 C109.297206,398.048654 115.559892,390.47481 117.249566,385.625836" id="Fill-227" fill="#6CC5BA"></path>
                    <path d="M104.023523,371.691143 C100.82844,367.667502 92.4183155,362.578915 76.9435464,374.928808 C94.8995167,383.283998 101.869131,376.352593 104.023523,371.691143" id="Fill-229" fill="#58898A"></path>
                    <path d="M92.2930386,357.463705 C89.803725,352.970099 82.3450555,346.568852 65.0496572,356.213552 C81.3854877,367.400108 89.4027462,361.709596 92.2930386,357.463705" id="Fill-231" fill="#6CC5BA"></path>
                    <path d="M254.561516,427.571137 C260.863605,436.775969 280.401471,452.394781 290.39581,457.468319 C279.292406,454.436698 258.199297,440.774144 254.561516,427.571137" id="Fill-233" fill="#9F5F2E"></path>
                    <path d="M255.271109,434.705229 C252.488594,437.962573 245.327762,441.949172 232.810501,431.192067 C248.019882,424.774614 253.617361,430.757986 255.271109,434.705229" id="Fill-235" fill="#58898A"></path>
                    <path d="M263.239578,433.275309 C259.707256,430.850243 254.988222,424.154978 264.389205,410.595446 C272.370538,425.033558 266.997885,431.220659 263.239578,433.275309" id="Fill-237" fill="#6CC5BA"></path>
                    <path d="M265.68242,445.200033 C264.200189,449.216729 258.864621,455.433926 243.393329,449.672804 C255.4366,438.390171 262.761996,442.067705 265.68242,445.200033" id="Fill-239" fill="#6CC5BA"></path>
                    <path d="M252.886444,425.978465 C248.622857,425.544384 241.266171,421.932831 242.998724,405.530358 C256.937953,414.372877 255.196128,422.375015 252.886444,425.978465" id="Fill-241" fill="#6CC5BA"></path>
                    <path d="M274.086171,443.852646 C278.002088,442.111692 283.862637,436.385296 277.092353,421.344101 C266.611277,434.086403 270.764768,441.147454 274.086171,443.852646" id="Fill-243" fill="#58898A"></path>
                    <path d="M259.890825,493.756098 C266.198709,481.864595 287.505054,460.489291 298.800836,453.049722 C285.896503,458.190398 262.460103,477.428867 259.890825,493.756098" id="Fill-245" fill="#9F5F2E"></path>
                    <path d="M259.77424,485.105039 C255.993914,481.576828 246.866431,477.767334 233.316592,492.361715 C252.426825,497.997822 258.326776,490.063979 259.77424,485.105039" id="Fill-247" fill="#58898A"></path>
                    <path d="M269.52185,485.740302 C265.615204,489.128448 260.868356,497.796177 273.98129,512.780652 C281.590617,494.387194 274.3081,487.69656 269.52185,485.740302" id="Fill-249" fill="#58898A"></path>
                    <path d="M270.833027,471.111542 C268.509436,466.495235 261.26864,459.761771 243.498093,468.768662 C259.471188,480.664795 267.756152,475.263671 270.833027,471.111542" id="Fill-251" fill="#58898A"></path>
                    <path d="M258.099285,495.892587 C253.04417,496.989944 244.71285,502.3193 249.019316,521.752237 C264.532329,509.262281 261.358107,499.902338 258.099285,495.892587" id="Fill-253" fill="#6CC5BA"></path>
                    <path d="M281.091595,471.588568 C286.023866,473.145471 293.830205,479.216817 287.754101,498.172843 C273.456773,484.310034 277.47815,475.28115 281.091595,471.588568" id="Fill-255" fill="#6CC5BA"></path>
                    <path d="M206.739925,400.39709 C208.524628,413.734373 221.08245,441.168289 229.092755,452.05967 C218.776243,442.765707 203.477626,416.599307 206.739925,400.39709" id="Fill-257" fill="#9F5F2E"></path>
                    <path d="M203.624806,408.470533 C198.854781,410.467306 188.970537,410.878236 181.332238,392.495196 C201.214298,393.833323 203.989859,403.318282 203.624806,408.470533" id="Fill-259" fill="#58898A"></path>
                    <path d="M212.9894,411.251314 C210.502404,406.722981 209.059576,396.947478 226.563576,387.437053 C227.311065,407.324907 218.158086,411.076524 212.9894,411.251314" id="Fill-261" fill="#6CC5BA"></path>
                    <path d="M209.135831,425.426777 C205.353187,428.950357 196.222227,432.755222 182.683977,418.151581 C201.798846,412.529364 207.693003,420.467837 209.135831,425.426777" id="Fill-263" fill="#6CC5BA"></path>
                    <path d="M205.801101,397.772232 C201.442485,394.990641 195.479953,387.105416 206.270455,370.371884 C216.480349,387.463098 210.251271,395.141122 205.801101,397.772232" id="Fill-265" fill="#58898A"></path>
                    <path d="M218.923654,428.535492 C224.090023,428.784365 233.519979,425.794415 234.406536,405.912349 C216.181701,413.957317 216.816777,423.818479 218.923654,428.535492" id="Fill-267" fill="#58898A"></path>
                    <path d="M156.412216,382.121587 C156.865346,393.264156 165.132926,416.856167 170.911193,426.453408 C163.107172,417.999826 152.483551,395.242408 156.412216,382.121587" id="Fill-269" fill="#9F5F2E"></path>
                    <path d="M153.224087,388.545754 C149.136653,389.831791 140.947877,389.417389 136.049214,373.665459 C152.352596,376.284993 153.919426,384.323014 153.224087,388.545754" id="Fill-271" fill="#58898A"></path>
                    <path d="M160.739311,391.554919 C159.032254,387.627354 158.588396,379.451584 173.757215,372.938055 C172.855593,389.40535 165.016804,391.80495 160.739311,391.554919" id="Fill-273" fill="#6CC5BA"></path>
                    <path d="M156.476651,402.957474 C153.086874,405.578165 145.261992,408.020594 135.206232,394.93913 C151.40763,391.75587 155.665422,398.75557 156.476651,402.957474" id="Fill-275" fill="#6CC5BA"></path>
                    <path d="M155.836707,379.884508 C152.452724,377.256871 148.135828,370.296527 158.315591,357.31114 C165.434703,372.192593 159.709746,378.053265 155.836707,379.884508" id="Fill-277" fill="#6CC5BA"></path>
                    <path d="M164.31683,406.268412 C168.560715,406.868022 176.569862,405.117808 178.819283,388.780158 C163.166044,394.029644 162.937741,402.215832 164.31683,406.268412" id="Fill-279" fill="#58898A"></path>
                    <path d="M211.592811,479.585149 C219.756091,471.977736 242.237559,460.999539 253.101072,458.229523 C241.602483,458.765469 218.030492,467.49339 211.592811,479.585149" id="Fill-281" fill="#9F5F2E"></path>
                    <path d="M213.846057,472.776676 C211.842322,468.992648 205.726816,463.539433 191.159464,471.303116 C204.598049,480.886466 211.368333,476.27016 213.846057,472.776676" id="Fill-283" fill="#58898A"></path>
                    <path d="M221.308783,475.912477 C217.331444,477.50758 211.262294,483.011726 217.469353,498.294849 C228.416306,485.947271 224.527044,478.738055 221.308783,475.912477" id="Fill-285" fill="#6CC5BA"></path>
                    <path d="M226.300853,464.809496 C225.732993,460.565921 221.88661,453.334711 205.52876,455.579199 C214.813853,469.218601 222.766214,467.228774 226.300853,464.809496" id="Fill-287" fill="#6CC5BA"></path>
                    <path d="M209.610052,480.7721 C205.354578,480.266251 197.384834,482.186625 195.488876,498.56942 C211.023908,492.983087 211.076059,484.794584 209.610052,480.7721" id="Fill-289" fill="#58898A"></path>
                    <path d="M234.207205,467.957683 C237.646815,470.511237 242.114368,477.377819 232.216218,490.57851 C224.776091,475.855641 230.374729,469.872269 234.207205,467.957683" id="Fill-291" fill="#58898A"></path>
                    <path d="M154.203008,459.988188 C166.092146,453.658709 195.727494,447.854757 209.256472,448.004081 C195.683456,445.05233 165.479089,447.894114 154.203008,459.988188" id="Fill-293" fill="#9F5F2E"></path>
                    <path d="M158.954028,452.752463 C157.797447,447.715967 152.368009,439.456853 132.962257,443.977083 C145.641763,459.330816 154.976689,456.054951 158.954028,452.752463" id="Fill-295" fill="#58898A"></path>
                    <path d="M166.675304,458.72889 C161.540225,459.351652 152.748823,463.881142 155.219594,483.630089 C171.832401,472.641474 169.547054,463.025713 166.675304,458.72889" id="Fill-297" fill="#6CC5BA"></path>
                    <path d="M175.959006,447.33768 C176.619578,442.213209 174.391017,432.585872 154.619053,430.114505 C161.190006,448.905001 171.082362,449.057798 175.959006,447.33768" id="Fill-299" fill="#58898A"></path>
                    <path d="M151.521318,460.755759 C146.716525,458.841172 136.826487,458.600402 129.506886,477.11193 C149.36229,475.432326 151.975606,465.901065 151.521318,460.755759" id="Fill-301" fill="#6CC5BA"></path>
                    <path d="M184.193442,453.467945 C187.408226,457.514737 190.47583,466.909406 174.820273,479.223415 C170.737474,459.743019 179.129057,454.507424 184.193442,453.467945" id="Fill-303" fill="#6CC5BA"></path>
                    <path d="M110.941219,421.267935 C121.562522,417.833486 146.583136,417.409823 157.598465,419.499199 C146.956301,415.116718 121.902079,413.04239 110.941219,421.267935" id="Fill-305" fill="#9F5F2E"></path>
                    <path d="M115.871056,416.055606 C115.661296,411.780777 112.437241,404.252077 95.9484356,405.116766 C104.05377,419.485425 112.145198,418.170449 115.871056,416.055606" id="Fill-307" fill="#58898A"></path>
                    <path d="M121.298872,422.055878 C117.02022,421.816266 109.187226,424.232071 108.323847,440.701681 C123.477601,434.153425 123.014042,425.977655 121.298872,422.055878" id="Fill-309" fill="#6CC5BA"></path>
                    <path d="M130.532742,414.113586 C131.819119,410.029752 131.404234,401.850509 115.635105,396.958706 C118.256533,413.241951 126.305081,414.808115 130.532742,414.113586" id="Fill-311" fill="#6CC5BA"></path>
                    <path d="M108.641617,421.50419 C105.001517,419.243497 96.9691932,417.60788 88.2983161,431.644322 C104.739606,433.161869 108.260339,425.767444 108.641617,421.50419" id="Fill-313" fill="#58898A"></path>
                    <path d="M136.357249,420.311683 C138.389957,424.080663 139.521042,432.191611 124.954849,439.958766 C124.464635,423.471793 132.073961,420.422808 136.357249,420.311683" id="Fill-315" fill="#58898A"></path>
                    <path d="M315.962729,30.2344915 C364.677019,27.3105221 393.633253,52.6041304 400.334003,65.7700954 C391.718753,35.2744608 343.57464,21.3676643 315.962729,30.2344915" id="Fill-317" fill="#9F5F2E"></path>
                    <path d="M312.106843,32.1866982 C308.321881,28.8355932 299.304493,25.3444247 286.436086,39.9515385 C305.255436,44.9729871 310.819307,37.0703985 312.106843,32.1866982" id="Fill-319" fill="#58898A"></path>
                    <path d="M322.875326,25.5376197 C323.568347,20.5358495 321.477694,11.1029807 302.172767,8.50428271 C308.422705,26.9324665 318.092553,27.1743943 322.875326,25.5376197" id="Fill-321" fill="#6CC5BA"></path>
                    <path d="M328.772843,35.247953 C324.071193,33.3900864 314.402504,33.1817276 307.298458,51.2996882 C326.703051,49.602721 329.231767,40.2786619 328.772843,35.247953" id="Fill-323" fill="#6CC5BA"></path>
                    <path d="M344.569554,26.4814853 C347.213001,22.1754022 349.08694,12.6985466 332.44516,2.58272385 C330.770552,21.9693584 339.529506,26.0659252 344.569554,26.4814853" id="Fill-325" fill="#58898A"></path>
                    <path d="M350.686683,36.035781 C346.104399,33.8989451 336.464683,33.1141267 328.288656,50.7748554 C347.761624,50.2389101 350.844293,41.0815381 350.686683,36.035781" id="Fill-327" fill="#58898A"></path>
                    <path d="M366.525346,29.8817862 C369.169952,25.5768606 371.042732,16.0988475 354.402111,5.98302473 C352.727503,25.3696593 361.486457,29.466226 366.525346,29.8817862" id="Fill-329" fill="#6CC5BA"></path>
                    <path d="M372.41255,44.8734379 C368.563849,41.5998886 359.478086,38.2869827 346.90288,53.1475998 C365.819577,57.7940024 371.224679,49.7814466 372.41255,44.8734379" id="Fill-331" fill="#58898A"></path>
                    <path d="M387.660522,42.9765619 C391.28208,39.4518245 395.4263,30.7227457 381.780272,16.8379427 C375.393584,35.2198245 382.878908,41.3386298 387.660522,42.9765619" id="Fill-333" fill="#58898A"></path>
                    <path d="M389.688594,55.7469923 C386.045018,52.2442484 377.177128,48.3861368 363.720001,62.4526751 C382.318001,68.2415788 388.200569,60.5728151 389.688594,55.7469923" id="Fill-335" fill="#6CC5BA"></path>
                    <path d="M403.156268,60.6958626 C407.367704,57.8992236 413.055577,50.0869239 402.214083,33.9217488 C392.536124,50.808077 398.759407,58.2036591 403.156268,60.6958626" id="Fill-337" fill="#6CC5BA"></path>
                    <path d="M95.6209309,261.921791 C86.8214161,272.110539 74.6263292,299.706513 71.7928229,312.921095 C71.8982826,299.045552 81.3270792,270.243412 95.6209309,261.921791" id="Fill-339" fill="#9F5F2E"></path>
                    <path d="M87.5086428,264.955843 C82.8475538,262.719458 75.9752869,255.610948 84.6635475,237.699031 C96.8644288,253.434755 91.608825,261.807309 87.5086428,264.955843" id="Fill-341" fill="#58898A"></path>
                    <path d="M91.645678,273.796857 C93.3840254,268.93052 99.7440593,261.362463 118.485763,268.120235 C104.094564,281.885811 95.2081314,277.539213 91.645678,273.796857" id="Fill-343" fill="#6CC5BA"></path>
                    <path d="M78.4757258,280.331801 C73.3255818,279.846788 64.4148127,275.554595 66.3559674,255.746613 C83.2573403,266.288414 81.2292682,275.960895 78.4757258,280.331801" id="Fill-345" fill="#6CC5BA"></path>
                    <path d="M96.9620081,259.477857 C96.1496203,254.37538 98.0930928,244.686693 117.783934,241.63192 C111.770411,260.606467 101.886167,261.052124 96.9620081,259.477857" id="Fill-347" fill="#58898A"></path>
                    <path d="M82.6484551,289.705287 C85.8945292,293.730086 94.3927305,298.787419 109.864023,286.245373 C91.7400123,277.976998 84.780828,285.001007 82.6484551,289.705287" id="Fill-349" fill="#58898A"></path>
                    <path d="M97.8939941,201.832137 C87.7142314,206.410244 68.8879284,222.879854 62.1315513,231.814977 C67.0696169,221.429445 84.2410131,203.089235 97.8939941,201.832137" id="Fill-351" fill="#9F5F2E"></path>
                    <path d="M90.7364064,201.275934 C88.016472,197.967658 85.3452114,190.225969 98.1464021,179.806868 C101.79925,195.891015 94.9188703,200.342949 90.7364064,201.275934" id="Fill-353" fill="#58898A"></path>
                    <path d="M90.7476477,209.363036 C93.7573066,206.315209 101.185845,202.850664 112.89883,214.475931 C97.2664506,219.787925 92.1128299,213.420246 90.7476477,209.363036" id="Fill-355" fill="#6CC5BA"></path>
                    <path d="M78.5656564,209.669324 C74.866453,207.507022 69.6780653,201.168282 78.0731246,186.967468 C87.0766055,200.790921 82.1663534,207.349595 78.5656564,209.669324" id="Fill-357" fill="#6CC5BA"></path>
                    <path d="M99.7569231,200.464376 C100.934364,196.346974 105.78783,189.747786 121.648512,194.333996 C110.484845,206.487105 102.904491,203.368667 99.7569231,200.464376" id="Fill-359" fill="#6CC5BA"></path>
                    <path d="M78.4168538,218.170134 C79.4459555,222.326893 84.0595297,229.095083 100.074345,225.080703 C89.354536,212.535184 81.6664047,215.38044 78.4168538,218.170134" id="Fill-361" fill="#58898A"></path>
                    <path d="M33.3799797,315.502545 C46.6400941,317.883624 73.5103102,331.6492 84.0435369,340.132878 C75.2138907,329.420917 49.7320347,312.975615 33.3799797,315.502545" id="Fill-363" fill="#9F5F2E"></path>
                    <path d="M41.5957574,312.756723 C43.8092532,308.087169 44.6633612,298.24337 26.6227913,289.793261 C27.0654905,309.691532 36.4259121,312.890998 41.5957574,312.756723" id="Fill-365" fill="#58898A"></path>
                    <path d="M43.9560856,322.226286 C39.5372064,319.540772 29.8256386,317.659754 19.5253504,334.697721 C39.3842318,336.340284 43.5481534,327.375065 43.9560856,322.226286" id="Fill-367" fill="#6CC5BA"></path>
                    <path d="M58.307071,319.020453 C62.0016388,315.404269 66.2177108,306.464517 52.221696,292.299587 C45.73766,311.117865 53.4107256,317.357055 58.307071,319.020453" id="Fill-369" fill="#58898A"></path>
                    <path d="M30.7978383,314.446745 C28.2134951,309.972817 20.5937388,303.666489 3.37250996,313.679289 C20.0073362,324.638966 27.9654909,318.769033 30.7978383,314.446745" id="Fill-371" fill="#6CC5BA"></path>
                    <path d="M60.9733483,328.927454 C60.9907318,334.093596 57.5754585,343.369038 37.649361,343.357463 C46.5172508,325.53352 56.3516619,326.612356 60.9733483,328.927454" id="Fill-373" fill="#6CC5BA"></path>
                    <path d="M23.8059731,243.590957 C34.0170261,248.100768 52.9569011,264.436103 59.7758587,273.327239 C54.7636235,262.975276 37.4670663,244.751979 23.8059731,243.590957" id="Fill-375" fill="#9F5F2E"></path>
                    <path d="M30.959157,242.985095 C33.6547544,239.658299 36.2738646,231.899246 23.4019811,221.568119 C19.859229,237.677732 26.7697396,242.082207 30.959157,242.985095" id="Fill-377" fill="#58898A"></path>
                    <path d="M31.0044699,251.072082 C27.9727919,248.046248 20.5210758,244.633793 8.88921356,256.338931 C24.5575186,261.543272 29.6659424,255.138552 31.0044699,251.072082" id="Fill-379" fill="#6CC5BA"></path>
                    <path d="M43.1876201,251.294794 C46.8717578,249.105868 52.0184252,242.732402 43.5237006,228.589466 C34.6152494,242.476584 39.5718574,248.999374 43.1876201,251.294794" id="Fill-381" fill="#6CC5BA"></path>
                    <g id="Group-385" transform="translate(0.000000, 234.270602)">
                        <mask id="mask-6" fill="white">
                            <use xlink:href="#path-5"></use>
                        </mask>
                        <g id="Clip-384"></g>
                        <path d="M21.9329617,7.96498053 C20.7277074,3.85683829 15.8290443,-2.70878096 -0.000347669491,1.98623873 C11.2467604,14.0617923 18.806254,10.891265 21.9329617,7.96498053" id="Fill-383" fill="#58898A" mask="url(#mask-6)"></path>
                    </g>
                    <path d="M43.3952947,259.794331 C42.3963244,263.956878 37.8291061,270.75748 21.7864769,266.854224 C32.4193689,254.234622 40.1260426,257.025473 43.3952947,259.794331" id="Fill-386" fill="#58898A"></path>
                    <path d="M30.8368932,179.285971 C40.6376962,188.518584 55.6071856,214.717396 59.7838551,227.57198 C58.2506326,213.780939 45.9118424,186.098149 30.8368932,179.285971" id="Fill-388" fill="#9F5F2E"></path>
                    <path d="M39.2186252,181.473276 C43.6282333,178.769241 49.7309917,170.992826 39.2464388,154.067141 C28.7282778,170.97199 34.8171294,178.761139 39.2186252,181.473276" id="Fill-390" fill="#58898A"></path>
                    <path d="M36.0134602,190.690725 C33.7825809,186.028117 26.6796932,179.151117 8.73067627,187.796852 C24.4615619,200.012469 32.8531445,194.779189 36.0134602,190.690725" id="Fill-392" fill="#6CC5BA"></path>
                    <path d="M49.7855758,195.839736 C54.8569148,194.829195 63.2809466,189.646847 59.3128788,170.142143 C43.5831521,182.360075 46.5951288,191.773265 49.7855758,195.839736" id="Fill-394" fill="#58898A"></path>
                    <path d="M29.2519839,176.992288 C29.535914,171.834248 26.6062191,162.394434 6.70561737,161.376948 C14.6382763,179.633815 24.5155665,179.065458 29.2519839,176.992288" id="Fill-396" fill="#6CC5BA"></path>
                    <path d="M46.5974466,205.591856 C43.7848004,209.928036 35.8498237,215.830379 19.1686415,204.942471 C36.34815,194.857902 43.994561,201.130662 46.5974466,205.591856" id="Fill-398" fill="#6CC5BA"></path>
                    <path d="M485.775287,212.858256 C486.606217,213.822495 487.103384,215.052969 487.103384,216.394569 C487.103384,218.918026 485.3407,221.051389 482.913967,221.755179 C482.018138,223.777418 479.904308,225.198888 477.44049,225.198888 C475.559598,225.198888 473.883831,224.370083 472.796785,223.080573 C469.806827,222.792344 467.471647,220.405477 467.471647,217.502344 L467.473965,217.378486 C466.808757,216.473282 466.419367,215.372453 466.419367,214.185965 C466.419367,212.310735 467.391683,210.653125 468.886662,209.634481 C469.592431,207.284656 471.880096,205.562223 474.593077,205.562223 C475.702143,205.562223 476.738198,205.850453 477.625914,206.350514 C478.358338,206.043764 479.169566,205.872446 480.023674,205.872446 C483.29988,205.872446 485.956075,208.384328 485.956075,211.480772 C485.956075,211.956525 485.894653,212.41723 485.775287,212.858256" id="Fill-400" fill="#EE848B"></path>
                    <path d="M476.761028,219.458718 C479.009291,219.458718 480.843827,217.626317 480.843827,215.380672 C480.843827,213.133868 479.009291,211.302626 476.761028,211.302626 C474.513924,211.302626 472.679388,213.133868 472.679388,215.380672 C472.679388,217.626317 474.513924,219.458718 476.761028,219.458718" id="Fill-402" fill="#D95B63"></path>
                    <path d="M476.761028,212.860455 C478.154024,212.860455 479.28395,213.989066 479.28395,215.38044 C479.28395,216.772972 478.154024,217.900425 476.761028,217.900425 C475.368032,217.900425 474.238106,216.772972 474.238106,215.381598 C474.238106,213.989066 475.368032,212.860455 476.761028,212.860455" id="Fill-404" fill="#F9DAC3"></path>
                    <path d="M534.774898,310.742356 C535.605828,311.707752 536.104154,312.938226 536.104154,314.279826 C536.104154,316.802126 534.340311,318.936647 531.913578,319.640437 C531.017749,321.663833 528.905078,323.082988 526.440101,323.082988 C524.560368,323.082988 522.883442,322.25534 521.796396,320.96583 C518.806438,320.677601 516.472417,318.289577 516.472417,315.386443 L516.473576,315.263743 C515.808368,314.358539 515.418978,313.25771 515.418978,312.070065 C515.418978,310.195992 516.392453,308.537224 517.886273,307.519739 C518.592042,305.169914 520.880866,303.44748 523.592688,303.44748 C524.701754,303.44748 525.737809,303.73571 526.624366,304.235771 C527.359107,303.929021 528.170336,303.757704 529.023285,303.757704 C532.299491,303.757704 534.955686,306.269585 534.955686,309.36603 C534.955686,309.841782 534.893105,310.302487 534.774898,310.742356" id="Fill-406" fill="#EE848B"></path>
                    <path d="M525.761798,317.343975 C528.008902,317.343975 529.843438,315.511574 529.843438,313.265929 C529.843438,311.019126 528.008902,309.187883 525.761798,309.187883 C523.513535,309.187883 521.678999,311.019126 521.678999,313.265929 C521.678999,315.511574 523.513535,317.343975 525.761798,317.343975" id="Fill-408" fill="#D95B63"></path>
                    <path d="M525.760639,310.745712 C527.154794,310.745712 528.284719,311.874323 528.284719,313.265697 C528.284719,314.658229 527.154794,315.785682 525.760639,315.785682 C524.367643,315.785682 523.237717,314.658229 523.237717,313.265697 C523.237717,311.874323 524.367643,310.745712 525.760639,310.745712" id="Fill-410" fill="#F9DAC3"></path>
                    <path d="M459.049353,142.409347 C459.879125,143.374743 460.376292,144.605218 460.376292,145.946817 C460.376292,148.469117 458.613608,150.603638 456.186875,151.307428 C455.291046,153.330824 453.178375,154.749979 450.713398,154.749979 C448.832506,154.749979 447.156739,153.922331 446.069692,152.632821 C443.079735,152.344592 440.744555,149.956568 440.745714,147.053434 L440.746872,146.930734 C440.081665,146.02553 439.692275,144.924701 439.692275,143.738213 C439.692275,141.862983 440.664591,140.205373 442.159569,139.18673 C442.865339,136.836905 445.154163,135.114471 447.865985,135.114471 C448.97505,135.114471 450.009947,135.402701 450.898822,135.902762 C451.632404,135.596012 452.443633,135.424695 453.296582,135.424695 C456.572788,135.424695 459.228983,137.935419 459.228983,141.033021 C459.228983,141.508773 459.167561,141.96832 459.049353,142.409347" id="Fill-412" fill="#EE848B"></path>
                    <path d="M450.034979,149.009924 C452.283242,149.009924 454.116619,147.178681 454.116619,144.933035 C454.116619,142.686232 452.283242,140.854989 450.034979,140.854989 C447.786716,140.854989 445.95218,142.686232 445.95218,144.933035 C445.95218,147.178681 447.786716,149.009924 450.034979,149.009924" id="Fill-414" fill="#D95B63"></path>
                    <path d="M450.034979,142.412819 C451.427975,142.412819 452.5579,143.54143 452.5579,144.932804 C452.5579,146.325336 451.427975,147.452789 450.034979,147.452789 C448.640824,147.452789 447.510898,146.325336 447.510898,144.932804 C447.510898,143.54143 448.640824,142.412819 450.034979,142.412819" id="Fill-416" fill="#F9DAC3"></path>
                    <path d="M432.693456,53.8173578 C433.523228,54.7815963 434.021554,56.0120711 434.021554,57.3536707 C434.021554,59.877128 432.257711,62.0116488 429.830978,62.7142812 C428.935149,64.7376772 426.822478,66.1579902 424.357501,66.1579902 C422.477768,66.1579902 420.800842,65.3291849 419.714954,64.0396751 C416.723838,63.7514453 414.389817,61.3645788 414.389817,58.4614453 L414.392134,58.3375875 C413.726927,57.432384 413.337537,56.3315547 413.336378,55.1450667 C413.336378,53.2709945 414.309853,51.6122265 415.803672,50.5935832 C416.5106,48.2437582 418.798266,46.5213249 421.511247,46.5213249 C422.619153,46.5213249 423.655208,46.8095547 424.542925,47.309616 C425.276507,47.0028654 426.087736,46.8327057 426.940685,46.8327057 C430.216891,46.8327057 432.873086,49.34343 432.873086,52.4398742 C432.873086,52.9156269 432.811664,53.3763315 432.693456,53.8173578" id="Fill-418" fill="#EE848B"></path>
                    <path d="M423.679082,60.4178193 C425.927344,60.4178193 427.760722,58.5854188 427.760722,56.3397733 C427.760722,54.0929702 425.927344,52.2617274 423.679082,52.2617274 C421.430819,52.2617274 419.597442,54.0929702 419.597442,56.3397733 C419.597442,58.5854188 421.430819,60.4178193 423.679082,60.4178193" id="Fill-420" fill="#D95B63"></path>
                    <path d="M423.679082,53.8195571 C425.072078,53.8195571 426.202003,54.9481676 426.202003,56.3406993 C426.202003,57.7320735 425.072078,58.8595265 423.679082,58.8595265 C422.284927,58.8595265 421.155001,57.7320735 421.155001,56.3406993 C421.155001,54.9481676 422.286086,53.8195571 423.679082,53.8195571" id="Fill-422" fill="#F9DAC3"></path>
                    <path d="M486.418128,81.1531144 C487.249058,82.1185105 487.746225,83.3489853 487.746225,84.6905849 C487.746225,87.2140422 485.982382,89.348563 483.555649,90.0511954 C482.660979,92.0745915 480.547149,93.4949044 478.083331,93.4949044 C476.202439,93.4949044 474.525513,92.6660991 473.439625,91.3765893 C470.448509,91.0883595 468.114488,88.7003354 468.114488,85.7983595 L468.115647,85.6745018 C467.451598,84.7692982 467.061049,83.6684689 467.061049,82.481981 C467.061049,80.6079088 468.034524,78.9491407 469.528344,77.9304974 C470.235272,75.5795149 472.522937,73.8593967 475.234759,73.8593967 C476.343825,73.8593967 477.37988,74.1464689 478.267596,74.6465302 C479.001178,74.3397796 479.812407,74.1696199 480.665356,74.1696199 C483.941562,74.1696199 486.597757,76.6803442 486.597757,79.7767884 C486.597757,80.2525411 486.536335,80.7132457 486.418128,81.1531144" id="Fill-424" fill="#EE848B"></path>
                    <path d="M477.403753,87.7547335 C479.652016,87.7547335 481.486552,85.922333 481.486552,83.6766875 C481.486552,81.4298845 479.652016,79.5986416 477.403753,79.5986416 C475.15549,79.5986416 473.320954,81.4298845 473.320954,83.6766875 C473.320954,85.922333 475.15549,87.7547335 477.403753,87.7547335" id="Fill-426" fill="#D95B63"></path>
                    <path d="M477.403753,81.1564713 C478.796749,81.1564713 479.926675,82.2850818 479.926675,83.6776136 C479.926675,85.0689877 478.796749,86.1975982 477.403753,86.1975982 C476.010757,86.1975982 474.879672,85.0689877 474.879672,83.6776136 C474.879672,82.2850818 476.010757,81.1564713 477.403753,81.1564713" id="Fill-428" fill="#F9DAC3"></path>
                    <path d="M311.454963,477.349227 C312.285893,478.314623 312.784219,479.54394 312.784219,480.886698 C312.784219,483.408997 311.019217,485.543518 308.592484,486.247308 C307.697814,488.269547 305.583984,489.68986 303.120166,489.68986 C301.239274,489.68986 299.562348,488.862212 298.47646,487.572702 C295.485344,487.284472 293.151323,484.896448 293.151323,481.993315 L293.152482,481.870614 C292.488433,480.965411 292.099043,479.864582 292.099043,478.676936 C292.099043,476.804021 293.071359,475.144096 294.565179,474.12661 C295.272107,471.776785 297.559772,470.054352 300.272753,470.054352 C301.38066,470.054352 302.416715,470.342582 303.304431,470.842643 C304.038013,470.535892 304.849242,470.364575 305.70335,470.364575 C308.978397,470.364575 311.634592,472.875299 311.634592,475.972901 C311.634592,476.448654 311.57317,476.909358 311.454963,477.349227" id="Fill-430" fill="#EE848B"></path>
                    <path d="M302.440704,483.950846 C304.688967,483.950846 306.523503,482.118446 306.523503,479.8728 C306.523503,477.625997 304.688967,475.794754 302.440704,475.794754 C300.192441,475.794754 298.359064,477.625997 298.359064,479.8728 C298.359064,482.118446 300.192441,483.950846 302.440704,483.950846" id="Fill-432" fill="#D95B63"></path>
                    <path d="M302.440704,477.352584 C303.8337,477.352584 304.963625,478.481195 304.963625,479.872569 C304.963625,481.263943 303.8337,482.391396 302.440704,482.391396 C301.046549,482.391396 299.916623,481.2651 299.916623,479.872569 C299.916623,478.481195 301.046549,477.352584 302.440704,477.352584" id="Fill-434" fill="#F9DAC3"></path>
                    <path d="M195.659119,369.950304 C196.48889,370.9157 196.987216,372.145018 196.987216,373.486617 C196.987216,376.010075 195.223373,378.144595 192.797799,378.848385 C191.900811,380.870624 189.78814,382.289779 187.323163,382.289779 C185.44343,382.289779 183.767663,381.463289 182.680617,380.172622 C179.6895,379.884392 177.355479,377.497525 177.355479,374.594392 L177.356638,374.471692 C176.692589,373.565331 176.30204,372.465659 176.30204,371.278013 C176.30204,369.403941 177.275515,367.745173 178.769335,366.72653 C179.476263,364.376705 181.763928,362.655429 184.476909,362.655429 C185.584816,362.655429 186.62203,362.942501 187.508587,363.44372 C188.242169,363.135812 189.052239,362.965652 189.907506,362.965652 C193.182553,362.965652 195.839907,365.476377 195.839907,368.573978 C195.839907,369.048574 195.776167,369.509278 195.659119,369.950304" id="Fill-436" fill="#EE848B"></path>
                    <path d="M186.645439,376.550882 C188.893702,376.550882 190.727079,374.718481 190.727079,372.472836 C190.727079,370.22719 188.893702,368.39479 186.645439,368.39479 C184.396018,368.39479 182.561482,370.22719 182.561482,372.472836 C182.561482,374.718481 184.396018,376.550882 186.645439,376.550882" id="Fill-438" fill="#D95B63"></path>
                    <path d="M186.64486,369.952619 C188.039015,369.952619 189.167782,371.08123 189.167782,372.473762 C189.167782,373.865136 188.039015,374.992589 186.64486,374.992589 C185.250705,374.992589 184.121938,373.865136 184.121938,372.473762 C184.121938,371.08123 185.250705,369.952619 186.64486,369.952619" id="Fill-440" fill="#F9DAC3"></path>
                    <path d="M88.82434,399.5537 C89.6541112,400.519096 90.1524375,401.748413 90.1524375,403.090013 C90.1524375,405.61347 88.3885943,407.747991 85.9618612,408.451781 C85.0660328,410.475177 82.9533612,411.894332 80.4883845,411.894332 C78.6074926,411.894332 76.9317256,411.066685 75.844679,409.776017 C72.8547214,409.488945 70.5207002,407.100921 70.5207002,404.197788 L70.523018,404.075087 C69.8566515,403.168726 69.4672617,402.069054 69.4672617,400.881409 C69.4672617,399.007337 70.4395773,397.349726 71.9333972,396.329925 C72.6414841,393.9801 74.9291494,392.258825 77.6409714,392.258825 C78.7488782,392.258825 79.7860922,392.545897 80.6726494,393.045958 C81.406232,392.739208 82.2186197,392.569048 83.0715689,392.569048 C86.3477744,392.569048 89.0039693,395.079772 89.0051282,398.178532 C89.0039693,398.651969 88.9413888,399.112674 88.82434,399.5537" id="Fill-442" fill="#EE848B"></path>
                    <path d="M79.8099655,406.154277 C82.0593871,406.154277 83.8927642,404.323034 83.8927642,402.076231 C83.8927642,399.830586 82.0593871,397.998185 79.8099655,397.998185 C77.5617028,397.998185 75.7283256,399.830586 75.7283256,402.076231 C75.7283256,404.323034 77.5617028,406.154277 79.8099655,406.154277" id="Fill-444" fill="#D95B63"></path>
                    <path d="M79.8095019,399.556015 C81.2024977,399.557173 82.3324235,400.685783 82.3324235,402.077157 C82.3324235,403.468532 81.2036566,404.595984 79.8095019,404.595984 C78.4153472,404.595984 77.2865803,403.468532 77.2865803,402.077157 C77.2865803,400.684626 78.4165061,399.556015 79.8095019,399.556015" id="Fill-446" fill="#F9DAC3"></path>
                    <path d="M106.745312,307.988662 C107.575083,308.954058 108.07225,310.183375 108.07225,311.524975 C108.07225,314.048432 106.309566,316.182953 103.882833,316.886743 C102.985846,318.910139 100.873174,320.329294 98.4093561,320.329294 C96.5284642,320.329294 94.8526972,319.501646 93.7656506,318.212137 C90.7745341,317.922749 88.4416718,315.535883 88.4416718,312.632749 L88.4428307,312.510049 C87.7776231,311.604846 87.3870744,310.504016 87.3870744,309.317528 C87.3870744,307.442298 88.3605489,305.78353 89.8543689,304.766045 C90.5624557,302.41622 92.8489621,300.693786 95.5607841,300.693786 C96.6698498,300.693786 97.7059049,300.982016 98.593621,301.482077 C99.3272036,301.175327 100.138432,301.00401 100.99254,301.00401 C104.268746,301.00401 106.924941,303.514734 106.924941,306.613493 C106.924941,307.088088 106.86236,307.547635 106.745312,307.988662" id="Fill-448" fill="#EE848B"></path>
                    <path d="M97.7304735,314.589239 C99.9787362,314.589239 101.813272,312.757996 101.813272,310.511193 C101.813272,308.265547 99.9787362,306.433147 97.7304735,306.433147 C95.4822108,306.433147 93.6476748,308.265547 93.6476748,310.511193 C93.6476748,312.757996 95.4822108,314.589239 97.7304735,314.589239" id="Fill-450" fill="#D95B63"></path>
                    <path d="M97.7298941,307.992019 C99.1240487,307.992019 100.252816,309.119472 100.252816,310.512003 C100.252816,311.903377 99.1240487,313.031988 97.7298941,313.031988 C96.3368983,313.031988 95.2069725,311.903377 95.2069725,310.512003 C95.2069725,309.119472 96.3368983,307.992019 97.7298941,307.992019" id="Fill-452" fill="#F9DAC3"></path>
                    <path d="M51.6037714,281.13896 C52.4347015,282.104356 52.9318689,283.333673 52.9318689,284.675273 C52.9318689,287.19873 51.1680256,289.333251 48.7412926,290.037041 C47.8454642,292.059279 45.7327926,293.479592 43.2678159,293.479592 C41.3869239,293.479592 39.711157,292.651945 38.6252693,291.362435 C35.6341528,291.074205 33.3001316,288.686181 33.3001316,285.783047 L33.3024494,285.660347 C32.6372417,284.755144 32.246693,283.654314 32.246693,282.467826 C32.2478519,280.592597 33.2201676,278.933829 34.7128286,277.916343 C35.4209155,275.56536 37.7085807,273.844085 40.4215617,273.844085 C41.5294684,273.844085 42.5655235,274.132314 43.4532396,274.632376 C44.1868222,274.324468 44.9980511,274.154308 45.8521591,274.154308 C49.1272057,274.154308 51.7845595,276.665032 51.7845595,279.763791 C51.7845595,280.238387 51.7208201,280.699091 51.6037714,281.13896" id="Fill-454" fill="#EE848B"></path>
                    <path d="M42.5899763,287.739421 C44.838239,287.739421 46.672775,285.908179 46.672775,283.662533 C46.672775,281.41573 44.838239,279.58333 42.5899763,279.58333 C40.3417136,279.58333 38.5071775,281.41573 38.5071775,283.662533 C38.5071775,285.908179 40.3417136,287.739421 42.5899763,287.739421" id="Fill-456" fill="#D95B63"></path>
                    <path d="M42.5895127,281.142317 C43.9825085,281.142317 45.1124343,282.270927 45.1124343,283.662302 C45.1124343,285.053676 43.9825085,286.182286 42.5895127,286.182286 C41.1953581,286.182286 40.0665911,285.053676 40.0665911,283.662302 C40.0665911,282.270927 41.1953581,281.142317 42.5895127,281.142317" id="Fill-458" fill="#F9DAC3"></path>
                    <path d="M66.078643,151.708171 C66.9084142,152.673567 67.4067405,153.904042 67.4067405,155.245642 C67.4067405,157.767941 65.6428972,159.902462 63.2161642,160.606252 C62.3203358,162.629648 60.2076642,164.048804 57.7426875,164.048804 C55.8617956,164.048804 54.1860286,163.221156 53.098982,161.931646 C50.1090244,161.643416 47.7750032,159.25655 47.7750032,156.352259 L47.777321,156.229558 C47.1109544,155.324355 46.7215646,154.224683 46.7215646,153.037038 C46.7215646,151.162965 47.6938803,149.504197 49.1888591,148.485554 C49.8957871,146.135729 52.1834523,144.413296 54.8952744,144.413296 C56.00434,144.413296 57.0403951,144.701526 57.9281112,145.201587 C58.660535,144.894836 59.4717638,144.723519 60.3258718,144.723519 C63.6020773,144.723519 66.2594311,147.235401 66.2594311,150.333003 C66.2594311,150.807598 66.1956917,151.268302 66.078643,151.708171" id="Fill-460" fill="#EE848B"></path>
                    <path d="M57.0643843,158.309906 C59.312647,158.309906 61.1471831,156.477505 61.1471831,154.23186 C61.1471831,151.985057 59.312647,150.153814 57.0643843,150.153814 C54.8161216,150.153814 52.9815856,151.985057 52.9815856,154.23186 C52.9815856,156.477505 54.8161216,158.309906 57.0643843,158.309906" id="Fill-462" fill="#D95B63"></path>
                    <path d="M57.0638049,151.712686 C58.4579595,151.712686 59.5867265,152.840139 59.5878854,154.231513 C59.5867265,155.624044 58.4579595,156.751497 57.0649638,156.752655 C55.6708091,156.752655 54.5408833,155.624044 54.5408833,154.231513 C54.5408833,152.840139 55.6708091,151.712686 57.0638049,151.712686" id="Fill-464" fill="#F9DAC3"></path>
                    <path d="M216.99235,40.1730934 C218.439814,41.8538549 219.30667,43.9987937 219.30667,46.334728 C219.30667,50.7334151 216.233272,54.4526208 212.005611,55.6784654 C210.444575,59.2020453 206.761596,61.6768856 202.466719,61.6768856 C199.190514,61.6768856 196.27009,60.2357368 194.375291,57.9866186 C189.164884,57.4853998 185.097151,53.3228527 185.097151,48.2643626 L185.100628,48.0525311 C183.94173,46.4724764 183.262615,44.5555748 183.262615,42.4870344 C183.262615,39.221588 184.956925,36.3311875 187.55981,34.555507 C188.792878,30.4600978 192.778329,27.4620453 197.505475,27.4620453 C199.437359,27.4620453 201.242922,27.9621066 202.788893,28.8337411 C204.067158,28.2989534 205.481014,28.0014632 206.969039,28.0014632 C212.677772,28.0014632 217.306412,32.3781569 217.306412,37.775809 C217.306412,38.6022991 217.197475,39.4056383 216.99235,40.1730934" id="Fill-466" fill="#EE848B"></path>
                    <path d="M201.283832,37.4635022 C205.213656,37.4635022 208.399467,40.645605 208.398308,44.5696969 C208.398308,48.4937888 205.213656,51.6747341 201.283832,51.6747341 C197.355166,51.6747341 194.170514,48.4937888 194.170514,44.5696969 C194.170514,40.645605 197.355166,37.4635022 201.283832,37.4635022" id="Fill-468" fill="#D95B63"></path>
                    <path d="M201.284411,48.9609757 C203.70535,48.9609757 205.680112,46.9873543 205.680112,44.5692339 C205.680112,42.149956 203.70535,40.1774921 201.284411,40.1774921 C198.863472,40.1774921 196.887551,42.149956 196.887551,44.5692339 C196.887551,46.9873543 198.863472,48.9609757 201.284411,48.9609757" id="Fill-470" fill="#F9DAC3"></path>
                    <path d="M250.544311,62.0863107 C258.070196,53.8491904 279.596732,41.1034158 290.201811,37.4698687 C278.783186,38.9272232 255.989974,49.5176411 250.544311,62.0863107" id="Fill-472" fill="#9F5F2E"></path>
                    <path d="M252.243719,55.1206425 C249.942147,51.5090888 243.407119,46.5640385 229.51077,55.4713799 C243.677143,63.9446403 250.05456,58.8004915 252.243719,55.1206425" id="Fill-474" fill="#58898A"></path>
                    <path d="M259.9344,57.6460676 C256.097288,59.5560239 250.490538,65.5289779 257.907487,80.2645796 C267.825339,67.0789363 263.369375,60.205409 259.9344,57.6460676" id="Fill-476" fill="#6CC5BA"></path>
                    <path d="M264.018242,46.1790376 C263.109665,41.9944972 258.695422,35.0955037 242.570511,38.6457072 C252.92179,51.4945037 260.688727,48.8738123 264.018242,46.1790376" id="Fill-478" fill="#6CC5BA"></path>
                    <path d="M248.663998,63.4292993 C244.381869,63.2649274 236.591754,65.818481 236.0181,82.3019821 C251.054805,75.4874897 250.448701,67.3198223 248.663998,63.4292993" id="Fill-480" fill="#58898A"></path>
                    <path d="M272.150926,48.6829324 C275.785232,50.9528864 280.790513,57.4386348 271.985204,71.3905757 C263.386179,57.3124619 268.484172,50.8996392 272.150926,48.6829324" id="Fill-482" fill="#58898A"></path>
                    <path d="M171.960575,86.1144862 C160.946406,84.2890311 136.13787,87.5672105 125.553652,91.2621077 C135.430942,85.3551339 159.90108,79.5997991 171.960575,86.1144862" id="Fill-484" fill="#9F5F2E"></path>
                    <path d="M166.312569,81.688944 C165.886094,77.4291628 167.959363,69.5080534 184.396018,67.924526 C178.507656,83.334979 170.310768,83.229642 166.312569,81.688944" id="Fill-486" fill="#58898A"></path>
                    <path d="M161.832036,88.4250702 C166.029566,87.5557508 174.133742,88.7862256 177.427331,104.947928 C161.47046,100.711298 160.717176,92.5563635 161.832036,88.4250702" id="Fill-488" fill="#6CC5BA"></path>
                    <path d="M151.523636,81.9342287 C149.64622,78.0853775 148.845422,69.9362309 163.716405,62.7663709 C163.535617,79.2579748 155.808083,81.9967363 151.523636,81.9342287" id="Fill-490" fill="#6CC5BA"></path>
                    <path d="M174.269796,86.0082232 C177.534413,83.2335777 185.236451,80.4299934 195.890203,93.0299168 C179.854527,96.9621116 175.276879,90.1696127 174.269796,86.0082232" id="Fill-492" fill="#58898A"></path>
                    <path d="M146.682106,88.925826 C145.230007,92.9540974 145.312288,101.142601 160.870498,106.669898 C158.91196,90.2952068 150.935263,88.4037713 146.682106,88.925826" id="Fill-494" fill="#58898A"></path>
                    <path d="M145.371508,59.6276761 C135.710932,65.2163239 118.655425,83.5079168 112.841233,93.0831641 C116.700364,82.2496608 131.916699,62.2622582 145.371508,59.6276761" id="Fill-496" fill="#9F5F2E"></path>
                    <path d="M138.195146,59.800614 C135.153038,56.7851982 131.708792,49.3560473 143.383534,37.6914236 C148.653044,53.3218109 142.26172,58.449754 138.195146,59.800614" id="Fill-498" fill="#58898A"></path>
                    <path d="M126.940042,69.3866265 C123.040349,67.6097884 117.23311,61.8301451 124.141302,46.8491429 C134.50533,59.6898365 130.285781,66.7115302 126.940042,69.3866265" id="Fill-500" fill="#6CC5BA"></path>
                    <path d="M147.086098,58.0778335 C147.838223,53.8631967 151.995191,46.8067766 168.240628,49.7585271 C158.370291,62.981212 150.511801,60.6487503 147.086098,58.0778335" id="Fill-502" fill="#58898A"></path>
                    <path d="M251.823271,23.8126398 C262.703008,21.3100184 287.665678,23.05213 298.459656,26.0872241 C288.235856,20.7995392 263.456292,16.5652241 251.823271,23.8126398" id="Fill-504" fill="#9F5F2E"></path>
                    <path d="M257.185957,19.0478199 C257.349361,14.7695179 254.789355,6.98962954 238.286643,6.42474551 C245.114872,21.4404742 253.2909,20.8304457 257.185957,19.0478199" id="Fill-506" fill="#58898A"></path>
                    <path d="M271.961331,18.3786407 C273.597695,14.4221374 273.893214,6.23942188 258.607346,0.000231509847 C259.807964,16.4501637 267.688473,18.7050696 271.961331,18.3786407" id="Fill-508" fill="#6CC5BA"></path>
                    <path d="M249.511616,23.8499129 C246.081277,21.2813112 238.22047,18.9581098 228.365199,32.1912127 C244.614112,35.1256 248.764127,28.0633921 249.511616,23.8499129" id="Fill-510" fill="#58898A"></path>
                </g>
                <text id="" fill="white" filter="url(#filter-7)" font-family="DFPuDingStd-W12, DFPuDing Std" font-size="72.6694915" font-weight="300">
                    <tspan x="127.689225" y="265" fill="#000000"></tspan>
                </text>
            </g>
        </g>
    </g>
</svg>