<?xml version="1.0" encoding="UTF-8" standalone="no"?>
<svg width="441px" height="247px" viewBox="0 0 441 247" version="1.1" xmlns="http://www.w3.org/2000/svg" xmlns:xlink="http://www.w3.org/1999/xlink">
    <!-- Generator: Sketch 3.6.1 (26313) - http://www.bohemiancoding.com/sketch -->
    <title>Group 2</title>
    <desc>Created with Sketch.</desc>
    <defs>
        <path id="path-1" d="M0.598707504,78.1524105 L73.880698,78.1524105 L73.880698,0.0695851928 L0.598707504,0.0695851928 L0.598707504,78.1524105 L0.598707504,78.1524105 Z"></path>
    </defs>
    <g id="Page-1" stroke="none" stroke-width="1" fill="none" fill-rule="evenodd">
        <g id="Desktop-Landscape" transform="translate(-420.000000, -790.000000)">
            <g id="Group-2" transform="translate(418.000000, 788.000000)">
                <g id="Page-1" transform="translate(2.000000, 22.000000)">
                    <path d="M45.5892071,17.5074532 C45.5892071,17.5074532 44.4763061,2.64067287 63.383141,0 C63.383141,0 64.6333344,16.6736659 45.5892071,17.5074532" id="Fill-1" fill="#5EB7BF"></path>
                    <path d="M38.7430981,27.687351 C38.7430981,27.687351 45.4163434,14.3529927 63.0001783,21.7759865 C63.0001783,21.7759865 55.5219,36.7321754 38.7430981,27.687351" id="Fill-3" fill="#5EB7BF"></path>
                    <path d="M38.2197226,1.98944551 C38.2197226,1.98944551 49.0512651,12.2402465 36.8405575,26.9094961 C36.8405575,26.9094961 24.6922557,15.4152917 38.2197226,1.98944551" id="Fill-5" fill="#5EB7BF"></path>
                    <path d="M29.1382429,41.8141191 C29.1382429,41.8141191 34.2222241,27.7977603 52.5486863,33.1373256 C52.5486863,33.1373256 46.8510495,48.8586858 29.1382429,41.8141191" id="Fill-7" fill="#5EB7BF"></path>
                    <path d="M25.64415,16.3490919 C25.64415,16.3490919 37.5885934,25.2795564 27.1585274,41.2608254 C27.1585274,41.2608254 13.7600321,31.2491405 25.64415,16.3490919" id="Fill-9" fill="#5EB7BF"></path>
                    <path d="M22.3168882,57.5939069 C22.3168882,57.5939069 24.8359967,42.8976267 43.8197986,44.9082808 C43.8197986,44.9082808 40.9990627,61.3906539 22.3168882,57.5939069" id="Fill-11" fill="#5EB7BF"></path>
                    <path d="M14.3641189,33.1506329 C14.3641189,33.1506329 27.7022887,39.8250895 20.2697745,57.3990793 C20.2697745,57.3990793 5.30905755,49.9178659 14.3641189,33.1506329" id="Fill-13" fill="#5EB7BF"></path>
                    <path d="M18.6857108,74.2673649 C18.6857108,74.2673649 19.4096165,59.3756333 38.4974278,59.0782977 C38.4974278,59.0782977 37.6882344,75.7789941 18.6857108,74.2673649" id="Fill-15" fill="#5EB7BF"></path>
                    <path d="M7.83669481,50.9637387 C7.83669481,50.9637387 21.884209,55.9768586 16.6317325,74.3222576 C16.6317325,74.3222576 0.876383491,68.7019909 7.83669481,50.9637387" id="Fill-17" fill="#5EB7BF"></path>
                    <path d="M16.7105717,91.3234085 C16.7105717,91.3234085 15.3938123,76.4711831 34.2632038,73.5726808 C34.2632038,73.5726808 35.7422179,90.2276333 16.7105717,91.3234085" id="Fill-19" fill="#5EB7BF"></path>
                    <path d="M2.78017217,69.718338 C2.78017217,69.718338 17.3810165,72.7686271 14.6830118,91.6567155 C14.6830118,91.6567155 -1.69223349,88.2404749 2.78017217,69.718338" id="Fill-21" fill="#5EB7BF"></path>
                    <path d="M18.1011778,108.292955 C18.1011778,108.292955 13.7494231,94.0312418 31.6140835,87.3068827 C31.6140835,87.3068827 36.4983665,103.298548 18.1011778,108.292955" id="Fill-23" fill="#5EB7BF"></path>
                    <g id="Group-27" transform="translate(0.000000, 89.666438)" fill="#5EB7BF">
                        <path d="M0.0135212264,0.356802727 C0.0135212264,0.356802727 14.9284741,0.331851488 16.184908,19.3717266 C16.184908,19.3717266 -0.541889151,19.4029157 0.0135212264,0.356802727" id="Fill-25"></path>
                    </g>
                    <path d="M21.6458193,125.608907 C21.6458193,125.608907 14.7749561,112.376433 31.1189986,102.518614 C31.1189986,102.518614 38.8281778,117.356284 21.6458193,125.608907" id="Fill-28" fill="#5EB7BF"></path>
                    <path d="M0.538144811,110.928221 C0.538144811,110.928221 15.2013948,108.193981 19.8984608,126.689088 C19.8984608,126.689088 3.45248915,129.75809 0.538144811,110.928221" id="Fill-30" fill="#5EB7BF"></path>
                    <path d="M27.8990745,141.831995 C27.8990745,141.831995 19.1872443,129.728565 33.9357821,117.614738 C33.9357821,117.614738 43.7085085,131.186133 27.8990745,141.831995" id="Fill-32" fill="#5EB7BF"></path>
                    <path d="M4.89156368,129.379871 C4.89156368,129.379871 19.0056439,124.558044 26.3258278,142.179857 C26.3258278,142.179857 10.4976722,147.592197 4.89156368,129.379871" id="Fill-34" fill="#5EB7BF"></path>
                    <path d="M37.9632354,156.722063 C37.9632354,156.722063 27.0380844,146.571067 39.1094193,131.791616 C39.1094193,131.791616 51.365891,143.171461 37.9632354,156.722063" id="Fill-36" fill="#5EB7BF"></path>
                    <path d="M12.9529189,149.043111 C12.9529189,149.043111 25.8396877,141.536947 36.4881736,157.374746 C36.4881736,157.374746 22.0371028,165.795789 12.9529189,149.043111" id="Fill-38" fill="#5EB7BF"></path>
                    <path d="M48.70845,170.713887 C48.70845,170.713887 36.4207755,162.263734 46.2101434,145.881165 C46.2101434,145.881165 59.9934736,155.356399 48.70845,170.713887" id="Fill-40" fill="#5EB7BF"></path>
                    <path d="M22.8456722,166.758699 C22.8456722,166.758699 34.5030495,157.456045 47.3440542,171.574289 C47.3440542,171.574289 34.2742288,182.010145 22.8456722,166.758699" id="Fill-42" fill="#5EB7BF"></path>
                    <path d="M61.3285387,181.943608 C61.3285387,181.943608 48.8037226,174.869932 56.8145292,158.29815 C56.8145292,158.29815 70.8641236,166.228486 61.3285387,181.943608" id="Fill-44" fill="#5EB7BF"></path>
                    <path d="M36.1430703,180.343402 C36.1430703,180.343402 46.5502542,170.414888 60.0922825,182.886349 C60.0922825,182.886349 48.4224241,194.022919 36.1430703,180.343402" id="Fill-46" fill="#5EB7BF"></path>
                    <path d="M76.3774557,190.844755 C76.3774557,190.844755 62.7501396,186.235013 67.5200123,168.459334 C67.5200123,168.459334 82.8052387,173.62632 76.3774557,190.844755" id="Fill-48" fill="#5EB7BF"></path>
                    <path d="M51.3367684,193.978838 C51.3367684,193.978838 59.7032873,182.280866 75.3379854,192.001453 C75.3379854,192.001453 65.9584146,205.123725 51.3367684,193.978838" id="Fill-50" fill="#5EB7BF"></path>
                    <path d="M91.8892146,198.307671 C91.8892146,198.307671 77.7522524,195.644126 79.9946958,177.37566 C79.9946958,177.37566 95.8519741,180.359412 91.8892146,198.307671" id="Fill-52" fill="#5EB7BF"></path>
                    <path d="M67.5308292,204.902699 C67.5308292,204.902699 74.1832726,192.150536 91.0224,199.598481 C91.0224,199.598481 83.5649236,213.8997 67.5308292,204.902699" id="Fill-54" fill="#5EB7BF"></path>
                    <path d="M107.442993,202.137894 C107.442993,202.137894 93.0626491,201.680454 92.4677151,183.285153 C92.4677151,183.285153 108.595418,183.794574 107.442993,202.137894" id="Fill-56" fill="#5EB7BF"></path>
                    <path d="M84.3901344,212.400962 C84.3901344,212.400962 88.9998325,198.777586 106.785446,203.545352 C106.785446,203.545352 101.618257,218.823827 84.3901344,212.400962" id="Fill-58" fill="#5EB7BF"></path>
                    <path d="M395.017637,17.5074532 C395.017637,17.5074532 396.130538,2.64067287 377.223703,0 C377.223703,0 375.97351,16.6736659 395.017637,17.5074532" id="Fill-60" fill="#5EB7BF"></path>
                    <path d="M401.863538,27.687351 C401.863538,27.687351 395.190293,14.3529927 377.606458,21.7759865 C377.606458,21.7759865 385.084736,36.7321754 401.863538,27.687351" id="Fill-62" fill="#5EB7BF"></path>
                    <path d="M402.386914,1.98944551 C402.386914,1.98944551 391.555371,12.2402465 403.766079,26.9094961 C403.766079,26.9094961 415.914381,15.4152917 402.386914,1.98944551" id="Fill-64" fill="#5EB7BF"></path>
                    <path d="M411.468601,41.8141191 C411.468601,41.8141191 406.38462,27.7977603 388.058158,33.1373256 C388.058158,33.1373256 393.755795,48.8586858 411.468601,41.8141191" id="Fill-66" fill="#5EB7BF"></path>
                    <path d="M414.962694,16.3490919 C414.962694,16.3490919 403.018251,25.2795564 413.448317,41.2608254 C413.448317,41.2608254 426.846812,31.2491405 414.962694,16.3490919" id="Fill-68" fill="#5EB7BF"></path>
                    <path d="M418.289748,57.5939069 C418.289748,57.5939069 415.77064,42.8976267 396.786838,44.9082808 C396.786838,44.9082808 399.609654,61.3906539 418.289748,57.5939069" id="Fill-70" fill="#5EB7BF"></path>
                    <path d="M426.242517,33.1506329 C426.242517,33.1506329 412.904348,39.8250895 420.336862,57.3990793 C420.336862,57.3990793 435.297579,49.9178659 426.242517,33.1506329" id="Fill-72" fill="#5EB7BF"></path>
                    <path d="M421.920925,74.2673649 C421.920925,74.2673649 421.19702,59.3756333 402.109208,59.0782977 C402.109208,59.0782977 402.918402,75.7789941 421.920925,74.2673649" id="Fill-74" fill="#5EB7BF"></path>
                    <path d="M432.769942,50.9637387 C432.769942,50.9637387 418.722427,55.9768586 423.974904,74.3222576 C423.974904,74.3222576 439.730253,68.7019909 432.769942,50.9637387" id="Fill-76" fill="#5EB7BF"></path>
                    <path d="M423.896065,91.3234085 C423.896065,91.3234085 425.212824,76.4711831 406.345513,73.5726808 C406.345513,73.5726808 404.864418,90.2276333 423.896065,91.3234085" id="Fill-78" fill="#5EB7BF"></path>
                    <path d="M437.826464,69.718338 C437.826464,69.718338 423.22562,72.7686271 425.923625,91.6567155 C425.923625,91.6567155 442.29887,88.2404749 437.826464,69.718338" id="Fill-80" fill="#5EB7BF"></path>
                    <path d="M422.505458,108.292955 C422.505458,108.292955 426.857213,94.0312418 408.992553,87.3068827 C408.992553,87.3068827 404.10827,103.298548 422.505458,108.292955" id="Fill-82" fill="#5EB7BF"></path>
                    <path d="M440.593115,90.023241 C440.593115,90.023241 425.676082,89.9982898 424.421728,109.038165 C424.421728,109.038165 441.150606,109.069354 440.593115,90.023241" id="Fill-84" fill="#5EB7BF"></path>
                    <path d="M418.961025,125.608907 C418.961025,125.608907 425.831888,112.376433 409.487846,102.518614 C409.487846,102.518614 401.778667,117.356284 418.961025,125.608907" id="Fill-86" fill="#5EB7BF"></path>
                    <path d="M440.068492,110.928221 C440.068492,110.928221 425.405242,108.193981 420.708175,126.689088 C420.708175,126.689088 437.154147,129.75809 440.068492,110.928221" id="Fill-88" fill="#5EB7BF"></path>
                    <path d="M412.70777,141.831995 C412.70777,141.831995 421.4196,129.728565 406.671062,117.614738 C406.671062,117.614738 396.898336,131.186133 412.70777,141.831995" id="Fill-90" fill="#5EB7BF"></path>
                    <path d="M435.715281,129.379871 C435.715281,129.379871 421.6012,124.558044 414.281017,142.179857 C414.281017,142.179857 430.109172,147.592197 435.715281,129.379871" id="Fill-92" fill="#5EB7BF"></path>
                    <path d="M402.643401,156.722063 C402.643401,156.722063 413.568552,146.571067 401.497217,131.791616 C401.497217,131.791616 389.240745,143.171461 402.643401,156.722063" id="Fill-94" fill="#5EB7BF"></path>
                    <path d="M427.653925,149.043111 C427.653925,149.043111 414.765076,141.536947 404.118671,157.374746 C404.118671,157.374746 418.569742,165.795789 427.653925,149.043111" id="Fill-96" fill="#5EB7BF"></path>
                    <path d="M391.898186,170.713887 C391.898186,170.713887 404.185861,162.263734 394.396493,145.881165 C394.396493,145.881165 380.613163,155.356399 391.898186,170.713887" id="Fill-98" fill="#5EB7BF"></path>
                    <path d="M417.761172,166.758699 C417.761172,166.758699 406.103795,157.456045 393.26279,171.574289 C393.26279,171.574289 406.332616,182.010145 417.761172,166.758699" id="Fill-100" fill="#5EB7BF"></path>
                    <path d="M379.278306,181.943608 C379.278306,181.943608 391.803122,174.869932 383.792315,158.29815 C383.792315,158.29815 369.742721,166.228486 379.278306,181.943608" id="Fill-102" fill="#5EB7BF"></path>
                    <path d="M404.463566,180.343402 C404.463566,180.343402 394.056382,170.414888 380.514354,182.886349 C380.514354,182.886349 392.184212,194.022919 404.463566,180.343402" id="Fill-104" fill="#5EB7BF"></path>
                    <path d="M364.229389,190.844755 C364.229389,190.844755 377.856705,186.235013 373.086832,168.459334 C373.086832,168.459334 357.801606,173.62632 364.229389,190.844755" id="Fill-106" fill="#5EB7BF"></path>
                    <path d="M389.269868,193.978838 C389.269868,193.978838 380.903349,182.280866 365.268651,192.001453 C365.268651,192.001453 374.648222,205.123725 389.269868,193.978838" id="Fill-108" fill="#5EB7BF"></path>
                    <path d="M348.71763,198.307671 C348.71763,198.307671 362.854592,195.644126 360.612149,177.37566 C360.612149,177.37566 344.75487,180.359412 348.71763,198.307671" id="Fill-110" fill="#5EB7BF"></path>
                    <path d="M373.075807,204.902699 C373.075807,204.902699 366.423364,192.150536 349.584236,199.598481 C349.584236,199.598481 357.041713,213.8997 373.075807,204.902699" id="Fill-112" fill="#5EB7BF"></path>
                    <path d="M333.163851,202.137894 C333.163851,202.137894 347.544195,201.680454 348.139129,183.285153 C348.139129,183.285153 332.011426,183.794574 333.163851,202.137894" id="Fill-114" fill="#5EB7BF"></path>
                    <path d="M356.21671,212.400962 C356.21671,212.400962 351.607012,198.777586 333.821399,203.545352 C333.821399,203.545352 338.988587,218.823827 356.21671,212.400962" id="Fill-116" fill="#5EB7BF"></path>
                    <path d="M246.836437,216.057359 L182.791588,151.745538 C174.691333,145.116826 192.360456,182.350313 202.902852,193.424505 C212.954324,203.983038 217.539059,203.714812 219.625489,202.829043 C223.800427,201.057505 228.341479,206.501034 232.370805,211.38316 C236.40013,216.265286 241.346819,225.104262 245.488475,225.682299 C247.414729,225.952604 254.458248,223.711151 246.836437,216.057359" id="Fill-118" fill="#5EB7BF"></path>
                    <g id="Group-122" transform="translate(185.996442, 148.745846)">
                        <mask id="mask-2" fill="white">
                            <use xlink:href="#path-1"></use>
                        </mask>
                        <g id="Clip-121"></g>
                        <path d="M68.6115801,15.1609267 L56.1533301,28.68034 C55.8350613,29.0254988 55.292132,29.0462915 54.9468207,28.7281632 C54.6015094,28.4121142 54.5786273,27.8673455 54.8968962,27.5242659 L67.3551462,14.0048525 L70.6418443,8.01655503 L64.3617547,11.2477406 L51.9014245,24.7650747 C51.5852358,25.1102335 51.0423065,25.1331054 50.6969952,24.8149771 C50.3516839,24.4968488 50.3288018,23.9541594 50.6470707,23.6090006 L63.1053207,10.0916665 L66.3920188,4.10336894 L60.109849,7.33247521 L47.651599,20.8518886 C47.3333301,21.1970474 46.7904009,21.2199194 46.4450896,20.901791 C46.0997782,20.5836627 46.0789763,20.0409733 46.395165,19.6958145 L58.8554952,6.1764011 L62.0111414,0.0695851928 L56.3239056,3.84761873 C56.2302971,3.94118588 56.1200471,4.00980179 56.0285188,4.10960675 L42.5904999,18.6915271 C39.6553537,21.8748894 39.1977122,26.4638382 41.0574009,30.1254326 L4.0279622,68.5129149 C-3.54600478,76.2103723 3.50999522,78.4102399 5.43416975,78.1295385 C9.57166503,77.5244709 32.8094528,49.9741438 36.8096556,45.0691459 C38.1846603,43.3807787 42.2576697,38.67747 45.9104811,34.71854 C49.7692311,36.436017 54.4579763,35.6542115 57.4680094,32.3897576 L70.903948,17.8078373 C70.9954763,17.7080324 71.0558018,17.5915933 71.1431697,17.4917883 L73.880698,12.0960827 L68.6115801,15.1609267 Z" id="Fill-120" fill="#5EB7BF" mask="url(#mask-2)"></path>
                    </g>
                </g>
                <text id="野餐達人" font-family="DFPuDingStd-W12, DFPuDing Std" font-size="72.6694915" font-weight="300" fill="#D95B63">
                    <tspan x="76.6892249" y="138">野餐達人</tspan>
                </text>
                <text id="票選" font-family="DFPuDingStd-W12, DFPuDing Std" font-size="48" font-weight="300" fill="#5EB7BF">
                    <tspan x="174.028208" y="41">票選</tspan>
                </text>
                <path d="M160.261719,20.1757812 L89.5354858,20.1757813" id="Path-3064" stroke="#6CC5BA"></path>
                <path d="M358.726233,22 L288,22" id="Path-3064-Copy" stroke="#6CC5BA"></path>
            </g>
        </g>
    </g>
</svg>